<?xml version="1.0" standalone="no"?>
<!DOCTYPE svg PUBLIC "-//W3C//DTD SVG 1.1//EN" "http://www.w3.org/Graphics/SVG/1.1/DTD/svg11.dtd" >
<svg xmlns="http://www.w3.org/2000/svg" xmlns:xlink="http://www.w3.org/1999/xlink" version="1.1">
<metadata>
Created by FontForge 20161003 at Fri Feb 17 09:09:02 2017
 By www-data
Font software Copyright (c) 2012 Intel Corporation. Licensed under the Apache License, Version 2.0.  http://www.apache.org/licenses/LICENSE-2.0
</metadata>
<defs>
<font id="ClearSansBold" horiz-adv-x="1044" >
  <font-face 
    font-family="ClearSansBold"
    font-weight="700"
    font-stretch="normal"
    units-per-em="2048"
    panose-1="2 11 8 3 3 2 2 2 3 4"
    ascent="1489"
    descent="-559"
    x-height="1049"
    cap-height="1384"
    bbox="-410 -629 2884 2206"
    underline-thickness="102"
    underline-position="-307"
    unicode-range="U+000D-FEFF"
  />
<missing-glyph horiz-adv-x="1022" 
d="M25 1362h972v-1362h-972v1362zM512 768l330 498h-662zM123 186l330 496l-330 496v-992zM569 682l332 -498v994zM512 594l-332 -496h662z" />
    <glyph glyph-name="f_f" unicode="ff" horiz-adv-x="1319" 
d="M698 1270q-72 24 -139 24q-76 0 -104.5 -31.5t-28.5 -111.5v-102h213v-205h-213v-844h-258v844h-133v205h133v102q0 195 96.5 282t290.5 87q91 0 193 -25zM1357 1270q-72 24 -139 24q-76 0 -104.5 -31.5t-28.5 -111.5v-102h213v-205h-213v-844h-258v844h-133v205h133v102
q0 195 96.5 282t290.5 87q91 0 193 -25z" />
    <glyph glyph-name="fi" unicode="fi" horiz-adv-x="1208" 
d="M698 1270q-72 24 -139 24q-76 0 -104.5 -31.5t-28.5 -111.5v-102h213v-205h-213v-844h-258v844h-133v205h133v102q0 195 96.5 282t290.5 87q91 0 193 -25zM1077 1335q0 -73 -36 -102t-110 -29q-82 0 -111.5 34t-29.5 97q0 70 32 100.5t109 30.5q78 0 112 -29.5t34 -101.5
zM804 0v1049h258v-1049h-258z" />
    <glyph glyph-name="fl" unicode="fl" horiz-adv-x="1208" 
d="M698 1270q-72 24 -139 24q-76 0 -104.5 -31.5t-28.5 -111.5v-102h213v-205h-213v-844h-258v844h-133v205h133v102q0 195 96.5 282t290.5 87q91 0 193 -25zM804 0v1489h258v-1489h-258z" />
    <glyph glyph-name="f_f_i" unicode="ffi" horiz-adv-x="1868" 
d="M698 1270q-72 24 -139 24q-76 0 -104.5 -31.5t-28.5 -111.5v-102h213v-205h-213v-844h-258v844h-133v205h133v102q0 195 96.5 282t290.5 87q91 0 193 -25zM1357 1270q-72 24 -139 24q-76 0 -104.5 -31.5t-28.5 -111.5v-102h213v-205h-213v-844h-258v844h-133v205h133v102
q0 195 96.5 282t290.5 87q91 0 193 -25zM1737 1335q0 -73 -36 -102t-110 -29q-82 0 -111.5 34t-29.5 97q0 70 32 100.5t109 30.5q78 0 112 -29.5t34 -101.5zM1464 0v1049h258v-1049h-258z" />
    <glyph glyph-name="f_f_l" unicode="ffl" horiz-adv-x="1868" 
d="M698 1270q-72 24 -139 24q-76 0 -104.5 -31.5t-28.5 -111.5v-102h213v-205h-213v-844h-258v844h-133v205h133v102q0 195 96.5 282t290.5 87q91 0 193 -25zM1357 1270q-72 24 -139 24q-76 0 -104.5 -31.5t-28.5 -111.5v-102h213v-205h-213v-844h-258v844h-133v205h133v102
q0 195 96.5 282t290.5 87q91 0 193 -25zM1464 0v1489h258v-1489h-258z" />
    <glyph glyph-name=".notdef" horiz-adv-x="1022" 
d="M25 1362h972v-1362h-972v1362zM512 768l330 498h-662zM123 186l330 496l-330 496v-992zM569 682l332 -498v994zM512 594l-332 -496h662z" />
    <glyph glyph-name=".null" horiz-adv-x="0" 
 />
    <glyph glyph-name="nonmarkingreturn" unicode="&#xd;" horiz-adv-x="492" 
 />
    <glyph glyph-name="NULL" horiz-adv-x="0" 
 />
    <glyph glyph-name="NULL" horiz-adv-x="0" 
 />
    <glyph glyph-name="space" unicode=" " horiz-adv-x="492" 
 />
    <glyph glyph-name="exclam" unicode="!" horiz-adv-x="584" 
d="M401 440h-215l-34 944h280zM455 139q0 -86 -39 -119.5t-125 -33.5q-94 0 -128 37.5t-34 115.5q0 82 36 118t126 36q92 0 128 -35t36 -119z" />
    <glyph glyph-name="quotedbl" unicode="&#x22;" horiz-adv-x="977" 
d="M795 772h-185l-45 612h275zM367 772h-185l-45 612h275z" />
    <glyph glyph-name="numbersign" unicode="#" horiz-adv-x="1405" 
d="M1055 821l-70 -258h232v-180h-279l-104 -383h-193l104 383h-247l-105 -383h-192l104 383h-233v180h280l70 258h-234v180h283l104 385h193l-104 -385h247l105 385h192l-104 -385h229v-180h-278zM614 821l-69 -258h248l69 258h-248z" />
    <glyph glyph-name="dollar" unicode="$" horiz-adv-x="1280" 
d="M1169 430q0 -166 -111.5 -258t-316.5 -109v-196h-180v192q-310 32 -438 232l205 139q37 -49 99 -94t134 -53v315q-164 41 -246.5 86.5t-125 112.5t-42.5 159q0 160 111 247t303 104v106h180v-106q144 -11 247.5 -69t162.5 -155l-193 -137q-34 47 -90.5 87t-126.5 50v-280
q191 -50 269 -96t118.5 -112.5t40.5 -164.5zM561 1087q-65 -4 -106 -32.5t-41 -83.5q0 -39 30.5 -68t116.5 -53v237zM903 408q0 51 -34.5 83.5t-127.5 61.5v-272q74 8 118 41.5t44 85.5z" />
    <glyph glyph-name="percent" unicode="%" horiz-adv-x="2163" 
d="M1681 -31q-185 0 -288 114.5t-103 330.5q0 219 100 334.5t291 115.5q193 0 293.5 -116t100.5 -334q0 -216 -102.5 -330.5t-291.5 -114.5zM590 -51l747 1487h238l-750 -1487h-235zM479 518q-185 0 -288 114.5t-103 330.5q0 221 101.5 335.5t289.5 114.5q192 0 292.5 -116
t100.5 -334q0 -216 -101 -330.5t-292 -114.5zM1681 150q81 0 114.5 63.5t33.5 200.5q0 97 -16 158t-45 86.5t-87 25.5q-78 0 -111.5 -64.5t-33.5 -205.5q0 -152 37 -208t108 -56zM479 698q80 0 114 63.5t34 201.5q0 136 -32 203t-116 67q-78 0 -111.5 -64.5t-33.5 -205.5
q0 -152 37 -208.5t108 -56.5z" />
    <glyph glyph-name="ampersand" unicode="&#x26;" horiz-adv-x="1417" 
d="M1049 0l-72 86q-72 -49 -158 -82t-215 -33q-237 0 -374.5 109t-137.5 293q0 131 57.5 217t231.5 194q-59 72 -101 148t-42 153q0 160 106 244t303 84q165 0 271 -74t106 -209q0 -72 -31 -136t-85 -120t-165 -129l263 -309q64 87 102 230l227 -52q-51 -211 -176 -356
l217 -258h-327zM764 1128q0 41 -34 68t-89 27q-70 0 -105.5 -34t-35.5 -93q0 -41 23.5 -81t70.5 -93q65 43 103.5 77.5t52.5 61t14 67.5zM526 612q-94 -59 -131 -114.5t-37 -126.5q0 -90 67 -140.5t183 -50.5q129 0 226 76z" />
    <glyph glyph-name="quotesingle" unicode="'" horiz-adv-x="549" 
d="M367 772h-185l-45 612h275z" />
    <glyph glyph-name="parenleft" unicode="(" horiz-adv-x="856" 
d="M522 -395q-409 433 -409 956q0 528 409 961h293q-217 -205 -337 -438.5t-120 -522.5t120 -520t337 -436h-293z" />
    <glyph glyph-name="parenright" unicode=")" horiz-adv-x="856" 
d="M41 -395q217 205 337 436t120 520t-120 522.5t-337 438.5h293q409 -433 409 -961q0 -523 -409 -956h-293z" />
    <glyph glyph-name="asterisk" unicode="*" horiz-adv-x="911" 
d="M791 834l-259 159l11 -260h-174l12 260l-260 -159l-90 149l282 141l-282 146l90 149l258 -159l-10 260h174l-13 -260l261 159l90 -151l-283 -142l283 -143z" />
    <glyph glyph-name="plus" unicode="+" horiz-adv-x="1427" 
d="M817 479v-477h-205v477h-479v205h479v479h205v-479h477v-205h-477z" />
    <glyph glyph-name="comma" unicode="," horiz-adv-x="584" 
d="M145 -293q41 69 72.5 151t36.5 132q-66 4 -95.5 42t-29.5 113q0 74 35 117t131 43q160 0 160 -180q0 -123 -42 -234.5t-91 -183.5h-177z" />
    <glyph glyph-name="hyphen" unicode="-" horiz-adv-x="786" 
d="M82 399v254h623v-254h-623z" />
    <glyph glyph-name="period" unicode="." horiz-adv-x="584" 
d="M455 145q0 -86 -39 -122.5t-125 -36.5q-94 0 -128 41t-34 118q0 82 36 121t126 39q92 0 128 -38t36 -122z" />
    <glyph glyph-name="slash" unicode="/" horiz-adv-x="1036" 
d="M242 -299h-254l690 1819h256z" />
    <glyph glyph-name="zero" unicode="0" horiz-adv-x="1280" 
d="M1180 692q0 -373 -131 -548t-410 -175q-277 0 -408 175t-131 546t131 547t408 176q279 0 410 -175t131 -546zM889 692q0 248 -60.5 363.5t-189.5 115.5t-188.5 -116.5t-59.5 -364.5t59.5 -363.5t188.5 -115.5t189.5 116.5t60.5 364.5z" />
    <glyph glyph-name="one" unicode="1" horiz-adv-x="1280" 
d="M584 0v928h-336v190q144 9 217.5 34.5t117 79.5t68.5 152h215v-1384h-282z" />
    <glyph glyph-name="two" unicode="2" horiz-adv-x="1204" 
d="M106 0v236q163 137 297 262t207 207.5t113.5 158t40.5 158.5q0 65 -49 103t-135 38q-93 0 -152 -43t-98 -102l-228 160q85 127 201.5 181t290.5 54q214 0 337.5 -100t123.5 -281q0 -133 -48.5 -233.5t-138 -195t-223 -208.5t-164.5 -137h619v-258h-994z" />
    <glyph glyph-name="three" unicode="3" horiz-adv-x="1204" 
d="M1055 389q0 -213 -139.5 -315.5t-383.5 -102.5q-174 0 -294.5 63.5t-171.5 160.5l227 155q37 -57 92 -92t150 -35q120 0 174.5 46t54.5 141q0 192 -254 192h-123v242h107q127 0 185 50t58 130q0 59 -42 98t-138 39t-153.5 -30.5t-98.5 -92.5l-225 158q82 111 198.5 164
t299.5 53q139 0 242.5 -43.5t156.5 -120.5t53 -176q0 -271 -280 -340q137 -9 221 -103.5t84 -240.5z" />
    <glyph glyph-name="four" unicode="4" horiz-adv-x="1280" 
d="M1028 229v-229h-270v229h-695v260l676 895h289v-913h170v-242h-170zM758 1014l-420 -543h420v543z" />
    <glyph glyph-name="five" unicode="5" horiz-adv-x="1204" 
d="M1100 455q0 -226 -144.5 -355t-416.5 -129q-339 0 -490 228l225 159q77 -135 261 -135q276 0 276 238q0 100 -72.5 157.5t-201.5 57.5q-138 0 -209 -74h-197l82 782h809v-258h-584l-28 -243q95 39 211 39q222 0 350.5 -119t128.5 -348z" />
    <glyph glyph-name="six" unicode="6" horiz-adv-x="1204" 
d="M623 -29q-250 0 -386.5 165.5t-136.5 471.5q0 392 147 598.5t429 206.5q267 0 395 -113l-160 -217q-49 43 -104 65.5t-131 22.5q-135 0 -196.5 -92t-78.5 -262q80 54 143.5 75t151.5 21q195 0 309.5 -119.5t114.5 -344.5q0 -222 -134 -350t-363 -128zM625 213
q94 0 153.5 50t59.5 179q0 106 -59 169t-158 63q-78 0 -137.5 -25.5t-90.5 -50.5q0 -153 23 -225t73 -116t136 -44z" />
    <glyph glyph-name="seven" unicode="7" horiz-adv-x="1280" 
d="M631 0h-316l510 1126h-712v258h1038v-172z" />
    <glyph glyph-name="eight" unicode="8" horiz-adv-x="1204" 
d="M1118 375q0 -192 -133.5 -298t-382.5 -106q-246 0 -382 101.5t-136 302.5q0 123 69.5 215t186.5 145q-112 55 -167.5 133.5t-55.5 169.5q0 183 128 279t357 96q223 0 353 -93t130 -280q0 -62 -29.5 -115t-76.5 -96t-143 -96q115 -56 170 -105t83.5 -112t28.5 -141z
M809 1036q0 66 -48 111t-159 45q-119 0 -164 -45t-45 -105q0 -45 20 -76t66.5 -65.5t122.5 -64.5q117 51 162 100t45 100zM836 375q0 86 -57.5 143t-176.5 113q-127 -56 -181 -113t-54 -145q0 -78 56 -128t179 -50t178.5 52t55.5 128z" />
    <glyph glyph-name="nine" unicode="9" horiz-adv-x="1204" 
d="M274 301q101 -88 256 -88q233 0 273 354q-60 -41 -122.5 -68.5t-150.5 -27.5q-213 0 -329.5 120t-116.5 345q0 216 133.5 346.5t353.5 130.5q271 0 402 -169t131 -468q0 -386 -146.5 -595.5t-427.5 -209.5q-278 0 -413 115zM584 711q78 0 137 25.5t90 49.5
q0 211 -55.5 298t-180.5 87q-98 0 -154 -60.5t-56 -168.5q0 -105 58.5 -168t160.5 -63z" />
    <glyph glyph-name="colon" unicode=":" horiz-adv-x="584" 
d="M455 889q0 -86 -39 -123t-125 -37q-94 0 -128 41t-34 119q0 82 36 121t126 39q92 0 128 -38t36 -122zM455 145q0 -86 -39 -122.5t-125 -36.5q-94 0 -128 41t-34 118q0 82 36 121t126 39q92 0 128 -38t36 -122z" />
    <glyph glyph-name="semicolon" unicode=";" horiz-adv-x="584" 
d="M455 889q0 -86 -39 -123t-125 -37q-94 0 -128 41t-34 119q0 82 36 121t126 39q92 0 128 -38t36 -122zM455 125q0 -123 -42 -234.5t-91 -183.5h-177q41 69 72.5 151t36.5 132q-66 4 -95.5 42t-29.5 113q0 74 35 117t131 43q160 0 160 -180z" />
    <glyph glyph-name="less" unicode="&#x3c;" horiz-adv-x="1427" 
d="M131 481v203l1163 479v-225l-866 -354l866 -355v-225z" />
    <glyph glyph-name="equal" unicode="=" horiz-adv-x="1427" 
d="M133 725v205h1161v-205h-1161zM133 233v205h1161v-205h-1161z" />
    <glyph glyph-name="greater" unicode="&#x3e;" horiz-adv-x="1427" 
d="M131 4v225l866 355l-866 354v225l1163 -479v-203z" />
    <glyph glyph-name="question" unicode="?" horiz-adv-x="1071" 
d="M332 399v301q163 68 235 112t107 93t35 113q0 153 -197 153q-90 0 -144.5 -35.5t-99.5 -109.5l-233 139q69 123 184 185.5t291 62.5q238 0 363.5 -98.5t125.5 -276.5q0 -99 -40.5 -176t-114.5 -140t-240 -144v-179h-272zM635 139q0 -86 -39 -119.5t-125 -33.5
q-94 0 -128 37.5t-34 115.5q0 82 36 118t126 36q92 0 128 -36t36 -118z" />
    <glyph glyph-name="at" unicode="@" horiz-adv-x="1950" 
d="M1845 569q0 -169 -45 -292t-135.5 -192t-224.5 -69q-99 0 -164.5 27t-93.5 98q-141 -98 -283 -98q-127 0 -215 59t-134 166.5t-46 249.5q0 231 113 367.5t315 136.5q113 0 231 -70v41h215v-696q0 -66 22.5 -81t51.5 -15q64 0 106 46t64.5 128t22.5 186q0 328 -168.5 499
t-485.5 171q-195 0 -353 -88t-245.5 -244.5t-87.5 -347.5q0 -207 84.5 -361t238 -235.5t359.5 -81.5q123 0 228.5 9t220.5 36l39 -180q-190 -47 -490 -47q-260 0 -460 104.5t-310.5 302t-110.5 455.5q0 239 114 436.5t319 310.5t452 113q402 0 629 -223t227 -621zM1161 758
q-114 69 -198 69q-117 0 -177.5 -72.5t-60.5 -234.5q0 -143 55 -209.5t158 -66.5q89 0 223 92v422z" />
    <glyph glyph-name="A" unicode="A" horiz-adv-x="1337" 
d="M27 0l458 1384h367l459 -1384h-289l-92 281h-533l-90 -281h-280zM477 528h373l-186 572z" />
    <glyph glyph-name="B" unicode="B" horiz-adv-x="1298" 
d="M1210 401q0 -208 -143 -304.5t-397 -96.5h-520v1384h489q266 0 381 -77.5t115 -245.5q0 -129 -62.5 -209t-195.5 -107q174 -24 253.5 -110t79.5 -234zM850 999q0 79 -58 109.5t-180 30.5h-180v-297h172q125 0 185.5 35t60.5 122zM922 426q0 93 -63 131.5t-236 38.5h-191
v-346h143q165 0 227.5 16t91 54t28.5 106z" />
    <glyph glyph-name="C" unicode="C" horiz-adv-x="1333" 
d="M1276 229q-89 -133 -218.5 -195.5t-318.5 -62.5q-643 0 -643 721q0 369 163 545t470 176q203 0 331 -68.5t195 -179.5l-219 -170q-48 72 -88 104t-91 48t-122 16q-170 0 -259 -108.5t-89 -362.5q0 -237 83.5 -354t266.5 -117q123 0 191.5 47t124.5 125z" />
    <glyph glyph-name="D" unicode="D" horiz-adv-x="1313" 
d="M1227 692q0 -250 -69 -402t-208 -221t-391 -69h-422v1384h418q245 0 389.5 -71t213.5 -221.5t69 -399.5zM936 694q0 181 -35.5 268.5t-120.5 125.5t-252 38h-108v-868h108q167 0 251.5 38.5t120.5 128.5t36 269z" />
    <glyph glyph-name="E" unicode="E" horiz-adv-x="1149" 
d="M150 0v1384h899v-249h-617v-295h520v-250h-520v-332h617v-258h-899z" />
    <glyph glyph-name="F" unicode="F" horiz-adv-x="1104" 
d="M432 1126v-299h510v-249h-510v-578h-282v1384h890v-258h-608z" />
    <glyph glyph-name="G" unicode="G" horiz-adv-x="1415" 
d="M1065 995q-53 86 -129 127t-191 41q-189 0 -273.5 -121.5t-84.5 -361.5q0 -238 83.5 -348.5t268.5 -110.5q140 0 258 58v215h-270v249h553v-612q-96 -72 -238.5 -116t-293.5 -44q-324 0 -488 169t-164 540q0 733 645 733q188 0 328 -63t213 -185z" />
    <glyph glyph-name="H" unicode="H" horiz-adv-x="1409" 
d="M977 0v588h-545v-588h-282v1384h282v-538h545v538h283v-1384h-283z" />
    <glyph glyph-name="I" unicode="I" horiz-adv-x="872" 
d="M770 0h-668v217h193v950h-193v217h668v-217h-192v-950h192v-217z" />
    <glyph glyph-name="J" unicode="J" horiz-adv-x="924" 
d="M770 377q0 -219 -110.5 -313.5t-346.5 -94.5q-51 0 -142 15t-151 39l86 251q32 -17 102.5 -36t110.5 -19q74 0 107 20t47 70t14 144v931h283v-1007z" />
    <glyph glyph-name="K" unicode="K" horiz-adv-x="1280" 
d="M899 0l-383 578l-84 -97v-481h-282v1384h282v-540l453 540h329l-516 -596l553 -788h-352z" />
    <glyph glyph-name="L" unicode="L" horiz-adv-x="1038" 
d="M150 0v1384h282v-1126h582v-258h-864z" />
    <glyph glyph-name="M" unicode="M" horiz-adv-x="1667" 
d="M1245 0v930l-332 -578h-163l-328 578v-930h-272v1384h325l361 -657l364 657h318v-1384h-273z" />
    <glyph glyph-name="N" unicode="N" horiz-adv-x="1411" 
d="M930 0l-504 989v-989h-276v1384h366l469 -933v933h277v-1384h-332z" />
    <glyph glyph-name="O" unicode="O" horiz-adv-x="1364" 
d="M1278 692q0 -361 -152.5 -541t-443.5 -180q-307 0 -451.5 189.5t-144.5 531.5q0 344 144.5 532.5t451.5 188.5q309 0 452.5 -188.5t143.5 -532.5zM987 692q0 246 -69.5 358.5t-235.5 112.5t-235.5 -112.5t-69.5 -358.5t70.5 -358.5t234.5 -112.5q166 0 235.5 112.5
t69.5 358.5z" />
    <glyph glyph-name="P" unicode="P" horiz-adv-x="1239" 
d="M1161 920q0 -250 -117.5 -371t-381.5 -121h-230v-428h-282v1384h520q235 0 363 -109.5t128 -354.5zM870 918q0 117 -64.5 169t-232.5 52h-141v-465h115q155 0 214.5 21.5t84 72.5t24.5 150z" />
    <glyph glyph-name="Q" unicode="Q" horiz-adv-x="1364" 
d="M1282 -313q-34 -11 -118 -23t-160 -12q-399 0 -461 330q-213 32 -335 205t-122 505q0 346 144.5 533.5t453.5 187.5q307 0 450.5 -188.5t143.5 -532.5q0 -611 -428 -706q10 -54 43 -78.5t119 -24.5q45 0 104.5 9.5t100.5 21.5zM987 692q0 246 -69.5 358.5t-233.5 112.5
q-170 0 -238.5 -112.5t-68.5 -358.5t69.5 -358.5t237.5 -112.5t235.5 114t67.5 357z" />
    <glyph glyph-name="R" unicode="R" horiz-adv-x="1284" 
d="M928 0l-353 524h-143v-524h-282v1384h503q267 0 390.5 -96t123.5 -315q0 -177 -74.5 -282t-211.5 -134l370 -557h-323zM881 961q0 106 -53.5 142t-176.5 36h-219v-369h207q95 0 146 18t73.5 56t22.5 117z" />
    <glyph glyph-name="S" unicode="S" horiz-adv-x="1229" 
d="M1145 401q0 -208 -136.5 -319t-402.5 -111q-184 0 -319.5 61t-220.5 197l217 166q48 -68 91 -102t102 -53t136 -19q115 0 179.5 39.5t64.5 120.5q0 46 -22.5 77t-67.5 53.5t-156 51.5q-108 29 -203.5 58.5t-165 76.5t-109.5 118t-40 179q0 197 133 307.5t381 110.5
q359 0 508 -246l-215 -168q-57 88 -128 126t-169 38t-159.5 -35.5t-61.5 -111.5q0 -67 64 -102.5t223 -71.5q88 -23 174 -49.5t153.5 -73.5t108.5 -123t41 -195z" />
    <glyph glyph-name="T" unicode="T" horiz-adv-x="1204" 
d="M743 1126v-1126h-282v1126h-426v258h1134v-258h-426z" />
    <glyph glyph-name="U" unicode="U" horiz-adv-x="1438" 
d="M1288 578q0 -325 -132 -467t-437 -142q-302 0 -435.5 140.5t-133.5 468.5v806h282v-786q0 -141 27 -222t86 -119t172 -38q161 0 225 85.5t64 289.5v790h282v-806z" />
    <glyph glyph-name="V" unicode="V" horiz-adv-x="1243" 
d="M786 0h-333l-426 1384h286l312 -1032l311 1032h281z" />
    <glyph glyph-name="W" unicode="W" horiz-adv-x="1833" 
d="M1432 0h-289l-232 915l-233 -915h-285l-350 1384h281l221 -903l229 903h279l231 -909l227 909h279z" />
    <glyph glyph-name="X" unicode="X" horiz-adv-x="1286" 
d="M29 0l463 694l-451 690h321l287 -466l297 466h311l-454 -684l452 -700h-317l-297 477l-301 -477h-311z" />
    <glyph glyph-name="Y" unicode="Y" horiz-adv-x="1188" 
d="M735 528v-528h-284v522l-433 862h308l270 -579l276 579h297z" />
    <glyph glyph-name="Z" unicode="Z" horiz-adv-x="1147" 
d="M72 0v238l635 888h-605v258h942v-227l-641 -899h658v-258h-989z" />
    <glyph glyph-name="bracketleft" unicode="[" horiz-adv-x="764" 
d="M154 -395v1884h548v-207h-309v-1470h309v-207h-548z" />
    <glyph glyph-name="backslash" unicode="\" horiz-adv-x="1036" 
d="M795 -299l-693 1819h256l691 -1819h-254z" />
    <glyph glyph-name="bracketright" unicode="]" horiz-adv-x="764" 
d="M61 -395v207h310v1470h-310v207h549v-1884h-549z" />
    <glyph glyph-name="asciicircum" unicode="^" horiz-adv-x="1300" 
d="M958 594l-307 557l-309 -557h-219l434 790h186l435 -790h-220z" />
    <glyph glyph-name="underscore" unicode="_" horiz-adv-x="1024" 
d="M-10 -256v102h1044v-102h-1044z" />
    <glyph glyph-name="grave" unicode="`" 
d="M494 1208l-299 361h315l188 -361h-204z" />
    <glyph glyph-name="a" unicode="a" horiz-adv-x="1139" 
d="M764 0v109q-153 -140 -328 -140q-174 0 -263 91.5t-89 234.5q0 112 45.5 185t135 114.5t257.5 58.5l221 21v47q0 88 -53 120.5t-155 32.5q-84 0 -144.5 -28t-89.5 -80l-201 129q53 89 166 136.5t273 47.5q245 0 353.5 -85.5t108.5 -280.5v-713h-237zM743 487l-131 -12
q-139 -12 -200.5 -53t-61.5 -123q0 -72 40 -98.5t106 -26.5q47 0 114.5 29.5t132.5 83.5v200z" />
    <glyph glyph-name="b" unicode="b" horiz-adv-x="1217" 
d="M1124 532q0 -261 -109.5 -412t-312.5 -151q-80 0 -174.5 36.5t-150.5 92.5l-35 -98h-197v1489h258v-524q142 114 314 114q211 0 309 -145.5t98 -401.5zM858 528q0 162 -51 243t-164 81q-63 0 -127.5 -29.5t-112.5 -72.5v-459q43 -37 104.5 -65.5t119.5 -28.5
q111 0 171 84.5t60 246.5z" />
    <glyph glyph-name="c" unicode="c" horiz-adv-x="1059" 
d="M1012 150q-60 -89 -158 -135t-248 -46q-254 0 -384 138.5t-130 410.5q0 265 126 413t378 148q135 0 240.5 -44t160.5 -136l-192 -137q-35 47 -82 69.5t-121 22.5q-132 0 -188 -81t-56 -251t57.5 -248.5t196.5 -78.5q60 0 110 17t95 75z" />
    <glyph glyph-name="d" unicode="d" horiz-adv-x="1217" 
d="M834 0v102q-72 -61 -152 -97t-182 -36q-198 0 -303 143t-105 404q0 267 115.5 415t324.5 148q74 0 152 -30.5t129 -77.5v518h258v-1489h-237zM813 758q-41 37 -101.5 65.5t-123.5 28.5q-104 0 -167 -89.5t-63 -242.5q0 -151 51.5 -237t159.5 -86q64 0 130.5 29.5
t113.5 72.5v459z" />
    <glyph glyph-name="e" unicode="e" horiz-adv-x="1143" 
d="M358 457q7 -140 68 -201t192 -61q76 0 133.5 19t100.5 73l192 -137q-63 -91 -163.5 -136t-274.5 -45q-259 0 -386.5 136t-127.5 411q0 563 504 563q224 0 341.5 -126.5t117.5 -368.5v-127h-697zM799 635q0 239 -209 239q-69 0 -113 -23.5t-70.5 -70t-41.5 -145.5h434z
" />
    <glyph glyph-name="f" unicode="f" horiz-adv-x="659" 
d="M698 1270q-72 24 -139 24q-76 0 -104.5 -31.5t-28.5 -111.5v-102h213v-205h-213v-844h-258v844h-133v205h133v102q0 195 96.5 282t290.5 87q91 0 193 -25z" />
    <glyph glyph-name="g" unicode="g" horiz-adv-x="1217" 
d="M1071 20q0 -210 -129 -312.5t-414 -102.5q-235 0 -411 90l76 211q163 -76 335 -76q160 0 222.5 46t62.5 155v86q-128 -117 -309 -117q-192 0 -302 138t-110 397q0 162 51.5 285.5t151 191t240.5 67.5q83 0 166 -36.5t139 -92.5l34 99h197v-1029zM813 758q-106 94 -231 94
q-94 0 -159 -86t-65 -227q0 -160 57.5 -236t149.5 -76q128 0 248 103v428z" />
    <glyph glyph-name="h" unicode="h" horiz-adv-x="1217" 
d="M821 0v578q0 166 -31 220t-110 54q-115 0 -277 -152v-700h-258v1489h258v-576q82 82 175 124t182 42q176 0 247.5 -99t71.5 -280v-700h-258z" />
    <glyph glyph-name="i" unicode="i" horiz-adv-x="549" 
d="M418 1335q0 -73 -36 -102t-110 -29q-82 0 -111.5 34t-29.5 97q0 70 32 100.5t109 30.5q78 0 112 -29.5t34 -101.5zM145 0v1049h258v-1049h-258z" />
    <glyph glyph-name="j" unicode="j" horiz-adv-x="563" 
d="M432 1335q0 -73 -36 -102t-109 -29q-82 0 -112 34t-30 97q0 70 32 100.5t110 30.5t111.5 -29.5t33.5 -101.5zM418 -45q0 -188 -84 -269t-275 -81q-43 0 -113 9.5t-108 20.5l56 224q73 -29 151 -29t96.5 48t18.5 159v1012h258v-1094z" />
    <glyph glyph-name="k" unicode="k" horiz-adv-x="1100" 
d="M784 0l-280 434l-101 -108v-326h-258v1489h258v-852l353 412h299l-396 -441l418 -608h-293z" />
    <glyph glyph-name="l" unicode="l" horiz-adv-x="549" 
d="M145 0v1489h258v-1489h-258z" />
    <glyph glyph-name="m" unicode="m" horiz-adv-x="1790" 
d="M1395 0v618q0 93 -11 145t-33.5 70.5t-74.5 18.5q-59 0 -125 -44t-123 -108v-700h-258v618q0 102 -9 147.5t-32 66t-78 20.5q-48 0 -111 -36.5t-137 -115.5v-700h-258v1049h258v-136q72 78 151 122t175 44q131 0 193.5 -45t85.5 -133q90 90 168.5 134t183.5 44
q153 0 223 -87t70 -292v-700h-258z" />
    <glyph glyph-name="n" unicode="n" horiz-adv-x="1217" 
d="M821 0v578q0 164 -29.5 219t-111.5 55q-115 0 -277 -152v-700h-258v1049h258v-136q82 82 175 124t182 42q161 0 240 -88t79 -291v-700h-258z" />
    <glyph glyph-name="o" unicode="o" horiz-adv-x="1190" 
d="M1098 522q0 -262 -121 -407.5t-381 -145.5q-504 0 -504 553q0 266 121 411.5t383 145.5q260 0 381 -145.5t121 -411.5zM831 522q0 173 -54 252.5t-181 79.5q-126 0 -182 -81.5t-56 -250.5q0 -168 55.5 -247.5t182.5 -79.5q125 0 180 78.5t55 248.5z" />
    <glyph glyph-name="p" unicode="p" horiz-adv-x="1217" 
d="M1124 532q0 -169 -51 -298t-146 -197t-227 -68q-174 0 -297 109v-473h-258v1444h238v-103q72 62 151.5 97.5t182.5 35.5q199 0 303 -140t104 -407zM858 528q0 153 -53 238.5t-158 85.5q-63 0 -129.5 -29.5t-114.5 -72.5v-459q41 -37 101.5 -65.5t124.5 -28.5
q106 0 167.5 90.5t61.5 240.5z" />
    <glyph glyph-name="q" unicode="q" horiz-adv-x="1217" 
d="M813 -395v479q-141 -115 -313 -115q-198 0 -303 140t-105 407q0 266 114 414.5t324 148.5q95 0 178 -40t132 -89l34 99h197v-1444h-258zM813 758q-47 43 -107.5 68.5t-117.5 25.5q-104 0 -167 -89.5t-63 -242.5t50 -238t161 -85q64 0 130.5 29.5t113.5 72.5v459z" />
    <glyph glyph-name="r" unicode="r" horiz-adv-x="840" 
d="M778 797q-40 20 -106 20q-72 0 -136.5 -34.5t-132.5 -100.5v-682h-258v1049h258v-150q66 72 142 119t170 47q80 0 114 -21z" />
    <glyph glyph-name="s" unicode="s" horiz-adv-x="1026" 
d="M946 299q0 -104 -52.5 -178t-149 -113t-220.5 -39q-329 0 -448 183l192 135q47 -64 108.5 -85.5t131.5 -21.5q184 0 184 107q0 47 -52 72.5t-163 52.5q-209 46 -294 130t-85 218q0 139 106.5 229t313.5 90q141 0 248.5 -45t165.5 -135l-193 -137q-69 106 -225 106
q-80 0 -121 -27.5t-41 -70.5q0 -41 37 -65.5t146 -51.5q179 -44 255.5 -87.5t116 -108t39.5 -158.5z" />
    <glyph glyph-name="t" unicode="t" horiz-adv-x="739" 
d="M725 0q-104 -31 -219 -31q-182 0 -262 82t-80 266v527h-133v205h133v292h258v-292h244v-205h-244v-494q0 -98 30.5 -133t86.5 -35q71 0 141 29z" />
    <glyph glyph-name="u" unicode="u" horiz-adv-x="1217" 
d="M813 0v135q-68 -73 -166.5 -119.5t-189.5 -46.5q-178 0 -249 98.5t-71 280.5v701h258v-578q0 -111 13 -170t42.5 -81.5t86.5 -22.5q115 0 276 151v701h258v-1049h-258z" />
    <glyph glyph-name="v" unicode="v" horiz-adv-x="1040" 
d="M637 0h-238l-372 1049h264l233 -691l232 691h258z" />
    <glyph glyph-name="w" unicode="w" horiz-adv-x="1565" 
d="M1257 0h-235l-236 668l-237 -668h-236l-286 1049h268l162 -676l235 676h195l237 -670l156 670h258z" />
    <glyph glyph-name="x" unicode="x" horiz-adv-x="1079" 
d="M743 0l-208 334l-218 -334h-286l362 518l-356 531h301l209 -332l215 332h285l-361 -517l363 -532h-306z" />
    <glyph glyph-name="y" unicode="y" horiz-adv-x="1085" 
d="M35 -141q84 -29 151 -29q58 0 102 35t91 145l27 62l-379 977h268l248 -670l254 670h262l-451 -1121q-55 -135 -107 -200t-121.5 -94t-174.5 -29q-114 0 -225 30z" />
    <glyph glyph-name="z" unicode="z" horiz-adv-x="930" 
d="M57 0v188l490 656h-477v205h786v-187l-491 -657h507v-205h-815z" />
    <glyph glyph-name="braceleft" unicode="{" horiz-adv-x="915" 
d="M784 -395q-221 0 -317 103.5t-96 301.5v142q0 141 -59.5 221t-170.5 80h-39v221h39q111 0 170.5 77.5t59.5 223.5v139q0 197 95 301.5t318 104.5h70v-207h-41q-117 0 -160 -48t-43 -165v-166q0 -137 -64.5 -231.5t-174.5 -141.5q108 -39 173.5 -137t65.5 -234v-165
q0 -117 43 -165t160 -48h41v-207h-70z" />
    <glyph glyph-name="bar" unicode="|" horiz-adv-x="801" 
d="M281 -395v1915h239v-1915h-239z" />
    <glyph glyph-name="braceright" unicode="}" horiz-adv-x="915" 
d="M61 -395v207h41q117 0 160 48t43 165v165q0 136 65.5 234t174.5 137q-111 47 -175.5 141.5t-64.5 231.5v166q0 117 -43 165t-160 48h-41v207h70q223 0 318.5 -104.5t95.5 -301.5v-139q0 -146 59.5 -223.5t169.5 -77.5h39v-221h-39q-110 0 -169.5 -80t-59.5 -221v-142
q0 -198 -96.5 -301.5t-317.5 -103.5h-70z" />
    <glyph glyph-name="asciitilde" unicode="~" horiz-adv-x="1386" 
d="M143 809q56 47 106 73t95 38t117 12q65 0 128.5 -24.5t122 -54.5t114 -54.5t106.5 -24.5q80 0 154.5 38t156.5 110v-222q-67 -53 -141 -92t-166 -39q-72 0 -137.5 24.5t-126 54.5t-114.5 54.5t-101 24.5q-92 0 -170 -45t-144 -102v229z" />
    <glyph glyph-name="uni00A0" unicode="&#xa0;" horiz-adv-x="492" 
 />
    <glyph glyph-name="exclamdown" unicode="&#xa1;" horiz-adv-x="584" 
d="M455 954q0 -82 -36 -117.5t-128 -35.5q-90 0 -126 35.5t-36 117.5q0 78 34 116t128 38q86 0 125 -34t39 -120zM152 -395l34 1059h215l31 -1059h-280z" />
    <glyph glyph-name="cent" unicode="&#xa2;" horiz-adv-x="1059" 
d="M317 -260l60 266q-152 57 -218.5 189.5t-66.5 322.5q0 265 126 413t378 148h18l48 209h180l-54 -237q145 -49 209 -152l-192 -137q-27 35 -66 61l-139 -628h12q60 0 110 17t95 75l195 -137q-60 -89 -158 -135t-248 -46l-55 2l-51 -231h-183zM358 522q0 -196 74 -270
l133 600q-107 -9 -157 -86t-50 -244z" />
    <glyph glyph-name="sterling" unicode="&#xa3;" horiz-adv-x="1280" 
d="M100 0v213q65 13 103 58.5t55.5 110t17.5 183.5h-151v189h137l-11 44q-42 128 -42 228q0 187 135 287t367 100q176 0 296.5 -61.5t184.5 -167.5l-217 -131q-41 65 -111.5 104t-152.5 39q-119 0 -176.5 -54.5t-57.5 -144.5q0 -73 44 -202l11 -41h379v-189h-370
q0 -224 -117 -325h784v-240h-1108z" />
    <glyph glyph-name="currency" unicode="&#xa4;" horiz-adv-x="1280" 
d="M262 156l-123 125l142 135q-72 115 -72 231q0 125 72 232l-142 137l123 125l141 -140q105 72 236 72q57 0 119.5 -17.5t115.5 -54.5l142 140l125 -125l-144 -137q72 -109 72 -232q0 -122 -72 -231l144 -135l-125 -125l-142 139q-103 -72 -235 -72q-131 0 -236 72z
M893 649q0 104 -76.5 177t-175.5 73q-102 0 -179 -72t-77 -178q0 -102 75 -177t179 -75q65 0 124.5 33.5t94.5 93t35 125.5z" />
    <glyph glyph-name="yen" unicode="&#xa5;" horiz-adv-x="1280" 
d="M928 846h211v-178h-314l-45 -80v-31h359v-176h-359v-381h-282v381h-361v176h361v27l-47 84h-314v178h213l-305 538h307l291 -538l295 538h297z" />
    <glyph glyph-name="brokenbar" unicode="&#xa6;" horiz-adv-x="801" 
d="M281 842v678h239v-678h-239zM281 -395v678h239v-678h-239z" />
    <glyph glyph-name="section" unicode="&#xa7;" horiz-adv-x="1110" 
d="M1018 502q0 -191 -211 -307q78 -60 113.5 -117.5t35.5 -120.5q0 -162 -112.5 -243t-308.5 -81q-160 0 -257.5 43t-156.5 117l176 131q75 -84 233 -84q72 0 120 23.5t48 68.5t-74.5 97.5t-222.5 142.5q-153 92 -231 176t-78 197q0 188 211 307q-72 53 -110.5 110.5
t-38.5 129.5q0 149 105.5 235t322.5 86q282 0 407 -160l-176 -131q-84 84 -227 84q-92 0 -133 -27.5t-41 -68.5q0 -31 45 -69.5t252 -166.5q128 -79 186.5 -133t90.5 -112.5t32 -126.5zM774 494q0 24 -15.5 46.5t-48 49t-85 59.5t-127.5 80q-80 -49 -121 -91t-41 -89
q0 -41 67.5 -94.5t208.5 -139.5q68 41 115 89t47 90z" />
    <glyph glyph-name="dieresis" unicode="&#xa8;" 
d="M883 1335q0 -73 -36 -102t-110 -29q-82 0 -111.5 34t-29.5 97q0 70 31.5 100.5t109.5 30.5t112 -29.5t34 -101.5zM438 1335q0 -73 -35.5 -102t-109.5 -29q-82 0 -111.5 34t-29.5 97q0 70 31.5 100.5t109.5 30.5t111.5 -29.5t33.5 -101.5z" />
    <glyph glyph-name="copyright" unicode="&#xa9;" horiz-adv-x="1802" 
d="M901 -197q-219 0 -406 108.5t-293 295t-106 403.5t106 402.5t293.5 293t405.5 107.5q217 0 403 -106.5t293 -292.5t107 -404q0 -217 -105.5 -403t-292.5 -295t-405 -109zM901 -41q173 0 320.5 85.5t235 237t87.5 328.5q0 173 -86 323.5t-235.5 237t-321.5 86.5
q-174 0 -323 -87t-234.5 -237.5t-85.5 -322.5q0 -176 87.5 -328t235 -237.5t320.5 -85.5zM926 170q-422 0 -422 442q0 217 100.5 331t317.5 114q133 0 209.5 -51.5t134.5 -143.5l-176 -100q-33 47 -67 78.5t-103 31.5q-109 0 -155 -59t-46 -201q0 -143 48 -200.5t155 -57.5
q65 0 104 29t76 78l180 -96q-71 -88 -118.5 -123.5t-106 -53.5t-131.5 -18z" />
    <glyph glyph-name="ordfeminine" unicode="&#xaa;" horiz-adv-x="834" 
d="M520 817v57q-95 -75 -196 -75q-117 0 -174.5 59.5t-57.5 155.5q0 105 65 164t222 73l129 13v20q0 49 -27.5 67.5t-93.5 18.5q-65 0 -95 -21.5t-46 -50.5l-148 93q31 53 100.5 91t192.5 38q146 0 224.5 -50.5t78.5 -191.5v-461h-174zM508 1124l-68 -6q-90 -8 -122.5 -31.5
t-32.5 -68.5q0 -39 19.5 -54.5t57.5 -15.5q64 0 146 66v110z" />
    <glyph glyph-name="guillemotleft" unicode="&#xab;" horiz-adv-x="1436" 
d="M1055 53l-420 471l420 471h299l-420 -471l420 -471h-299zM481 53l-420 471l420 471h299l-420 -471l420 -471h-299z" />
    <glyph glyph-name="logicalnot" unicode="&#xac;" horiz-adv-x="1427" 
d="M1087 324v477h-954v205h1161v-682h-207z" />
    <glyph glyph-name="uni00AD" unicode="&#xad;" horiz-adv-x="786" 
d="M82 399v254h623v-254h-623z" />
    <glyph glyph-name="registered" unicode="&#xae;" horiz-adv-x="1802" 
d="M901 -197q-219 0 -406 108.5t-293 295t-106 403.5t106 402.5t293.5 293t405.5 107.5q217 0 403 -106.5t293 -292.5t107 -404q0 -217 -105.5 -403t-292.5 -295t-405 -109zM901 -41q173 0 320.5 85.5t235 237t87.5 328.5q0 173 -86 323.5t-235.5 237t-321.5 86.5
q-174 0 -323 -87t-234.5 -237.5t-85.5 -322.5q0 -176 87.5 -328t235 -237.5t320.5 -85.5zM588 201v850h305q178 0 260 -63t82 -197q0 -185 -145 -246l239 -344h-250l-211 307h-75v-307h-205zM793 682h96q54 0 81 7t39.5 25.5t12.5 65.5t-21.5 70.5t-103.5 23.5h-104v-192z
" />
    <glyph glyph-name="macron" unicode="&#xaf;" 
d="M186 1255v185h672v-185h-672z" />
    <glyph glyph-name="degree" unicode="&#xb0;" horiz-adv-x="868" 
d="M745 1241q0 -83 -40.5 -154.5t-114 -115t-154.5 -43.5q-83 0 -157 42.5t-115 114t-41 156.5q0 130 91.5 219.5t219.5 89.5q129 0 220 -90.5t91 -218.5zM565 1239q0 55 -38 93t-91 38q-59 0 -96 -39t-37 -90q0 -55 38 -94t95 -39q53 0 91 39t38 92z" />
    <glyph glyph-name="plusminus" unicode="&#xb1;" horiz-adv-x="1427" 
d="M817 829v-477h-205v477h-479v205h479v479h205v-479h477v-205h-477zM133 0v205h1161v-205h-1161z" />
    <glyph glyph-name="twosuperior" unicode="&#xb2;" horiz-adv-x="938" 
d="M92 647v182l108 78q228 160 283.5 217t55.5 113q0 78 -97 78q-101 0 -170 -88l-196 121q133 172 377 172q180 0 262 -71t82 -179q0 -60 -16 -107.5t-52.5 -92.5t-130.5 -115t-166 -111h397v-197h-737z" />
    <glyph glyph-name="threesuperior" unicode="&#xb3;" horiz-adv-x="938" 
d="M805 901q0 -137 -102.5 -203.5t-282.5 -66.5q-127 0 -221.5 49t-139.5 121l199 102q64 -88 164 -88q72 0 98.5 32t26.5 66q0 91 -141 91h-115v176h102q92 0 124 22.5t32 63.5q0 28 -27.5 48.5t-85.5 20.5q-103 0 -168 -78l-182 107q61 74 143 115t224 41q172 0 255 -67
t83 -159q0 -71 -38 -116t-124 -74q92 -23 134 -77t42 -126z" />
    <glyph glyph-name="acute" unicode="&#xb4;" 
d="M553 1208h-205l189 361h315z" />
    <glyph glyph-name="mu" unicode="&#xb5;" horiz-adv-x="1202" 
d="M1069 0h-238l-4 111q-49 -70 -104 -106t-133 -36q-62 0 -109 17.5t-92 52.5v-434h-258v1444h258v-750q29 -39 83 -69.5t114 -30.5q131 0 227 120v730h256v-1049z" />
    <glyph glyph-name="paragraph" unicode="&#xb6;" horiz-adv-x="1321" 
d="M1092 1282v-1677h-234v1677h-162v-1677h-233v1001q-204 22 -313 138t-109 303q0 206 134 324t378 118h727v-207h-188z" />
    <glyph glyph-name="periodcentered" unicode="&#xb7;" horiz-adv-x="584" 
d="M455 743q0 -86 -39 -122.5t-125 -36.5q-94 0 -128 41t-34 118q0 82 36 121t126 39q92 0 128 -38t36 -122z" />
    <glyph glyph-name="cedilla" unicode="&#xb8;" 
d="M750 -205q0 -190 -287 -190q-174 0 -264 45l69 145q106 -45 193 -45q53 0 74.5 11.5t21.5 35.5q0 63 -180 72l88 170h170l-31 -62q62 -14 104 -61t42 -121z" />
    <glyph glyph-name="onesuperior" unicode="&#xb9;" horiz-adv-x="938" 
d="M399 647v553h-229v152q97 3 150 17t82 43t49 91h200v-856h-252z" />
    <glyph glyph-name="ordmasculine" unicode="&#xba;" horiz-adv-x="842" 
d="M750 1157q0 -170 -80 -264t-248 -94q-172 0 -251 95t-79 263q0 172 80 267.5t250 95.5q168 0 248 -95.5t80 -267.5zM557 1157q0 119 -39 160t-96 41q-60 0 -98.5 -41t-38.5 -160q0 -100 31.5 -148t105.5 -48q72 0 103.5 47.5t31.5 148.5z" />
    <glyph glyph-name="guillemotright" unicode="&#xbb;" horiz-adv-x="1436" 
d="M954 53h-299l420 471l-420 471h299l420 -471zM381 53h-299l420 471l-420 471h299l420 -471z" />
    <glyph glyph-name="onequarter" unicode="&#xbc;" horiz-adv-x="2095" 
d="M704 -51h-235l747 1489h238zM274 532v553h-229v152q97 3 150 17t82 43t49 91h200v-856h-252zM1874 160v-160h-232v160h-487v166l492 530h227v-524h115v-172h-115zM1642 608l-256 -276h256v276z" />
    <glyph glyph-name="onehalf" unicode="&#xbd;" horiz-adv-x="2095" 
d="M641 -51h-235l747 1489h238zM272 532v553h-229v152q97 3 150 17t82 43t49 91h200v-856h-252zM1229 0v182l108 78q228 160 283.5 217t55.5 113q0 78 -97 78q-101 0 -170 -88l-196 121q133 172 377 172q180 0 262 -71t82 -179q0 -60 -16 -107.5t-52.5 -92.5t-130.5 -115
t-166 -111h397v-197h-737z" />
    <glyph glyph-name="threequarters" unicode="&#xbe;" horiz-adv-x="2095" 
d="M827 -51h-235l747 1489h238zM1921 160v-160h-232v160h-487v166l492 530h227v-524h115v-172h-115zM1689 608l-256 -276h256v276zM805 786q0 -137 -102.5 -203.5t-282.5 -66.5q-127 0 -221.5 49t-139.5 121l199 102q64 -88 164 -88q72 0 98.5 32t26.5 66q0 91 -141 91h-115
v176h102q92 0 124 22.5t32 63.5q0 28 -27.5 48.5t-85.5 20.5q-103 0 -168 -78l-182 107q61 74 143 115t224 41q172 0 255 -67t83 -159q0 -71 -38 -116t-124 -74q92 -23 134 -77t42 -126z" />
    <glyph glyph-name="questiondown" unicode="&#xbf;" horiz-adv-x="1071" 
d="M762 954q0 -82 -36 -117.5t-126 -35.5q-92 0 -128 35.5t-36 117.5q0 86 39 120t125 34q94 0 128 -38t34 -116zM1036 -145q-69 -123 -184 -186.5t-291 -63.5q-237 0 -363 103.5t-126 291.5q0 105 39 185t112.5 145.5t243.5 154.5v179h272v-302q-55 -28 -120.5 -61
t-122 -75t-95.5 -94t-39 -120q0 -78 44.5 -122t152.5 -44q90 0 144.5 37t99.5 111z" />
    <glyph glyph-name="Agrave" unicode="&#xc0;" horiz-adv-x="1337" 
d="M27 0l458 1384h367l459 -1384h-289l-92 281h-533l-90 -281h-280zM477 528h373l-186 572zM672 1544l-299 361h315l188 -361h-204z" />
    <glyph glyph-name="Aacute" unicode="&#xc1;" horiz-adv-x="1337" 
d="M27 0l458 1384h367l459 -1384h-289l-92 281h-533l-90 -281h-280zM477 528h373l-186 572zM696 1544h-205l189 361h315z" />
    <glyph glyph-name="Acircumflex" unicode="&#xc2;" horiz-adv-x="1337" 
d="M27 0l458 1384h367l459 -1384h-289l-92 281h-533l-90 -281h-280zM477 528h373l-186 572zM809 1544l-146 174l-149 -174h-209l235 361h244l236 -361h-211z" />
    <glyph glyph-name="Atilde" unicode="&#xc3;" horiz-adv-x="1337" 
d="M27 0l458 1384h367l459 -1384h-289l-92 281h-533l-90 -281h-280zM477 528h373l-186 572zM254 1567q5 155 73 236t189 81q61 0 104 -22.5t77 -48t62.5 -48t61.5 -22.5q35 0 51.5 35t16.5 92h182q-10 -165 -75.5 -243.5t-188.5 -78.5q-66 0 -109 22.5t-75.5 50.5
t-59.5 50.5t-60 22.5q-67 0 -67 -127h-182z" />
    <glyph glyph-name="Adieresis" unicode="&#xc4;" horiz-adv-x="1337" 
d="M27 0l458 1384h367l459 -1384h-289l-92 281h-533l-90 -281h-280zM477 528h373l-186 572zM1024 1671q0 -73 -36 -102t-110 -29q-82 0 -111.5 34t-29.5 97q0 70 31.5 100.5t109.5 30.5t112 -29.5t34 -101.5zM579 1671q0 -73 -35.5 -102t-109.5 -29q-82 0 -111.5 34
t-29.5 97q0 70 31.5 100.5t109.5 30.5t111.5 -29.5t33.5 -101.5z" />
    <glyph glyph-name="Aring" unicode="&#xc5;" horiz-adv-x="1337" 
d="M27 0l458 1384h367l459 -1384h-289l-92 281h-533l-90 -281h-280zM477 528h373l-186 572zM895 1716q0 -110 -59.5 -167.5t-172.5 -57.5q-117 0 -173 60.5t-56 164.5q0 107 57.5 166.5t171.5 59.5q119 0 175.5 -60.5t56.5 -165.5zM751 1716q0 90 -88 90q-86 0 -86 -90
t86 -90q88 0 88 90z" />
    <glyph glyph-name="AE" unicode="&#xc6;" horiz-adv-x="1810" 
d="M860 0v360h-409l-144 -360h-287l555 1384h1135v-249h-567v-301h469v-250h-469v-326h567v-258h-850zM860 1135h-104l-209 -527h313v527z" />
    <glyph glyph-name="Ccedilla" unicode="&#xc7;" horiz-adv-x="1333" 
d="M993 -205q0 -190 -286 -190q-172 0 -265 45l70 145q106 -45 193 -45q53 0 74.5 11.5t21.5 35.5q0 63 -180 72l53 104q-578 37 -578 719q0 369 163 545t470 176q203 0 331 -68.5t195 -179.5l-219 -170q-48 72 -88 104t-91 48t-122 16q-170 0 -259 -108.5t-89 -362.5
q0 -237 83.5 -354t266.5 -117q123 0 191.5 47t124.5 125l223 -164q-66 -96 -165 -164.5t-263 -87.5q61 -14 103 -61t42 -121z" />
    <glyph glyph-name="Egrave" unicode="&#xc8;" horiz-adv-x="1149" 
d="M150 0v1384h899v-249h-617v-295h520v-250h-520v-332h617v-258h-899zM566 1544l-299 361h315l188 -361h-204z" />
    <glyph glyph-name="Eacute" unicode="&#xc9;" horiz-adv-x="1149" 
d="M150 0v1384h899v-249h-617v-295h520v-250h-520v-332h617v-258h-899zM631 1544h-205l189 361h315z" />
    <glyph glyph-name="Ecircumflex" unicode="&#xca;" horiz-adv-x="1149" 
d="M150 0v1384h899v-249h-617v-295h520v-250h-520v-332h617v-258h-899zM740 1544l-146 174l-149 -174h-209l235 361h244l236 -361h-211z" />
    <glyph glyph-name="Edieresis" unicode="&#xcb;" horiz-adv-x="1149" 
d="M150 0v1384h899v-249h-617v-295h520v-250h-520v-332h617v-258h-899zM959 1671q0 -73 -36 -102t-110 -29q-82 0 -111.5 34t-29.5 97q0 70 31.5 100.5t109.5 30.5t112 -29.5t34 -101.5zM514 1671q0 -73 -35.5 -102t-109.5 -29q-82 0 -111.5 34t-29.5 97q0 70 31.5 100.5
t109.5 30.5t111.5 -29.5t33.5 -101.5z" />
    <glyph glyph-name="Igrave" unicode="&#xcc;" horiz-adv-x="872" 
d="M770 0h-668v217h193v950h-193v217h668v-217h-192v-950h192v-217zM379 1544l-299 361h315l188 -361h-204z" />
    <glyph glyph-name="Iacute" unicode="&#xcd;" horiz-adv-x="872" 
d="M770 0h-668v217h193v950h-193v217h668v-217h-192v-950h192v-217zM475 1544h-205l189 361h315z" />
    <glyph glyph-name="Icircumflex" unicode="&#xce;" horiz-adv-x="872" 
d="M770 0h-668v217h193v950h-193v217h668v-217h-192v-950h192v-217zM582 1544l-146 174l-149 -174h-209l235 361h244l236 -361h-211z" />
    <glyph glyph-name="Idieresis" unicode="&#xcf;" horiz-adv-x="872" 
d="M770 0h-668v217h193v950h-193v217h668v-217h-192v-950h192v-217zM803 1671q0 -73 -36 -102t-110 -29q-82 0 -111.5 34t-29.5 97q0 70 31.5 100.5t109.5 30.5t112 -29.5t34 -101.5zM358 1671q0 -73 -35.5 -102t-109.5 -29q-82 0 -111.5 34t-29.5 97q0 70 31.5 100.5
t109.5 30.5t111.5 -29.5t33.5 -101.5z" />
    <glyph glyph-name="Eth" unicode="&#xd0;" horiz-adv-x="1399" 
d="M1303 692q0 -250 -74.5 -402t-224.5 -221t-418 -69h-436v580h-148v225h148v579h434q263 0 416.5 -70.5t228 -222.5t74.5 -399zM1012 694q0 176 -39 264.5t-132 128t-282 39.5h-127v-321h322v-225h-322v-322h127q184 0 278 40t134.5 130t40.5 266z" />
    <glyph glyph-name="Ntilde" unicode="&#xd1;" horiz-adv-x="1411" 
d="M930 0l-504 989v-989h-276v1384h366l469 -933v933h277v-1384h-332zM285 1526q5 155 73 236t189 81q61 0 104 -22.5t77 -48t62.5 -48t61.5 -22.5q35 0 51.5 35t16.5 92h182q-10 -165 -75.5 -243.5t-188.5 -78.5q-66 0 -109 22.5t-75.5 50.5t-59.5 50.5t-60 22.5
q-67 0 -67 -127h-182z" />
    <glyph glyph-name="Ograve" unicode="&#xd2;" horiz-adv-x="1364" 
d="M1278 692q0 -361 -152.5 -541t-443.5 -180q-307 0 -451.5 189.5t-144.5 531.5q0 344 144.5 532.5t451.5 188.5q309 0 452.5 -188.5t143.5 -532.5zM987 692q0 246 -69.5 358.5t-235.5 112.5t-235.5 -112.5t-69.5 -358.5t70.5 -358.5t234.5 -112.5q166 0 235.5 112.5
t69.5 358.5zM670 1544l-299 361h315l188 -361h-204z" />
    <glyph glyph-name="Oacute" unicode="&#xd3;" horiz-adv-x="1364" 
d="M1278 692q0 -361 -152.5 -541t-443.5 -180q-307 0 -451.5 189.5t-144.5 531.5q0 344 144.5 532.5t451.5 188.5q309 0 452.5 -188.5t143.5 -532.5zM987 692q0 246 -69.5 358.5t-235.5 112.5t-235.5 -112.5t-69.5 -358.5t70.5 -358.5t234.5 -112.5q166 0 235.5 112.5
t69.5 358.5zM735 1544h-205l189 361h315z" />
    <glyph glyph-name="Ocircumflex" unicode="&#xd4;" horiz-adv-x="1364" 
d="M1278 692q0 -361 -152.5 -541t-443.5 -180q-307 0 -451.5 189.5t-144.5 531.5q0 344 144.5 532.5t451.5 188.5q309 0 452.5 -188.5t143.5 -532.5zM987 692q0 246 -69.5 358.5t-235.5 112.5t-235.5 -112.5t-69.5 -358.5t70.5 -358.5t234.5 -112.5q166 0 235.5 112.5
t69.5 358.5zM838 1544l-146 174l-149 -174h-209l235 361h244l236 -361h-211z" />
    <glyph glyph-name="Otilde" unicode="&#xd5;" horiz-adv-x="1364" 
d="M1278 692q0 -361 -152.5 -541t-443.5 -180q-307 0 -451.5 189.5t-144.5 531.5q0 344 144.5 532.5t451.5 188.5q309 0 452.5 -188.5t143.5 -532.5zM987 692q0 246 -69.5 358.5t-235.5 112.5t-235.5 -112.5t-69.5 -358.5t70.5 -358.5t234.5 -112.5q166 0 235.5 112.5
t69.5 358.5zM283 1567q5 155 73 236t189 81q61 0 104 -22.5t77 -48t62.5 -48t61.5 -22.5q35 0 51.5 35t16.5 92h182q-10 -165 -75.5 -243.5t-188.5 -78.5q-66 0 -109 22.5t-75.5 50.5t-59.5 50.5t-60 22.5q-67 0 -67 -127h-182z" />
    <glyph glyph-name="Odieresis" unicode="&#xd6;" horiz-adv-x="1364" 
d="M1278 692q0 -361 -152.5 -541t-443.5 -180q-307 0 -451.5 189.5t-144.5 531.5q0 344 144.5 532.5t451.5 188.5q309 0 452.5 -188.5t143.5 -532.5zM987 692q0 246 -69.5 358.5t-235.5 112.5t-235.5 -112.5t-69.5 -358.5t70.5 -358.5t234.5 -112.5q166 0 235.5 112.5
t69.5 358.5zM1063 1671q0 -73 -36 -102t-110 -29q-82 0 -111.5 34t-29.5 97q0 70 31.5 100.5t109.5 30.5t112 -29.5t34 -101.5zM618 1671q0 -73 -35.5 -102t-109.5 -29q-82 0 -111.5 34t-29.5 97q0 70 31.5 100.5t109.5 30.5t111.5 -29.5t33.5 -101.5z" />
    <glyph glyph-name="multiply" unicode="&#xd7;" horiz-adv-x="1427" 
d="M1151 0l-438 438l-439 -438l-145 145l438 437l-438 436l145 145l439 -436l438 436l145 -145l-438 -436l438 -437z" />
    <glyph glyph-name="Oslash" unicode="&#xd8;" horiz-adv-x="1364" 
d="M27 -115l194 285q-135 180 -135 522q0 344 144.5 532.5t451.5 188.5q201 0 334 -84l108 160h199l-184 -270q139 -182 139 -527q0 -361 -152.5 -541t-443.5 -180q-207 0 -338 86l-117 -172h-200zM987 692q0 158 -29 262l-462 -678q67 -55 186 -55q166 0 235.5 112.5
t69.5 358.5zM377 692q0 -157 26 -256l461 674q-69 53 -182 53q-166 0 -235.5 -112.5t-69.5 -358.5z" />
    <glyph glyph-name="Ugrave" unicode="&#xd9;" horiz-adv-x="1438" 
d="M1288 578q0 -325 -132 -467t-437 -142q-302 0 -435.5 140.5t-133.5 468.5v806h282v-786q0 -141 27 -222t86 -119t172 -38q161 0 225 85.5t64 289.5v790h282v-806zM691 1544l-299 361h315l188 -361h-204z" />
    <glyph glyph-name="Uacute" unicode="&#xda;" horiz-adv-x="1438" 
d="M1288 578q0 -325 -132 -467t-437 -142q-302 0 -435.5 140.5t-133.5 468.5v806h282v-786q0 -141 27 -222t86 -119t172 -38q161 0 225 85.5t64 289.5v790h282v-806zM756 1544h-205l189 361h315z" />
    <glyph glyph-name="Ucircumflex" unicode="&#xdb;" horiz-adv-x="1438" 
d="M1288 578q0 -325 -132 -467t-437 -142q-302 0 -435.5 140.5t-133.5 468.5v806h282v-786q0 -141 27 -222t86 -119t172 -38q161 0 225 85.5t64 289.5v790h282v-806zM869 1544l-146 174l-149 -174h-209l235 361h244l236 -361h-211z" />
    <glyph glyph-name="Udieresis" unicode="&#xdc;" horiz-adv-x="1438" 
d="M1288 578q0 -325 -132 -467t-437 -142q-302 0 -435.5 140.5t-133.5 468.5v806h282v-786q0 -141 27 -222t86 -119t172 -38q161 0 225 85.5t64 289.5v790h282v-806zM1084 1671q0 -73 -36 -102t-110 -29q-82 0 -111.5 34t-29.5 97q0 70 31.5 100.5t109.5 30.5t112 -29.5
t34 -101.5zM639 1671q0 -73 -35.5 -102t-109.5 -29q-82 0 -111.5 34t-29.5 97q0 70 31.5 100.5t109.5 30.5t111.5 -29.5t33.5 -101.5z" />
    <glyph glyph-name="Yacute" unicode="&#xdd;" horiz-adv-x="1188" 
d="M735 528v-528h-284v522l-433 862h308l270 -579l276 579h297zM629 1544h-205l189 361h315z" />
    <glyph glyph-name="Thorn" unicode="&#xde;" horiz-adv-x="1239" 
d="M1161 719q0 -250 -117.5 -371t-381.5 -121h-230v-227h-282v1384h282v-200h238q235 0 363 -109.5t128 -355.5zM870 717q0 81 -30 129.5t-91 70t-176 21.5h-141v-465h115q155 0 214 21.5t84 71.5t25 151z" />
    <glyph glyph-name="germandbls" unicode="&#xdf;" horiz-adv-x="1217" 
d="M145 0v1020q0 252 117.5 376t355.5 124q203 0 313.5 -91t110.5 -255q0 -123 -53 -196t-129 -106q122 -27 193 -136.5t71 -262.5q0 -250 -93 -377t-312 -127q-47 0 -103.5 10.5t-89.5 20.5v227q86 -30 154 -30q88 0 131 63.5t43 220.5q0 108 -28.5 160.5t-92.5 74
t-190 21.5v224q93 0 143 18.5t72 57t22 118.5q0 70 -43 106.5t-123 36.5q-104 0 -157.5 -59t-53.5 -211v-1028h-258z" />
    <glyph glyph-name="agrave" unicode="&#xe0;" horiz-adv-x="1139" 
d="M764 0v109q-153 -140 -328 -140q-174 0 -263 91.5t-89 234.5q0 112 45.5 185t135 114.5t257.5 58.5l221 21v47q0 88 -53 120.5t-155 32.5q-84 0 -144.5 -28t-89.5 -80l-201 129q53 89 166 136.5t273 47.5q245 0 353.5 -85.5t108.5 -280.5v-713h-237zM743 487l-131 -12
q-139 -12 -200.5 -53t-61.5 -123q0 -72 40 -98.5t106 -26.5q47 0 114.5 29.5t132.5 83.5v200zM506 1208l-299 361h315l188 -361h-204z" />
    <glyph glyph-name="aacute" unicode="&#xe1;" horiz-adv-x="1139" 
d="M764 0v109q-153 -140 -328 -140q-174 0 -263 91.5t-89 234.5q0 112 45.5 185t135 114.5t257.5 58.5l221 21v47q0 88 -53 120.5t-155 32.5q-84 0 -144.5 -28t-89.5 -80l-201 129q53 89 166 136.5t273 47.5q245 0 353.5 -85.5t108.5 -280.5v-713h-237zM743 487l-131 -12
q-139 -12 -200.5 -53t-61.5 -123q0 -72 40 -98.5t106 -26.5q47 0 114.5 29.5t132.5 83.5v200zM571 1208h-205l189 361h315z" />
    <glyph glyph-name="acircumflex" unicode="&#xe2;" horiz-adv-x="1139" 
d="M764 0v109q-153 -140 -328 -140q-174 0 -263 91.5t-89 234.5q0 112 45.5 185t135 114.5t257.5 58.5l221 21v47q0 88 -53 120.5t-155 32.5q-84 0 -144.5 -28t-89.5 -80l-201 129q53 89 166 136.5t273 47.5q245 0 353.5 -85.5t108.5 -280.5v-713h-237zM743 487l-131 -12
q-139 -12 -200.5 -53t-61.5 -123q0 -72 40 -98.5t106 -26.5q47 0 114.5 29.5t132.5 83.5v200zM699 1208l-146 174l-149 -174h-209l235 361h244l236 -361h-211z" />
    <glyph glyph-name="atilde" unicode="&#xe3;" horiz-adv-x="1139" 
d="M764 0v109q-153 -140 -328 -140q-174 0 -263 91.5t-89 234.5q0 112 45.5 185t135 114.5t257.5 58.5l221 21v47q0 88 -53 120.5t-155 32.5q-84 0 -144.5 -28t-89.5 -80l-201 129q53 89 166 136.5t273 47.5q245 0 353.5 -85.5t108.5 -280.5v-713h-237zM743 487l-131 -12
q-139 -12 -200.5 -53t-61.5 -123q0 -72 40 -98.5t106 -26.5q47 0 114.5 29.5t132.5 83.5v200zM150 1231q5 155 73 236t189 81q61 0 104 -22.5t77 -48t62.5 -48t61.5 -22.5q35 0 51.5 35t16.5 92h182q-10 -165 -75.5 -243.5t-188.5 -78.5q-66 0 -109 22.5t-75.5 50.5
t-59.5 50.5t-60 22.5q-67 0 -67 -127h-182z" />
    <glyph glyph-name="adieresis" unicode="&#xe4;" horiz-adv-x="1139" 
d="M764 0v109q-153 -140 -328 -140q-174 0 -263 91.5t-89 234.5q0 112 45.5 185t135 114.5t257.5 58.5l221 21v47q0 88 -53 120.5t-155 32.5q-84 0 -144.5 -28t-89.5 -80l-201 129q53 89 166 136.5t273 47.5q245 0 353.5 -85.5t108.5 -280.5v-713h-237zM743 487l-131 -12
q-139 -12 -200.5 -53t-61.5 -123q0 -72 40 -98.5t106 -26.5q47 0 114.5 29.5t132.5 83.5v200zM899 1335q0 -73 -36 -102t-110 -29q-82 0 -111.5 34t-29.5 97q0 70 31.5 100.5t109.5 30.5t112 -29.5t34 -101.5zM454 1335q0 -73 -35.5 -102t-109.5 -29q-82 0 -111.5 34
t-29.5 97q0 70 31.5 100.5t109.5 30.5t111.5 -29.5t33.5 -101.5z" />
    <glyph glyph-name="aring" unicode="&#xe5;" horiz-adv-x="1139" 
d="M764 0v109q-153 -140 -328 -140q-174 0 -263 91.5t-89 234.5q0 112 45.5 185t135 114.5t257.5 58.5l221 21v47q0 88 -53 120.5t-155 32.5q-84 0 -144.5 -28t-89.5 -80l-201 129q53 89 166 136.5t273 47.5q245 0 353.5 -85.5t108.5 -280.5v-713h-237zM743 487l-131 -12
q-139 -12 -200.5 -53t-61.5 -123q0 -72 40 -98.5t106 -26.5q47 0 114.5 29.5t132.5 83.5v200zM770 1378q0 -110 -59.5 -167.5t-172.5 -57.5q-117 0 -173 60.5t-56 164.5q0 107 57.5 166.5t171.5 59.5q119 0 175.5 -60.5t56.5 -165.5zM626 1378q0 90 -88 90q-86 0 -86 -90
t86 -90q88 0 88 90z" />
    <glyph glyph-name="ae" unicode="&#xe6;" horiz-adv-x="1786" 
d="M432 -31q-170 0 -259 91.5t-89 242.5q0 157 105.5 244t332.5 106l221 21v47q0 86 -52 119.5t-148 33.5q-109 0 -162 -32.5t-80 -75.5l-201 129q53 89 164.5 136.5t276.5 47.5q254 0 356 -123q121 123 350 123q220 0 335.5 -127.5t115.5 -367.5v-127h-697q7 -140 67 -201
t196 -61q73 0 130.5 19t100.5 73l193 -137q-64 -91 -162.5 -136t-257.5 -45q-299 0 -428 168q-97 -82 -196 -125t-212 -43zM489 174q64 0 140 25.5t141 76.5q-13 40 -20 113t-7 98l-131 -12q-139 -12 -200.5 -53t-61.5 -123q0 -125 139 -125zM1442 635q0 239 -211 239
q-113 0 -160 -64.5t-63 -174.5h434z" />
    <glyph glyph-name="ccedilla" unicode="&#xe7;" horiz-adv-x="1059" 
d="M825 -205q0 -190 -286 -190q-172 0 -265 45l70 145q106 -45 193 -45q53 0 74.5 11.5t21.5 35.5q0 63 -180 72l55 106q-416 56 -416 543q0 265 126 413t378 148q135 0 240.5 -44t160.5 -136l-192 -137q-35 47 -82 69.5t-121 22.5q-132 0 -188 -81t-56 -251t57.5 -248.5
t196.5 -78.5q60 0 110 17t95 75l195 -137q-105 -153 -318 -177q56 -16 93.5 -62t37.5 -116z" />
    <glyph glyph-name="egrave" unicode="&#xe8;" horiz-adv-x="1143" 
d="M358 457q7 -140 68 -201t192 -61q76 0 133.5 19t100.5 73l192 -137q-63 -91 -163.5 -136t-274.5 -45q-259 0 -386.5 136t-127.5 411q0 563 504 563q224 0 341.5 -126.5t117.5 -368.5v-127h-697zM799 635q0 239 -209 239q-69 0 -113 -23.5t-70.5 -70t-41.5 -145.5h434z
M547 1208l-299 361h315l188 -361h-204z" />
    <glyph glyph-name="eacute" unicode="&#xe9;" horiz-adv-x="1143" 
d="M358 457q7 -140 68 -201t192 -61q76 0 133.5 19t100.5 73l192 -137q-63 -91 -163.5 -136t-274.5 -45q-259 0 -386.5 136t-127.5 411q0 563 504 563q224 0 341.5 -126.5t117.5 -368.5v-127h-697zM799 635q0 239 -209 239q-69 0 -113 -23.5t-70.5 -70t-41.5 -145.5h434z
M612 1208h-205l189 361h315z" />
    <glyph glyph-name="ecircumflex" unicode="&#xea;" horiz-adv-x="1143" 
d="M358 457q7 -140 68 -201t192 -61q76 0 133.5 19t100.5 73l192 -137q-63 -91 -163.5 -136t-274.5 -45q-259 0 -386.5 136t-127.5 411q0 563 504 563q224 0 341.5 -126.5t117.5 -368.5v-127h-697zM799 635q0 239 -209 239q-69 0 -113 -23.5t-70.5 -70t-41.5 -145.5h434z
M736 1208l-146 174l-149 -174h-209l235 361h244l236 -361h-211z" />
    <glyph glyph-name="edieresis" unicode="&#xeb;" horiz-adv-x="1143" 
d="M358 457q7 -140 68 -201t192 -61q76 0 133.5 19t100.5 73l192 -137q-63 -91 -163.5 -136t-274.5 -45q-259 0 -386.5 136t-127.5 411q0 563 504 563q224 0 341.5 -126.5t117.5 -368.5v-127h-697zM799 635q0 239 -209 239q-69 0 -113 -23.5t-70.5 -70t-41.5 -145.5h434z
M951 1335q0 -73 -36 -102t-110 -29q-82 0 -111.5 34t-29.5 97q0 70 31.5 100.5t109.5 30.5t112 -29.5t34 -101.5zM506 1335q0 -73 -35.5 -102t-109.5 -29q-82 0 -111.5 34t-29.5 97q0 70 31.5 100.5t109.5 30.5t111.5 -29.5t33.5 -101.5z" />
    <glyph glyph-name="igrave" unicode="&#xec;" horiz-adv-x="549" 
d="M145 0v1049h258v-1049h-258zM246 1208l-299 361h315l188 -361h-204z" />
    <glyph glyph-name="iacute" unicode="&#xed;" horiz-adv-x="549" 
d="M145 0v1049h258v-1049h-258zM332 1208h-205l189 361h315z" />
    <glyph glyph-name="icircumflex" unicode="&#xee;" horiz-adv-x="549" 
d="M145 0v1049h258v-1049h-258zM424 1208l-146 174l-149 -174h-209l235 361h244l236 -361h-211z" />
    <glyph glyph-name="idieresis" unicode="&#xef;" horiz-adv-x="549" 
d="M145 0v1049h258v-1049h-258zM639 1335q0 -73 -36 -102t-110 -29q-82 0 -111.5 34t-29.5 97q0 70 31.5 100.5t109.5 30.5t112 -29.5t34 -101.5zM194 1335q0 -73 -35.5 -102t-109.5 -29q-82 0 -111.5 34t-29.5 97q0 70 31.5 100.5t109.5 30.5t111.5 -29.5t33.5 -101.5z" />
    <glyph glyph-name="eth" unicode="&#xf0;" horiz-adv-x="1190" 
d="M1098 522q0 -267 -126.5 -410t-375.5 -143q-247 0 -375.5 138t-128.5 413q0 156 55 278t158 186.5t238 64.5q41 0 94 -18.5t94 -49.5q-15 39 -65.5 122t-90.5 130l-225 -94l-67 149l180 76q-34 48 -184 156h274q49 -29 98 -78l187 78l69 -148l-131 -55q142 -147 232 -360
t90 -435zM831 522q0 303 -237 303q-116 0 -176 -77.5t-60 -227.5q0 -158 54.5 -241.5t183.5 -83.5t182 83.5t53 243.5z" />
    <glyph glyph-name="ntilde" unicode="&#xf1;" horiz-adv-x="1217" 
d="M821 0v578q0 164 -29.5 219t-111.5 55q-115 0 -277 -152v-700h-258v1049h258v-136q82 82 175 124t182 42q161 0 240 -88t79 -291v-700h-258zM197 1231q5 155 73 236t189 81q61 0 104 -22.5t77 -48t62.5 -48t61.5 -22.5q35 0 51.5 35t16.5 92h182q-10 -165 -75.5 -243.5
t-188.5 -78.5q-66 0 -109 22.5t-75.5 50.5t-59.5 50.5t-60 22.5q-67 0 -67 -127h-182z" />
    <glyph glyph-name="ograve" unicode="&#xf2;" horiz-adv-x="1190" 
d="M1098 522q0 -262 -121 -407.5t-381 -145.5q-504 0 -504 553q0 266 121 411.5t383 145.5q260 0 381 -145.5t121 -411.5zM831 522q0 173 -54 252.5t-181 79.5q-126 0 -182 -81.5t-56 -250.5q0 -168 55.5 -247.5t182.5 -79.5q125 0 180 78.5t55 248.5zM568 1208l-299 361
h315l188 -361h-204z" />
    <glyph glyph-name="oacute" unicode="&#xf3;" horiz-adv-x="1190" 
d="M1098 522q0 -262 -121 -407.5t-381 -145.5q-504 0 -504 553q0 266 121 411.5t383 145.5q260 0 381 -145.5t121 -411.5zM831 522q0 173 -54 252.5t-181 79.5q-126 0 -182 -81.5t-56 -250.5q0 -168 55.5 -247.5t182.5 -79.5q125 0 180 78.5t55 248.5zM633 1208h-205
l189 361h315z" />
    <glyph glyph-name="ocircumflex" unicode="&#xf4;" horiz-adv-x="1190" 
d="M1098 522q0 -262 -121 -407.5t-381 -145.5q-504 0 -504 553q0 266 121 411.5t383 145.5q260 0 381 -145.5t121 -411.5zM831 522q0 173 -54 252.5t-181 79.5q-126 0 -182 -81.5t-56 -250.5q0 -168 55.5 -247.5t182.5 -79.5q125 0 180 78.5t55 248.5zM746 1208l-146 174
l-149 -174h-209l235 361h244l236 -361h-211z" />
    <glyph glyph-name="otilde" unicode="&#xf5;" horiz-adv-x="1190" 
d="M1098 522q0 -262 -121 -407.5t-381 -145.5q-504 0 -504 553q0 266 121 411.5t383 145.5q260 0 381 -145.5t121 -411.5zM831 522q0 173 -54 252.5t-181 79.5q-126 0 -182 -81.5t-56 -250.5q0 -168 55.5 -247.5t182.5 -79.5q125 0 180 78.5t55 248.5zM191 1231
q5 155 73 236t189 81q61 0 104 -22.5t77 -48t62.5 -48t61.5 -22.5q35 0 51.5 35t16.5 92h182q-10 -165 -75.5 -243.5t-188.5 -78.5q-66 0 -109 22.5t-75.5 50.5t-59.5 50.5t-60 22.5q-67 0 -67 -127h-182z" />
    <glyph glyph-name="odieresis" unicode="&#xf6;" horiz-adv-x="1190" 
d="M1098 522q0 -262 -121 -407.5t-381 -145.5q-504 0 -504 553q0 266 121 411.5t383 145.5q260 0 381 -145.5t121 -411.5zM831 522q0 173 -54 252.5t-181 79.5q-126 0 -182 -81.5t-56 -250.5q0 -168 55.5 -247.5t182.5 -79.5q125 0 180 78.5t55 248.5zM961 1335
q0 -73 -36 -102t-110 -29q-82 0 -111.5 34t-29.5 97q0 70 31.5 100.5t109.5 30.5t112 -29.5t34 -101.5zM516 1335q0 -73 -35.5 -102t-109.5 -29q-82 0 -111.5 34t-29.5 97q0 70 31.5 100.5t109.5 30.5t111.5 -29.5t33.5 -101.5z" />
    <glyph glyph-name="divide" unicode="&#xf7;" horiz-adv-x="1427" 
d="M592 911v252h246v-252h-246zM133 479v205h1161v-205h-1161zM592 2v252h246v-252h-246z" />
    <glyph glyph-name="oslash" unicode="&#xf8;" horiz-adv-x="1190" 
d="M106 -76l117 176q-131 141 -131 422q0 266 121 411.5t383 145.5q141 0 246 -47l61 92h182l-118 -180q131 -145 131 -422q0 -262 -121 -407.5t-381 -145.5q-144 0 -248 45l-59 -90h-183zM358 522q0 -103 23 -184l328 493q-45 23 -113 23q-126 0 -182 -81.5t-56 -250.5z
M831 522q0 108 -22 185l-326 -492q47 -20 113 -20q125 0 180 78.5t55 248.5z" />
    <glyph glyph-name="ugrave" unicode="&#xf9;" horiz-adv-x="1217" 
d="M813 0v135q-68 -73 -166.5 -119.5t-189.5 -46.5q-178 0 -249 98.5t-71 280.5v701h258v-578q0 -111 13 -170t42.5 -81.5t86.5 -22.5q115 0 276 151v701h258v-1049h-258zM580 1208l-299 361h315l188 -361h-204z" />
    <glyph glyph-name="uacute" unicode="&#xfa;" horiz-adv-x="1217" 
d="M813 0v135q-68 -73 -166.5 -119.5t-189.5 -46.5q-178 0 -249 98.5t-71 280.5v701h258v-578q0 -111 13 -170t42.5 -81.5t86.5 -22.5q115 0 276 151v701h258v-1049h-258zM645 1208h-205l189 361h315z" />
    <glyph glyph-name="ucircumflex" unicode="&#xfb;" horiz-adv-x="1217" 
d="M813 0v135q-68 -73 -166.5 -119.5t-189.5 -46.5q-178 0 -249 98.5t-71 280.5v701h258v-578q0 -111 13 -170t42.5 -81.5t86.5 -22.5q115 0 276 151v701h258v-1049h-258zM748 1208l-146 174l-149 -174h-209l235 361h244l236 -361h-211z" />
    <glyph glyph-name="udieresis" unicode="&#xfc;" horiz-adv-x="1217" 
d="M813 0v135q-68 -73 -166.5 -119.5t-189.5 -46.5q-178 0 -249 98.5t-71 280.5v701h258v-578q0 -111 13 -170t42.5 -81.5t86.5 -22.5q115 0 276 151v701h258v-1049h-258zM963 1335q0 -73 -36 -102t-110 -29q-82 0 -111.5 34t-29.5 97q0 70 31.5 100.5t109.5 30.5t112 -29.5
t34 -101.5zM518 1335q0 -73 -35.5 -102t-109.5 -29q-82 0 -111.5 34t-29.5 97q0 70 31.5 100.5t109.5 30.5t111.5 -29.5t33.5 -101.5z" />
    <glyph glyph-name="yacute" unicode="&#xfd;" horiz-adv-x="1085" 
d="M35 -141q84 -29 151 -29q58 0 102 35t91 145l27 62l-379 977h268l248 -670l254 670h262l-451 -1121q-55 -135 -107 -200t-121.5 -94t-174.5 -29q-114 0 -225 30zM573 1208h-205l189 361h315z" />
    <glyph glyph-name="thorn" unicode="&#xfe;" horiz-adv-x="1217" 
d="M1124 532q0 -169 -51 -298t-146 -197t-227 -68q-174 0 -297 109v-473h-258v1884h258v-533q127 123 316 123q198 0 301.5 -141.5t103.5 -405.5zM858 528q0 153 -53 238.5t-158 85.5q-63 0 -129.5 -29.5t-114.5 -72.5v-459q41 -37 101.5 -65.5t124.5 -28.5
q106 0 167.5 90.5t61.5 240.5z" />
    <glyph glyph-name="ydieresis" unicode="&#xff;" horiz-adv-x="1085" 
d="M35 -141q84 -29 151 -29q58 0 102 35t91 145l27 62l-379 977h268l248 -670l254 670h262l-451 -1121q-55 -135 -107 -200t-121.5 -94t-174.5 -29q-114 0 -225 30zM910 1335q0 -73 -36 -102t-110 -29q-82 0 -111.5 34t-29.5 97q0 70 31.5 100.5t109.5 30.5t112 -29.5
t34 -101.5zM465 1335q0 -73 -35.5 -102t-109.5 -29q-82 0 -111.5 34t-29.5 97q0 70 31.5 100.5t109.5 30.5t111.5 -29.5t33.5 -101.5z" />
    <glyph glyph-name="Amacron" unicode="&#x100;" horiz-adv-x="1337" 
d="M27 0l458 1384h367l459 -1384h-289l-92 281h-533l-90 -281h-280zM477 528h373l-186 572zM344 1591v185h672v-185h-672z" />
    <glyph glyph-name="amacron" unicode="&#x101;" horiz-adv-x="1139" 
d="M764 0v109q-153 -140 -328 -140q-174 0 -263 91.5t-89 234.5q0 112 45.5 185t135 114.5t257.5 58.5l221 21v47q0 88 -53 120.5t-155 32.5q-84 0 -144.5 -28t-89.5 -80l-201 129q53 89 166 136.5t273 47.5q245 0 353.5 -85.5t108.5 -280.5v-713h-237zM743 487l-131 -12
q-139 -12 -200.5 -53t-61.5 -123q0 -72 40 -98.5t106 -26.5q47 0 114.5 29.5t132.5 83.5v200zM223 1255v185h672v-185h-672z" />
    <glyph glyph-name="Abreve" unicode="&#x102;" horiz-adv-x="1337" 
d="M27 0l458 1384h367l459 -1384h-289l-92 281h-533l-90 -281h-280zM477 528h373l-186 572zM1039 1845q0 -88 -44.5 -161.5t-127 -117.5t-189.5 -44q-106 0 -188.5 43.5t-127 117.5t-44.5 162h188q15 -47 58 -75.5t116 -28.5q68 0 112 28.5t58 75.5h189z" />
    <glyph glyph-name="abreve" unicode="&#x103;" horiz-adv-x="1139" 
d="M764 0v109q-153 -140 -328 -140q-174 0 -263 91.5t-89 234.5q0 112 45.5 185t135 114.5t257.5 58.5l221 21v47q0 88 -53 120.5t-155 32.5q-84 0 -144.5 -28t-89.5 -80l-201 129q53 89 166 136.5t273 47.5q245 0 353.5 -85.5t108.5 -280.5v-713h-237zM743 487l-131 -12
q-139 -12 -200.5 -53t-61.5 -123q0 -72 40 -98.5t106 -26.5q47 0 114.5 29.5t132.5 83.5v200zM914 1509q0 -88 -44.5 -161.5t-127 -117.5t-189.5 -44q-106 0 -188.5 43.5t-127 117.5t-44.5 162h188q15 -47 58 -75.5t116 -28.5q68 0 112 28.5t58 75.5h189z" />
    <glyph glyph-name="Aogonek" unicode="&#x104;" horiz-adv-x="1337" 
d="M1313 -332q-128 -63 -240 -63q-104 0 -161.5 47t-57.5 133q0 139 164 223l-88 273h-533l-90 -281h-280l458 1384h367l459 -1384q-137 -29 -194.5 -63.5t-57.5 -79.5q0 -33 17.5 -47.5t41.5 -14.5q17 0 46.5 7.5t54.5 23.5zM477 528h373l-186 572z" />
    <glyph glyph-name="aogonek" unicode="&#x105;" horiz-adv-x="1139" 
d="M1001 -332q-128 -63 -239 -63q-105 0 -162 47t-57 133q0 78 56 141.5t165 106.5v76q-153 -140 -328 -140q-174 0 -263 91.5t-89 234.5q0 112 45.5 185t135 114.5t257.5 58.5l221 21v47q0 88 -53 120.5t-155 32.5q-84 0 -144.5 -28t-89.5 -80l-201 129q53 89 166 136.5
t273 47.5q245 0 353.5 -85.5t108.5 -280.5v-713q-137 -29 -195 -63.5t-58 -79.5q0 -62 59 -62q16 0 46 7.5t54 23.5zM743 487l-131 -12q-139 -12 -200.5 -53t-61.5 -123q0 -72 40 -98.5t106 -26.5q47 0 114.5 29.5t132.5 83.5v200z" />
    <glyph glyph-name="Cacute" unicode="&#x106;" horiz-adv-x="1333" 
d="M1276 229q-89 -133 -218.5 -195.5t-318.5 -62.5q-643 0 -643 721q0 369 163 545t470 176q203 0 331 -68.5t195 -179.5l-219 -170q-48 72 -88 104t-91 48t-122 16q-170 0 -259 -108.5t-89 -362.5q0 -237 83.5 -354t266.5 -117q123 0 191.5 47t124.5 125zM758 1544h-205
l189 361h315z" />
    <glyph glyph-name="cacute" unicode="&#x107;" horiz-adv-x="1059" 
d="M1012 150q-60 -89 -158 -135t-248 -46q-254 0 -384 138.5t-130 410.5q0 265 126 413t378 148q135 0 240.5 -44t160.5 -136l-192 -137q-35 47 -82 69.5t-121 22.5q-132 0 -188 -81t-56 -251t57.5 -248.5t196.5 -78.5q60 0 110 17t95 75zM631 1208h-205l189 361h315z" />
    <glyph glyph-name="Ccircumflex" unicode="&#x108;" horiz-adv-x="1333" 
d="M1276 229q-89 -133 -218.5 -195.5t-318.5 -62.5q-643 0 -643 721q0 369 163 545t470 176q203 0 331 -68.5t195 -179.5l-219 -170q-48 72 -88 104t-91 48t-122 16q-170 0 -259 -108.5t-89 -362.5q0 -237 83.5 -354t266.5 -117q123 0 191.5 47t124.5 125zM889 1544
l-146 174l-149 -174h-209l235 361h244l236 -361h-211z" />
    <glyph glyph-name="ccircumflex" unicode="&#x109;" horiz-adv-x="1059" 
d="M1012 150q-60 -89 -158 -135t-248 -46q-254 0 -384 138.5t-130 410.5q0 265 126 413t378 148q135 0 240.5 -44t160.5 -136l-192 -137q-35 47 -82 69.5t-121 22.5q-132 0 -188 -81t-56 -251t57.5 -248.5t196.5 -78.5q60 0 110 17t95 75zM727 1208l-146 174l-149 -174h-209
l235 361h244l236 -361h-211z" />
    <glyph glyph-name="Cdotaccent" unicode="&#x10a;" horiz-adv-x="1333" 
d="M1276 229q-89 -133 -218.5 -195.5t-318.5 -62.5q-643 0 -643 721q0 369 163 545t470 176q203 0 331 -68.5t195 -179.5l-219 -170q-48 72 -88 104t-91 48t-122 16q-170 0 -259 -108.5t-89 -362.5q0 -237 83.5 -354t266.5 -117q123 0 191.5 47t124.5 125zM828 1671
q0 -73 -36 -102t-110 -29q-82 0 -111.5 34t-29.5 97q0 70 31.5 100.5t109.5 30.5t112 -29.5t34 -101.5z" />
    <glyph glyph-name="cdotaccent" unicode="&#x10b;" horiz-adv-x="1059" 
d="M1012 150q-60 -89 -158 -135t-248 -46q-254 0 -384 138.5t-130 410.5q0 265 126 413t378 148q135 0 240.5 -44t160.5 -136l-192 -137q-35 47 -82 69.5t-121 22.5q-132 0 -188 -81t-56 -251t57.5 -248.5t196.5 -78.5q60 0 110 17t95 75zM701 1335q0 -73 -36 -102t-110 -29
q-82 0 -111.5 34t-29.5 97q0 70 31.5 100.5t109.5 30.5t112 -29.5t34 -101.5z" />
    <glyph glyph-name="Ccaron" unicode="&#x10c;" horiz-adv-x="1333" 
d="M1276 229q-89 -133 -218.5 -195.5t-318.5 -62.5q-643 0 -643 721q0 369 163 545t470 176q203 0 331 -68.5t195 -179.5l-219 -170q-48 72 -88 104t-91 48t-122 16q-170 0 -259 -108.5t-89 -362.5q0 -237 83.5 -354t266.5 -117q123 0 191.5 47t124.5 125zM846 1544h-244
l-235 361h211l145 -174l150 174h209z" />
    <glyph glyph-name="ccaron" unicode="&#x10d;" horiz-adv-x="1059" 
d="M1012 150q-60 -89 -158 -135t-248 -46q-254 0 -384 138.5t-130 410.5q0 265 126 413t378 148q135 0 240.5 -44t160.5 -136l-192 -137q-35 47 -82 69.5t-121 22.5q-132 0 -188 -81t-56 -251t57.5 -248.5t196.5 -78.5q60 0 110 17t95 75zM678 1208h-244l-235 361h211
l145 -174l150 174h209z" />
    <glyph glyph-name="Dcaron" unicode="&#x10e;" horiz-adv-x="1313" 
d="M1227 692q0 -250 -69 -402t-208 -221t-391 -69h-422v1384h418q245 0 389.5 -71t213.5 -221.5t69 -399.5zM936 694q0 181 -35.5 268.5t-120.5 125.5t-252 38h-108v-868h108q167 0 251.5 38.5t120.5 128.5t36 269zM717 1544h-244l-235 361h211l145 -174l150 174h209z" />
    <glyph glyph-name="dcaron" unicode="&#x10f;" horiz-adv-x="1346" 
d="M1307 1128h-160l55 361h271zM834 0v102q-72 -61 -152 -97t-182 -36q-198 0 -303 143t-105 404q0 267 115.5 415t324.5 148q74 0 152 -30.5t129 -77.5v518h258v-1489h-237zM813 758q-41 37 -101.5 65.5t-123.5 28.5q-104 0 -167 -89.5t-63 -242.5q0 -151 51.5 -237
t159.5 -86q64 0 130.5 29.5t113.5 72.5v459z" />
    <glyph glyph-name="Dcroat" unicode="&#x110;" horiz-adv-x="1399" 
d="M1303 692q0 -250 -74.5 -402t-224.5 -221t-418 -69h-436v580h-148v225h148v579h434q263 0 416.5 -70.5t228 -222.5t74.5 -399zM1012 694q0 176 -39 264.5t-132 128t-282 39.5h-127v-321h322v-225h-322v-322h127q184 0 278 40t134.5 130t40.5 266z" />
    <glyph glyph-name="dcroat" unicode="&#x111;" horiz-adv-x="1217" 
d="M834 0v102q-72 -61 -152 -97t-182 -36q-198 0 -303 143t-105 404q0 267 115.5 415t324.5 148q74 0 152 -30.5t129 -77.5v227h-278v184h278v107h258v-107h135v-184h-135v-1198h-237zM813 758q-41 37 -101.5 65.5t-123.5 28.5q-104 0 -167 -89.5t-63 -242.5
q0 -151 51.5 -237t159.5 -86q64 0 130.5 29.5t113.5 72.5v459z" />
    <glyph glyph-name="Emacron" unicode="&#x112;" horiz-adv-x="1149" 
d="M150 0v1384h899v-249h-617v-295h520v-250h-520v-332h617v-258h-899zM252 1591v185h672v-185h-672z" />
    <glyph glyph-name="emacron" unicode="&#x113;" horiz-adv-x="1143" 
d="M358 457q7 -140 68 -201t192 -61q76 0 133.5 19t100.5 73l192 -137q-63 -91 -163.5 -136t-274.5 -45q-259 0 -386.5 136t-127.5 411q0 563 504 563q224 0 341.5 -126.5t117.5 -368.5v-127h-697zM799 635q0 239 -209 239q-69 0 -113 -23.5t-70.5 -70t-41.5 -145.5h434z
M254 1255v185h672v-185h-672z" />
    <glyph glyph-name="Ebreve" unicode="&#x114;" horiz-adv-x="1149" 
d="M150 0v1384h899v-249h-617v-295h520v-250h-520v-332h617v-258h-899zM987 1845q0 -88 -44.5 -161.5t-127 -117.5t-189.5 -44q-106 0 -188.5 43.5t-127 117.5t-44.5 162h188q15 -47 58 -75.5t116 -28.5q68 0 112 28.5t58 75.5h189z" />
    <glyph glyph-name="ebreve" unicode="&#x115;" horiz-adv-x="1143" 
d="M358 457q7 -140 68 -201t192 -61q76 0 133.5 19t100.5 73l192 -137q-63 -91 -163.5 -136t-274.5 -45q-259 0 -386.5 136t-127.5 411q0 563 504 563q224 0 341.5 -126.5t117.5 -368.5v-127h-697zM799 635q0 239 -209 239q-69 0 -113 -23.5t-70.5 -70t-41.5 -145.5h434z
M946 1509q0 -88 -44.5 -161.5t-127 -117.5t-189.5 -44q-106 0 -188.5 43.5t-127 117.5t-44.5 162h188q15 -47 58 -75.5t116 -28.5q68 0 112 28.5t58 75.5h189z" />
    <glyph glyph-name="Edotaccent" unicode="&#x116;" horiz-adv-x="1149" 
d="M150 0v1384h899v-249h-617v-295h520v-250h-520v-332h617v-258h-899zM742 1671q0 -73 -36 -102t-110 -29q-82 0 -111.5 34t-29.5 97q0 70 31.5 100.5t109.5 30.5t112 -29.5t34 -101.5z" />
    <glyph glyph-name="edotaccent" unicode="&#x117;" horiz-adv-x="1143" 
d="M358 457q7 -140 68 -201t192 -61q76 0 133.5 19t100.5 73l192 -137q-63 -91 -163.5 -136t-274.5 -45q-259 0 -386.5 136t-127.5 411q0 563 504 563q224 0 341.5 -126.5t117.5 -368.5v-127h-697zM799 635q0 239 -209 239q-69 0 -113 -23.5t-70.5 -70t-41.5 -145.5h434z
M734 1335q0 -73 -36 -102t-110 -29q-82 0 -111.5 34t-29.5 97q0 70 31.5 100.5t109.5 30.5t112 -29.5t34 -101.5z" />
    <glyph glyph-name="Eogonek" unicode="&#x118;" horiz-adv-x="1149" 
d="M1049 -332q-131 -63 -240 -63q-104 0 -161.5 47t-57.5 133q0 132 149 215h-589v1384h899v-249h-617v-295h520v-250h-520v-332h617v-258q-138 -29 -196 -63.5t-58 -79.5q0 -62 59 -62q16 0 46 7.5t54 23.5z" />
    <glyph glyph-name="eogonek" unicode="&#x119;" horiz-adv-x="1143" 
d="M1055 457h-697q7 -140 68 -201t192 -61q76 0 133.5 19t100.5 73l192 -137q-34 -50 -79 -87q-79 -61 -121.5 -109.5t-42.5 -96.5q0 -33 17.5 -47.5t41.5 -14.5q17 0 46.5 7.5t54.5 23.5l94 -158q-131 -63 -240 -63q-104 0 -161.5 47t-57.5 133q0 93 68 184h-41
q-268 0 -399.5 134.5t-131.5 412.5q0 563 504 563q224 0 341.5 -126.5t117.5 -368.5v-127zM799 635q0 239 -209 239q-69 0 -113 -23.5t-70.5 -70t-41.5 -145.5h434z" />
    <glyph glyph-name="Ecaron" unicode="&#x11a;" horiz-adv-x="1149" 
d="M150 0v1384h899v-249h-617v-295h520v-250h-520v-332h617v-258h-899zM719 1544h-244l-235 361h211l145 -174l150 174h209z" />
    <glyph glyph-name="ecaron" unicode="&#x11b;" horiz-adv-x="1143" 
d="M358 457q7 -140 68 -201t192 -61q76 0 133.5 19t100.5 73l192 -137q-63 -91 -163.5 -136t-274.5 -45q-259 0 -386.5 136t-127.5 411q0 563 504 563q224 0 341.5 -126.5t117.5 -368.5v-127h-697zM799 635q0 239 -209 239q-69 0 -113 -23.5t-70.5 -70t-41.5 -145.5h434z
M713 1208h-244l-235 361h211l145 -174l150 174h209z" />
    <glyph glyph-name="Gcircumflex" unicode="&#x11c;" horiz-adv-x="1415" 
d="M1065 995q-53 86 -129 127t-191 41q-189 0 -273.5 -121.5t-84.5 -361.5q0 -238 83.5 -348.5t268.5 -110.5q140 0 258 58v215h-270v249h553v-612q-96 -72 -238.5 -116t-293.5 -44q-324 0 -488 169t-164 540q0 733 645 733q188 0 328 -63t213 -185zM889 1544l-146 174
l-149 -174h-209l235 361h244l236 -361h-211z" />
    <glyph glyph-name="gcircumflex" unicode="&#x11d;" horiz-adv-x="1217" 
d="M1071 20q0 -210 -129 -312.5t-414 -102.5q-235 0 -411 90l76 211q163 -76 335 -76q160 0 222.5 46t62.5 155v86q-128 -117 -309 -117q-192 0 -302 138t-110 397q0 162 51.5 285.5t151 191t240.5 67.5q83 0 166 -36.5t139 -92.5l34 99h197v-1029zM813 758q-106 94 -231 94
q-94 0 -159 -86t-65 -227q0 -160 57.5 -236t149.5 -76q128 0 248 103v428zM746 1208l-146 174l-149 -174h-209l235 361h244l236 -361h-211z" />
    <glyph glyph-name="Gbreve" unicode="&#x11e;" horiz-adv-x="1415" 
d="M1065 995q-53 86 -129 127t-191 41q-189 0 -273.5 -121.5t-84.5 -361.5q0 -238 83.5 -348.5t268.5 -110.5q140 0 258 58v215h-270v249h553v-612q-96 -72 -238.5 -116t-293.5 -44q-324 0 -488 169t-164 540q0 733 645 733q188 0 328 -63t213 -185zM1094 1845
q0 -88 -44.5 -161.5t-127 -117.5t-189.5 -44q-106 0 -188.5 43.5t-127 117.5t-44.5 162h188q15 -47 58 -75.5t116 -28.5q68 0 112 28.5t58 75.5h189z" />
    <glyph glyph-name="gbreve" unicode="&#x11f;" horiz-adv-x="1217" 
d="M1071 20q0 -210 -129 -312.5t-414 -102.5q-235 0 -411 90l76 211q163 -76 335 -76q160 0 222.5 46t62.5 155v86q-128 -117 -309 -117q-192 0 -302 138t-110 397q0 162 51.5 285.5t151 191t240.5 67.5q83 0 166 -36.5t139 -92.5l34 99h197v-1029zM813 758q-106 94 -231 94
q-94 0 -159 -86t-65 -227q0 -160 57.5 -236t149.5 -76q128 0 248 103v428zM953 1509q0 -88 -44.5 -161.5t-127 -117.5t-189.5 -44q-106 0 -188.5 43.5t-127 117.5t-44.5 162h188q15 -47 58 -75.5t116 -28.5q68 0 112 28.5t58 75.5h189z" />
    <glyph glyph-name="Gdotaccent" unicode="&#x120;" horiz-adv-x="1415" 
d="M1065 995q-53 86 -129 127t-191 41q-189 0 -273.5 -121.5t-84.5 -361.5q0 -238 83.5 -348.5t268.5 -110.5q140 0 258 58v215h-270v249h553v-612q-96 -72 -238.5 -116t-293.5 -44q-324 0 -488 169t-164 540q0 733 645 733q188 0 328 -63t213 -185zM873 1671
q0 -73 -36 -102t-110 -29q-82 0 -111.5 34t-29.5 97q0 70 31.5 100.5t109.5 30.5t112 -29.5t34 -101.5z" />
    <glyph glyph-name="gdotaccent" unicode="&#x121;" horiz-adv-x="1217" 
d="M1071 20q0 -210 -129 -312.5t-414 -102.5q-235 0 -411 90l76 211q163 -76 335 -76q160 0 222.5 46t62.5 155v86q-128 -117 -309 -117q-192 0 -302 138t-110 397q0 162 51.5 285.5t151 191t240.5 67.5q83 0 166 -36.5t139 -92.5l34 99h197v-1029zM813 758q-106 94 -231 94
q-94 0 -159 -86t-65 -227q0 -160 57.5 -236t149.5 -76q128 0 248 103v428zM721 1335q0 -73 -36 -102t-110 -29q-82 0 -111.5 34t-29.5 97q0 70 31.5 100.5t109.5 30.5t112 -29.5t34 -101.5z" />
    <glyph glyph-name="Gcommaaccent" unicode="&#x122;" horiz-adv-x="1415" 
d="M1065 995q-53 86 -129 127t-191 41q-189 0 -273.5 -121.5t-84.5 -361.5q0 -238 83.5 -348.5t268.5 -110.5q140 0 258 58v215h-270v249h553v-612q-96 -72 -238.5 -116t-293.5 -44q-324 0 -488 169t-164 540q0 733 645 733q188 0 328 -63t213 -185zM645 -563q47 55 63.5 95
t20.5 79q-66 4 -95.5 42t-29.5 114q0 73 35 116t131 43q160 0 160 -180q0 -170 -119 -309h-166z" />
    <glyph glyph-name="gcommaaccent" unicode="&#x123;" horiz-adv-x="1217" 
d="M1071 20q0 -210 -129 -312.5t-414 -102.5q-235 0 -411 90l76 211q163 -76 335 -76q160 0 222.5 46t62.5 155v86q-128 -117 -309 -117q-192 0 -302 138t-110 397q0 162 51.5 285.5t151 191t240.5 67.5q83 0 166 -36.5t139 -92.5l34 99h197v-1029zM813 758q-106 94 -231 94
q-94 0 -159 -86t-65 -227q0 -160 57.5 -236t149.5 -76q128 0 248 103v428zM701 1655q-47 -56 -63.5 -95.5t-20.5 -78.5q65 -4 95 -42t30 -114q0 -74 -35 -117t-131 -43q-160 0 -160 181q0 170 119 309h166z" />
    <glyph glyph-name="Hcircumflex" unicode="&#x124;" horiz-adv-x="1409" 
d="M977 0v588h-545v-588h-282v1384h282v-538h545v538h283v-1384h-283zM858 1544l-146 174l-149 -174h-209l235 361h244l236 -361h-211z" />
    <glyph glyph-name="hcircumflex" unicode="&#x125;" horiz-adv-x="1217" 
d="M821 0v578q0 166 -31 220t-110 54q-115 0 -277 -152v-700h-258v1489h258v-576q82 82 175 124t182 42q176 0 247.5 -99t71.5 -280v-700h-258zM781 1544l-146 174l-149 -174h-209l235 361h244l236 -361h-211z" />
    <glyph glyph-name="Hbar" unicode="&#x126;" horiz-adv-x="1409" 
d="M977 0v588h-545v-588h-282v991h-140v205h140v188h282v-188h545v188h283v-188h139v-205h-139v-991h-283zM977 846v145h-545v-145h545z" />
    <glyph glyph-name="hbar" unicode="&#x127;" horiz-adv-x="1217" 
d="M821 0v578q0 166 -31 220t-110 54q-115 0 -277 -152v-700h-258v1198h-143v184h143v107h258v-107h271v-184h-271v-285q82 82 175 124t182 42q176 0 247.5 -99t71.5 -280v-700h-258z" />
    <glyph glyph-name="Itilde" unicode="&#x128;" horiz-adv-x="872" 
d="M770 0h-668v217h193v950h-193v217h668v-217h-192v-950h192v-217zM35 1567q5 155 73 236t189 81q61 0 104 -22.5t77 -48t62.5 -48t61.5 -22.5q35 0 51.5 35t16.5 92h182q-10 -165 -75.5 -243.5t-188.5 -78.5q-66 0 -109 22.5t-75.5 50.5t-59.5 50.5t-60 22.5
q-67 0 -67 -127h-182z" />
    <glyph glyph-name="itilde" unicode="&#x129;" horiz-adv-x="549" 
d="M145 0v1049h258v-1049h-258zM-137 1231q5 155 73 236t189 81q61 0 104 -22.5t77 -48t62.5 -48t61.5 -22.5q35 0 51.5 35t16.5 92h182q-10 -165 -75.5 -243.5t-188.5 -78.5q-66 0 -109 22.5t-75.5 50.5t-59.5 50.5t-60 22.5q-67 0 -67 -127h-182z" />
    <glyph glyph-name="Imacron" unicode="&#x12a;" horiz-adv-x="872" 
d="M770 0h-668v217h193v950h-193v217h668v-217h-192v-950h192v-217zM102 1591v185h672v-185h-672z" />
    <glyph glyph-name="imacron" unicode="&#x12b;" horiz-adv-x="549" 
d="M145 0v1049h258v-1049h-258zM-60 1255v185h672v-185h-672z" />
    <glyph glyph-name="Ibreve" unicode="&#x12c;" horiz-adv-x="872" 
d="M770 0h-668v217h193v950h-193v217h668v-217h-192v-950h192v-217zM801 1845q0 -88 -44.5 -161.5t-127 -117.5t-189.5 -44q-106 0 -188.5 43.5t-127 117.5t-44.5 162h188q15 -47 58 -75.5t116 -28.5q68 0 112 28.5t58 75.5h189z" />
    <glyph glyph-name="ibreve" unicode="&#x12d;" horiz-adv-x="549" 
d="M145 0v1049h258v-1049h-258zM631 1509q0 -88 -44.5 -161.5t-127 -117.5t-189.5 -44q-106 0 -188.5 43.5t-127 117.5t-44.5 162h188q15 -47 58 -75.5t116 -28.5q68 0 112 28.5t58 75.5h189z" />
    <glyph glyph-name="Iogonek" unicode="&#x12e;" horiz-adv-x="872" 
d="M770 -332q-128 -63 -240 -63q-104 0 -161.5 47t-57.5 133q0 133 150 215h-359v217h193v950h-193v217h668v-217h-192v-950h192v-217q-137 -29 -195.5 -63.5t-58.5 -79.5q0 -33 17.5 -47.5t41.5 -14.5q17 0 46.5 7.5t54.5 23.5z" />
    <glyph glyph-name="iogonek" unicode="&#x12f;" horiz-adv-x="549" 
d="M403 0q-106 -23 -159.5 -60.5t-53.5 -82.5q0 -33 17.5 -47.5t42.5 -14.5q16 0 46 7.5t54 23.5l94 -158q-128 -63 -239 -63q-105 0 -162 47t-57 133q0 133 159 219v1045h258v-1049zM418 1335q0 -73 -36 -102t-110 -29q-82 0 -111.5 34t-29.5 97q0 70 32 100.5t109 30.5
q78 0 112 -29.5t34 -101.5z" />
    <glyph glyph-name="Idotaccent" unicode="&#x130;" horiz-adv-x="872" 
d="M770 0h-668v217h193v950h-193v217h668v-217h-192v-950h192v-217zM576 1671q0 -73 -36 -102t-110 -29q-82 0 -111.5 34t-29.5 97q0 70 31.5 100.5t109.5 30.5t112 -29.5t34 -101.5z" />
    <glyph glyph-name="dotlessi" unicode="&#x131;" horiz-adv-x="549" 
d="M145 0v1049h258v-1049h-258z" />
    <glyph glyph-name="IJ" unicode="&#x132;" horiz-adv-x="1735" 
d="M770 0h-668v217h193v950h-193v217h668v-217h-192v-950h192v-217zM1581 377q0 -219 -110.5 -313.5t-346.5 -94.5q-51 0 -142 15t-151 39l86 251q32 -17 102.5 -36t110.5 -19q74 0 107 20t47 70t14 144v931h283v-1007z" />
    <glyph glyph-name="ij" unicode="&#x133;" horiz-adv-x="1112" 
d="M418 1335q0 -73 -36 -102t-110 -29q-82 0 -111.5 34t-29.5 97q0 70 32 100.5t109 30.5q78 0 112 -29.5t34 -101.5zM145 0v1049h258v-1049h-258zM981 1335q0 -73 -36 -102t-109 -29q-82 0 -112 34t-30 97q0 70 32 100.5t110 30.5t111.5 -29.5t33.5 -101.5zM967 -45
q0 -188 -84 -269t-275 -81q-43 0 -113 9.5t-108 20.5l56 224q73 -29 151 -29t96.5 48t18.5 159v1012h258v-1094z" />
    <glyph glyph-name="Jcircumflex" unicode="&#x134;" horiz-adv-x="924" 
d="M770 377q0 -219 -110.5 -313.5t-346.5 -94.5q-51 0 -142 15t-151 39l86 251q32 -17 102.5 -36t110.5 -19q74 0 107 20t47 70t14 144v931h283v-1007zM781 1544l-146 174l-149 -174h-209l235 361h244l236 -361h-211z" />
    <glyph glyph-name="jcircumflex" unicode="&#x135;" horiz-adv-x="563" 
d="M418 -45q0 -188 -84 -269t-275 -81q-43 0 -113 9.5t-108 20.5l56 224q73 -29 151 -29t96.5 48t18.5 159v1012h258v-1094zM434 1208l-146 174l-149 -174h-209l235 361h244l236 -361h-211z" />
    <glyph glyph-name="Kcommaaccent" unicode="&#x136;" horiz-adv-x="1280" 
d="M899 0l-383 578l-84 -97v-481h-282v1384h282v-540l453 540h329l-516 -596l553 -788h-352zM502 -563q47 55 63.5 95t20.5 79q-66 4 -95.5 42t-29.5 114q0 73 35 116t131 43q160 0 160 -180q0 -170 -119 -309h-166z" />
    <glyph glyph-name="kcommaaccent" unicode="&#x137;" horiz-adv-x="1100" 
d="M784 0l-280 434l-101 -108v-326h-258v1489h258v-852l353 412h299l-396 -441l418 -608h-293zM416 -563q47 55 63.5 95t20.5 79q-66 4 -95.5 42t-29.5 114q0 73 35 116t131 43q160 0 160 -180q0 -170 -119 -309h-166z" />
    <glyph glyph-name="kgreenlandic" unicode="&#x138;" horiz-adv-x="1100" 
d="M784 0l-280 434l-101 -108v-326h-258v1049h258v-412l304 356q73 86 165 86q58 0 175 -30l-62 -195q-45 16 -65 16q-17 0 -27 -7t-23 -19l-211 -236l418 -608h-293z" />
    <glyph glyph-name="Lacute" unicode="&#x139;" horiz-adv-x="1038" 
d="M150 0v1384h282v-1126h582v-258h-864zM557 1544h-205l189 361h315z" />
    <glyph glyph-name="lacute" unicode="&#x13a;" horiz-adv-x="549" 
d="M145 0v1489h258v-1489h-258zM309 1546h-205l189 361h315z" />
    <glyph glyph-name="Lcommaaccent" unicode="&#x13b;" horiz-adv-x="1038" 
d="M150 0v1384h282v-1126h582v-258h-864zM455 -563q47 55 63.5 95t20.5 79q-66 4 -95.5 42t-29.5 114q0 73 35 116t131 43q160 0 160 -180q0 -170 -119 -309h-166z" />
    <glyph glyph-name="lcommaaccent" unicode="&#x13c;" horiz-adv-x="549" 
d="M145 0v1489h258v-1489h-258zM158 -563q47 55 63.5 95t20.5 79q-66 4 -95.5 42t-29.5 114q0 73 35 116t131 43q160 0 160 -180q0 -170 -119 -309h-166z" />
    <glyph glyph-name="Lcaron" unicode="&#x13d;" horiz-adv-x="1038" 
d="M150 0v1384h282v-1126h582v-258h-864zM674 1026h-160l55 361h271z" />
    <glyph glyph-name="lcaron" unicode="&#x13e;" horiz-adv-x="674" 
d="M145 0v1489h258v-1489h-258zM635 1128h-160l55 361h271z" />
    <glyph glyph-name="Ldot" unicode="&#x13f;" horiz-adv-x="1038" 
d="M150 0v1384h282v-1126h582v-258h-864zM951 762q0 -73 -36 -102t-110 -29q-82 0 -111.5 34t-29.5 97q0 70 31.5 100.5t109.5 30.5t112 -29.5t34 -101.5z" />
    <glyph glyph-name="ldot" unicode="&#x140;" horiz-adv-x="831" 
d="M145 0v1489h258v-1489h-258zM834 762q0 -73 -36 -102t-110 -29q-82 0 -111.5 34t-29.5 97q0 70 31.5 100.5t109.5 30.5t112 -29.5t34 -101.5z" />
    <glyph glyph-name="Lslash" unicode="&#x141;" horiz-adv-x="1038" 
d="M150 0v500l-140 -109v268l140 109v616h282v-417l225 176v-269l-225 -176v-440h582v-258h-864z" />
    <glyph glyph-name="lslash" unicode="&#x142;" horiz-adv-x="549" 
d="M403 737v-737h-258v498l-135 -138v232l135 137v760h258v-520l136 137v-232z" />
    <glyph glyph-name="Nacute" unicode="&#x143;" horiz-adv-x="1411" 
d="M930 0l-504 989v-989h-276v1384h366l469 -933v933h277v-1384h-332zM727 1544h-205l189 361h315z" />
    <glyph glyph-name="nacute" unicode="&#x144;" horiz-adv-x="1217" 
d="M821 0v578q0 164 -29.5 219t-111.5 55q-115 0 -277 -152v-700h-258v1049h258v-136q82 82 175 124t182 42q161 0 240 -88t79 -291v-700h-258zM659 1208h-205l189 361h315z" />
    <glyph glyph-name="Ncommaaccent" unicode="&#x145;" horiz-adv-x="1411" 
d="M930 0l-504 989v-989h-276v1384h366l469 -933v933h277v-1384h-332zM604 -563q47 55 63.5 95t20.5 79q-66 4 -95.5 42t-29.5 114q0 73 35 116t131 43q160 0 160 -180q0 -170 -119 -309h-166z" />
    <glyph glyph-name="ncommaaccent" unicode="&#x146;" horiz-adv-x="1217" 
d="M821 0v578q0 164 -29.5 219t-111.5 55q-115 0 -277 -152v-700h-258v1049h258v-136q82 82 175 124t182 42q161 0 240 -88t79 -291v-700h-258zM473 -563q47 55 63.5 95t20.5 79q-66 4 -95.5 42t-29.5 114q0 73 35 116t131 43q160 0 160 -180q0 -170 -119 -309h-166z" />
    <glyph glyph-name="Ncaron" unicode="&#x147;" horiz-adv-x="1411" 
d="M930 0l-504 989v-989h-276v1384h366l469 -933v933h277v-1384h-332zM825 1544h-244l-235 361h211l145 -174l150 174h209z" />
    <glyph glyph-name="ncaron" unicode="&#x148;" horiz-adv-x="1217" 
d="M821 0v578q0 164 -29.5 219t-111.5 55q-115 0 -277 -152v-700h-258v1049h258v-136q82 82 175 124t182 42q161 0 240 -88t79 -291v-700h-258zM747 1208h-244l-235 361h211l145 -174l150 174h209z" />
    <glyph glyph-name="napostrophe" unicode="&#x149;" horiz-adv-x="1452" 
d="M1057 0v578q0 164 -29.5 219t-111.5 55q-115 0 -277 -152v-700h-258v1049h258v-136q82 82 175 124t182 42q161 0 240 -88t79 -291v-700h-258zM306 1233q0 -123 -42 -234.5t-91 -183.5h-193q61 86 91 165t34 118q-66 4 -95.5 42t-29.5 113q0 74 35 117t131 43
q160 0 160 -180z" />
    <glyph glyph-name="Eng" unicode="&#x14a;" horiz-adv-x="1411" 
d="M737 -141q74 -29 152 -29q72 0 92 40t23 130l-578 989v-989h-276v1384h366l469 -864v864h277v-1429q0 -188 -84 -269t-275 -81q-45 0 -115.5 9.5t-105.5 20.5z" />
    <glyph glyph-name="eng" unicode="&#x14b;" horiz-adv-x="1217" 
d="M145 0v1049h258v-136q82 82 175 124t182 42q161 0 240 -88t79 -291v-745q0 -188 -84 -269t-274 -81q-44 0 -114 9.5t-107 20.5l55 224q74 -29 152 -29q77 0 95.5 48t18.5 159v541q0 164 -29.5 219t-111.5 55q-115 0 -277 -152v-700h-258z" />
    <glyph glyph-name="Omacron" unicode="&#x14c;" horiz-adv-x="1364" 
d="M1278 692q0 -361 -152.5 -541t-443.5 -180q-307 0 -451.5 189.5t-144.5 531.5q0 344 144.5 532.5t451.5 188.5q309 0 452.5 -188.5t143.5 -532.5zM987 692q0 246 -69.5 358.5t-235.5 112.5t-235.5 -112.5t-69.5 -358.5t70.5 -358.5t234.5 -112.5q166 0 235.5 112.5
t69.5 358.5zM356 1591v185h672v-185h-672z" />
    <glyph glyph-name="omacron" unicode="&#x14d;" horiz-adv-x="1190" 
d="M1098 522q0 -262 -121 -407.5t-381 -145.5q-504 0 -504 553q0 266 121 411.5t383 145.5q260 0 381 -145.5t121 -411.5zM831 522q0 173 -54 252.5t-181 79.5q-126 0 -182 -81.5t-56 -250.5q0 -168 55.5 -247.5t182.5 -79.5q125 0 180 78.5t55 248.5zM254 1255v185h672
v-185h-672z" />
    <glyph glyph-name="Obreve" unicode="&#x14e;" horiz-adv-x="1364" 
d="M1278 692q0 -361 -152.5 -541t-443.5 -180q-307 0 -451.5 189.5t-144.5 531.5q0 344 144.5 532.5t451.5 188.5q309 0 452.5 -188.5t143.5 -532.5zM987 692q0 246 -69.5 358.5t-235.5 112.5t-235.5 -112.5t-69.5 -358.5t70.5 -358.5t234.5 -112.5q166 0 235.5 112.5
t69.5 358.5zM1045 1845q0 -88 -44.5 -161.5t-127 -117.5t-189.5 -44q-106 0 -188.5 43.5t-127 117.5t-44.5 162h188q15 -47 58 -75.5t116 -28.5q68 0 112 28.5t58 75.5h189z" />
    <glyph glyph-name="obreve" unicode="&#x14f;" horiz-adv-x="1190" 
d="M1098 522q0 -262 -121 -407.5t-381 -145.5q-504 0 -504 553q0 266 121 411.5t383 145.5q260 0 381 -145.5t121 -411.5zM831 522q0 173 -54 252.5t-181 79.5q-126 0 -182 -81.5t-56 -250.5q0 -168 55.5 -247.5t182.5 -79.5q125 0 180 78.5t55 248.5zM957 1509
q0 -88 -44.5 -161.5t-127 -117.5t-189.5 -44q-106 0 -188.5 43.5t-127 117.5t-44.5 162h188q15 -47 58 -75.5t116 -28.5q68 0 112 28.5t58 75.5h189z" />
    <glyph glyph-name="Ohungarumlaut" unicode="&#x150;" horiz-adv-x="1364" 
d="M1278 692q0 -361 -152.5 -541t-443.5 -180q-307 0 -451.5 189.5t-144.5 531.5q0 344 144.5 532.5t451.5 188.5q309 0 452.5 -188.5t143.5 -532.5zM987 692q0 246 -69.5 358.5t-235.5 112.5t-235.5 -112.5t-69.5 -358.5t70.5 -358.5t234.5 -112.5q166 0 235.5 112.5
t69.5 358.5zM967 1544h-205l189 361h315zM551 1544h-205l189 361h315z" />
    <glyph glyph-name="ohungarumlaut" unicode="&#x151;" horiz-adv-x="1190" 
d="M1098 522q0 -262 -121 -407.5t-381 -145.5q-504 0 -504 553q0 266 121 411.5t383 145.5q260 0 381 -145.5t121 -411.5zM831 522q0 173 -54 252.5t-181 79.5q-126 0 -182 -81.5t-56 -250.5q0 -168 55.5 -247.5t182.5 -79.5q125 0 180 78.5t55 248.5zM885 1208h-205
l189 361h315zM469 1208h-205l189 361h315z" />
    <glyph glyph-name="OE" unicode="&#x152;" horiz-adv-x="1919" 
d="M958 0q-106 -29 -251 -29q-312 0 -461.5 189.5t-149.5 531.5q0 344 151.5 532.5t459.5 188.5q121 0 247 -29h865v-249h-568v-301h467v-250h-467v-326h568v-258h-861zM967 1098q-100 65 -238 65q-182 0 -262 -110t-80 -361q0 -246 78 -358.5t264 -112.5q78 0 130 14.5
t108 49.5v813z" />
    <glyph glyph-name="oe" unicode="&#x153;" horiz-adv-x="1874" 
d="M1090 457q6 -140 66.5 -201t193.5 -61q73 0 131.5 19t101.5 73l193 -137q-64 -91 -162 -136t-260 -45q-264 0 -391 152q-139 -152 -367 -152q-264 0 -384 146.5t-120 406.5q0 269 121 413t373 144q244 0 377 -149q57 63 144 106t230 43q219 0 334 -128.5t115 -366.5v-127
h-696zM1530 635q0 239 -209 239q-68 0 -113 -23.5t-71 -70.5t-41 -145h434zM831 522q0 184 -58 258t-177 74q-126 0 -182 -81.5t-56 -250.5q0 -168 55.5 -247.5t182.5 -79.5q117 0 176 74.5t59 252.5z" />
    <glyph glyph-name="Racute" unicode="&#x154;" horiz-adv-x="1284" 
d="M928 0l-353 524h-143v-524h-282v1384h503q267 0 390.5 -96t123.5 -315q0 -177 -74.5 -282t-211.5 -134l370 -557h-323zM881 961q0 106 -53.5 142t-176.5 36h-219v-369h207q95 0 146 18t73.5 56t22.5 117zM641 1544h-205l189 361h315z" />
    <glyph glyph-name="racute" unicode="&#x155;" horiz-adv-x="840" 
d="M778 797q-40 20 -106 20q-72 0 -136.5 -34.5t-132.5 -100.5v-682h-258v1049h258v-150q66 72 142 119t170 47q80 0 114 -21zM512 1208h-205l189 361h315z" />
    <glyph glyph-name="Rcommaaccent" unicode="&#x156;" horiz-adv-x="1284" 
d="M928 0l-353 524h-143v-524h-282v1384h503q267 0 390.5 -96t123.5 -315q0 -177 -74.5 -282t-211.5 -134l370 -557h-323zM881 961q0 106 -53.5 142t-176.5 36h-219v-369h207q95 0 146 18t73.5 56t22.5 117zM530 -563q47 55 63.5 95t20.5 79q-66 4 -95.5 42t-29.5 114
q0 73 35 116t131 43q160 0 160 -180q0 -170 -119 -309h-166z" />
    <glyph glyph-name="rcommaaccent" unicode="&#x157;" horiz-adv-x="840" 
d="M778 797q-40 20 -106 20q-72 0 -136.5 -34.5t-132.5 -100.5v-682h-258v1049h258v-150q66 72 142 119t170 47q80 0 114 -21zM154 -563q47 55 63.5 95t20.5 79q-66 4 -95.5 42t-29.5 114q0 73 35 116t131 43q160 0 160 -180q0 -170 -119 -309h-166z" />
    <glyph glyph-name="Rcaron" unicode="&#x158;" horiz-adv-x="1284" 
d="M928 0l-353 524h-143v-524h-282v1384h503q267 0 390.5 -96t123.5 -315q0 -177 -74.5 -282t-211.5 -134l370 -557h-323zM881 961q0 106 -53.5 142t-176.5 36h-219v-369h207q95 0 146 18t73.5 56t22.5 117zM749 1544h-244l-235 361h211l145 -174l150 174h209z" />
    <glyph glyph-name="rcaron" unicode="&#x159;" horiz-adv-x="840" 
d="M778 797q-40 20 -106 20q-72 0 -136.5 -34.5t-132.5 -100.5v-682h-258v1049h258v-150q66 72 142 119t170 47q80 0 114 -21zM579 1208h-244l-235 361h211l145 -174l150 174h209z" />
    <glyph glyph-name="Sacute" unicode="&#x15a;" horiz-adv-x="1229" 
d="M1145 401q0 -208 -136.5 -319t-402.5 -111q-184 0 -319.5 61t-220.5 197l217 166q48 -68 91 -102t102 -53t136 -19q115 0 179.5 39.5t64.5 120.5q0 46 -22.5 77t-67.5 53.5t-156 51.5q-108 29 -203.5 58.5t-165 76.5t-109.5 118t-40 179q0 197 133 307.5t381 110.5
q359 0 508 -246l-215 -168q-57 88 -128 126t-169 38t-159.5 -35.5t-61.5 -111.5q0 -67 64 -102.5t223 -71.5q88 -23 174 -49.5t153.5 -73.5t108.5 -123t41 -195zM655 1544h-205l189 361h315z" />
    <glyph glyph-name="sacute" unicode="&#x15b;" horiz-adv-x="1026" 
d="M946 299q0 -104 -52.5 -178t-149 -113t-220.5 -39q-329 0 -448 183l192 135q47 -64 108.5 -85.5t131.5 -21.5q184 0 184 107q0 47 -52 72.5t-163 52.5q-209 46 -294 130t-85 218q0 139 106.5 229t313.5 90q141 0 248.5 -45t165.5 -135l-193 -137q-69 106 -225 106
q-80 0 -121 -27.5t-41 -70.5q0 -41 37 -65.5t146 -51.5q179 -44 255.5 -87.5t116 -108t39.5 -158.5zM559 1208h-205l189 361h315z" />
    <glyph glyph-name="Scircumflex" unicode="&#x15c;" horiz-adv-x="1229" 
d="M1145 401q0 -208 -136.5 -319t-402.5 -111q-184 0 -319.5 61t-220.5 197l217 166q48 -68 91 -102t102 -53t136 -19q115 0 179.5 39.5t64.5 120.5q0 46 -22.5 77t-67.5 53.5t-156 51.5q-108 29 -203.5 58.5t-165 76.5t-109.5 118t-40 179q0 197 133 307.5t381 110.5
q359 0 508 -246l-215 -168q-57 88 -128 126t-169 38t-159.5 -35.5t-61.5 -111.5q0 -67 64 -102.5t223 -71.5q88 -23 174 -49.5t153.5 -73.5t108.5 -123t41 -195zM748 1544l-146 174l-149 -174h-209l235 361h244l236 -361h-211z" />
    <glyph glyph-name="scircumflex" unicode="&#x15d;" horiz-adv-x="1026" 
d="M946 299q0 -104 -52.5 -178t-149 -113t-220.5 -39q-329 0 -448 183l192 135q47 -64 108.5 -85.5t131.5 -21.5q184 0 184 107q0 47 -52 72.5t-163 52.5q-209 46 -294 130t-85 218q0 139 106.5 229t313.5 90q141 0 248.5 -45t165.5 -135l-193 -137q-69 106 -225 106
q-80 0 -121 -27.5t-41 -70.5q0 -41 37 -65.5t146 -51.5q179 -44 255.5 -87.5t116 -108t39.5 -158.5zM668 1208l-146 174l-149 -174h-209l235 361h244l236 -361h-211z" />
    <glyph glyph-name="Scedilla" unicode="&#x15e;" horiz-adv-x="1229" 
d="M858 -205q0 -190 -287 -190q-171 0 -264 45l70 145q106 -45 192 -45q54 0 75.5 11.5t21.5 35.5q0 63 -181 72l54 104q-165 12 -279 71t-194 185l217 166q48 -68 91 -102t102 -53t136 -19q115 0 179.5 39.5t64.5 120.5q0 46 -22.5 77t-67.5 53.5t-156 51.5
q-108 29 -203.5 58.5t-165 76.5t-109.5 118t-40 179q0 197 133 307.5t381 110.5q359 0 508 -246l-215 -168q-57 88 -128 126t-169 38t-159.5 -35.5t-61.5 -111.5q0 -67 64 -102.5t223 -71.5q88 -23 174 -49.5t153.5 -73.5t108.5 -123t41 -195q0 -186 -108.5 -294.5
t-319.5 -129.5q59 -16 100 -63t41 -119z" />
    <glyph glyph-name="scedilla" unicode="&#x15f;" horiz-adv-x="1026" 
d="M782 -205q0 -190 -286 -190q-172 0 -265 45l70 145q106 -45 193 -45q53 0 74.5 11.5t21.5 35.5q0 63 -180 72l53 102q-281 19 -387 181l192 135q47 -64 108.5 -85.5t131.5 -21.5q184 0 184 107q0 47 -52 72.5t-163 52.5q-209 46 -294 130t-85 218q0 139 106.5 229
t313.5 90q141 0 248.5 -45t165.5 -135l-193 -137q-69 106 -225 106q-80 0 -121 -27.5t-41 -70.5q0 -41 37 -65.5t146 -51.5q179 -44 255.5 -87.5t116 -108t39.5 -158.5q0 -130 -80.5 -213t-228.5 -106v-3q61 -14 103 -61t42 -121z" />
    <glyph glyph-name="Scaron" unicode="&#x160;" horiz-adv-x="1229" 
d="M1145 401q0 -208 -136.5 -319t-402.5 -111q-184 0 -319.5 61t-220.5 197l217 166q48 -68 91 -102t102 -53t136 -19q115 0 179.5 39.5t64.5 120.5q0 46 -22.5 77t-67.5 53.5t-156 51.5q-108 29 -203.5 58.5t-165 76.5t-109.5 118t-40 179q0 197 133 307.5t381 110.5
q359 0 508 -246l-215 -168q-57 88 -128 126t-169 38t-159.5 -35.5t-61.5 -111.5q0 -67 64 -102.5t223 -71.5q88 -23 174 -49.5t153.5 -73.5t108.5 -123t41 -195zM702 1544h-244l-235 361h211l145 -174l150 174h209z" />
    <glyph glyph-name="scaron" unicode="&#x161;" horiz-adv-x="1026" 
d="M946 299q0 -104 -52.5 -178t-149 -113t-220.5 -39q-329 0 -448 183l192 135q47 -64 108.5 -85.5t131.5 -21.5q184 0 184 107q0 47 -52 72.5t-163 52.5q-209 46 -294 130t-85 218q0 139 106.5 229t313.5 90q141 0 248.5 -45t165.5 -135l-193 -137q-69 106 -225 106
q-80 0 -121 -27.5t-41 -70.5q0 -41 37 -65.5t146 -51.5q179 -44 255.5 -87.5t116 -108t39.5 -158.5zM608 1208h-244l-235 361h211l145 -174l150 174h209z" />
    <glyph glyph-name="uni0162" unicode="&#x162;" horiz-adv-x="1204" 
d="M854 -205q0 -190 -287 -190q-171 0 -264 45l70 145q106 -45 192 -45q53 0 75 11.5t22 35.5q0 63 -181 72l68 131h-88v1126h-426v258h1134v-258h-426v-1126h-65l-10 -23q94 -12 140 -60t46 -122z" />
    <glyph glyph-name="uni0163" unicode="&#x163;" horiz-adv-x="739" 
d="M696 -205q0 -190 -286 -190q-172 0 -265 45l70 145q106 -45 193 -45q53 0 74.5 11.5t21.5 35.5q0 63 -180 72l57 113q-115 24 -166 106t-51 229v527h-133v205h133v292h258v-292h244v-205h-244v-494q0 -98 30.5 -133t86.5 -35q71 0 141 29l45 -211q-63 -18 -156 -27
q54 -18 90.5 -63t36.5 -115z" />
    <glyph glyph-name="Tcaron" unicode="&#x164;" horiz-adv-x="1204" 
d="M743 1126v-1126h-282v1126h-426v258h1134v-258h-426zM725 1544h-244l-235 361h211l145 -174l150 174h209z" />
    <glyph glyph-name="tcaron" unicode="&#x165;" horiz-adv-x="739" 
d="M674 1128h-160l55 361h271zM725 0q-104 -31 -219 -31q-182 0 -262 82t-80 266v527h-133v205h133v292h258v-292h244v-205h-244v-494q0 -98 30.5 -133t86.5 -35q71 0 141 29z" />
    <glyph glyph-name="Tbar" unicode="&#x166;" horiz-adv-x="1204" 
d="M743 1126v-270h195v-184h-195v-672h-282v672h-195v184h195v270h-426v258h1134v-258h-426z" />
    <glyph glyph-name="tbar" unicode="&#x167;" horiz-adv-x="739" 
d="M422 537v-187q0 -98 30.5 -133t86.5 -35q71 0 141 29l45 -211q-104 -31 -219 -31q-182 0 -262 82t-80 266v220h-154v184h154v123h-133v205h133v292h258v-292h244v-205h-244v-123h260v-184h-260z" />
    <glyph glyph-name="Utilde" unicode="&#x168;" horiz-adv-x="1438" 
d="M1288 578q0 -325 -132 -467t-437 -142q-302 0 -435.5 140.5t-133.5 468.5v806h282v-786q0 -141 27 -222t86 -119t172 -38q161 0 225 85.5t64 289.5v790h282v-806zM316 1567q5 155 73 236t189 81q61 0 104 -22.5t77 -48t62.5 -48t61.5 -22.5q35 0 51.5 35t16.5 92h182
q-10 -165 -75.5 -243.5t-188.5 -78.5q-66 0 -109 22.5t-75.5 50.5t-59.5 50.5t-60 22.5q-67 0 -67 -127h-182z" />
    <glyph glyph-name="utilde" unicode="&#x169;" horiz-adv-x="1217" 
d="M813 0v135q-68 -73 -166.5 -119.5t-189.5 -46.5q-178 0 -249 98.5t-71 280.5v701h258v-578q0 -111 13 -170t42.5 -81.5t86.5 -22.5q115 0 276 151v701h258v-1049h-258zM217 1231q5 155 73 236t189 81q61 0 104 -22.5t77 -48t62.5 -48t61.5 -22.5q35 0 51.5 35t16.5 92
h182q-10 -165 -75.5 -243.5t-188.5 -78.5q-66 0 -109 22.5t-75.5 50.5t-59.5 50.5t-60 22.5q-67 0 -67 -127h-182z" />
    <glyph glyph-name="Umacron" unicode="&#x16a;" horiz-adv-x="1438" 
d="M1288 578q0 -325 -132 -467t-437 -142q-302 0 -435.5 140.5t-133.5 468.5v806h282v-786q0 -141 27 -222t86 -119t172 -38q161 0 225 85.5t64 289.5v790h282v-806zM397 1591v185h672v-185h-672z" />
    <glyph glyph-name="umacron" unicode="&#x16b;" horiz-adv-x="1217" 
d="M813 0v135q-68 -73 -166.5 -119.5t-189.5 -46.5q-178 0 -249 98.5t-71 280.5v701h258v-578q0 -111 13 -170t42.5 -81.5t86.5 -22.5q115 0 276 151v701h258v-1049h-258zM266 1255v185h672v-185h-672z" />
    <glyph glyph-name="Ubreve" unicode="&#x16c;" horiz-adv-x="1438" 
d="M1288 578q0 -325 -132 -467t-437 -142q-302 0 -435.5 140.5t-133.5 468.5v806h282v-786q0 -141 27 -222t86 -119t172 -38q161 0 225 85.5t64 289.5v790h282v-806zM1092 1845q0 -88 -44.5 -161.5t-127 -117.5t-189.5 -44q-106 0 -188.5 43.5t-127 117.5t-44.5 162h188
q15 -47 58 -75.5t116 -28.5q68 0 112 28.5t58 75.5h189z" />
    <glyph glyph-name="ubreve" unicode="&#x16d;" horiz-adv-x="1217" 
d="M813 0v135q-68 -73 -166.5 -119.5t-189.5 -46.5q-178 0 -249 98.5t-71 280.5v701h258v-578q0 -111 13 -170t42.5 -81.5t86.5 -22.5q115 0 276 151v701h258v-1049h-258zM963 1509q0 -88 -44.5 -161.5t-127 -117.5t-189.5 -44q-106 0 -188.5 43.5t-127 117.5t-44.5 162h188
q15 -47 58 -75.5t116 -28.5q68 0 112 28.5t58 75.5h189z" />
    <glyph glyph-name="Uring" unicode="&#x16e;" horiz-adv-x="1438" 
d="M1288 578q0 -325 -132 -467t-437 -142q-302 0 -435.5 140.5t-133.5 468.5v806h282v-786q0 -141 27 -222t86 -119t172 -38q161 0 225 85.5t64 289.5v790h282v-806zM955 1716q0 -110 -59.5 -167.5t-172.5 -57.5q-117 0 -173 60.5t-56 164.5q0 107 57.5 166.5t171.5 59.5
q119 0 175.5 -60.5t56.5 -165.5zM811 1716q0 90 -88 90q-86 0 -86 -90t86 -90q88 0 88 90z" />
    <glyph glyph-name="uring" unicode="&#x16f;" horiz-adv-x="1217" 
d="M813 0v135q-68 -73 -166.5 -119.5t-189.5 -46.5q-178 0 -249 98.5t-71 280.5v701h258v-578q0 -111 13 -170t42.5 -81.5t86.5 -22.5q115 0 276 151v701h258v-1049h-258zM824 1380q0 -110 -59.5 -167.5t-172.5 -57.5q-117 0 -173 60.5t-56 164.5q0 107 57.5 166.5
t171.5 59.5q119 0 175.5 -60.5t56.5 -165.5zM680 1380q0 90 -88 90q-86 0 -86 -90t86 -90q88 0 88 90z" />
    <glyph glyph-name="Uhungarumlaut" unicode="&#x170;" horiz-adv-x="1438" 
d="M1288 578q0 -325 -132 -467t-437 -142q-302 0 -435.5 140.5t-133.5 468.5v806h282v-786q0 -141 27 -222t86 -119t172 -38q161 0 225 85.5t64 289.5v790h282v-806zM1008 1544h-205l189 361h315zM592 1544h-205l189 361h315z" />
    <glyph glyph-name="uhungarumlaut" unicode="&#x171;" horiz-adv-x="1217" 
d="M813 0v135q-68 -73 -166.5 -119.5t-189.5 -46.5q-178 0 -249 98.5t-71 280.5v701h258v-578q0 -111 13 -170t42.5 -81.5t86.5 -22.5q115 0 276 151v701h258v-1049h-258zM907 1208h-205l189 361h315zM491 1208h-205l189 361h315z" />
    <glyph glyph-name="Uogonek" unicode="&#x172;" horiz-adv-x="1438" 
d="M1288 578q0 -302 -110 -443q-69 -86 -106.5 -163.5t-37.5 -114.5q0 -33 17.5 -47.5t42.5 -14.5q16 0 45.5 7.5t54.5 23.5l94 -158q-128 -63 -239 -63q-105 0 -162.5 47t-57.5 133q0 101 60 197q-78 -13 -170 -13q-302 0 -435.5 140.5t-133.5 468.5v806h282v-786
q0 -141 27 -222t86 -119t172 -38q161 0 225 85.5t64 289.5v790h282v-806z" />
    <glyph glyph-name="uogonek" unicode="&#x173;" horiz-adv-x="1217" 
d="M1071 -332q-128 -63 -240 -63q-104 0 -161.5 47t-57.5 133q0 90 60.5 148.5t140.5 91.5v110q-68 -73 -166.5 -119.5t-189.5 -46.5q-178 0 -249 98.5t-71 280.5v701h258v-578q0 -111 13 -170t42.5 -81.5t86.5 -22.5q115 0 276 151v701h258v-1049q-137 -29 -195.5 -63.5
t-58.5 -79.5q0 -33 17.5 -47.5t42.5 -14.5q16 0 45.5 7.5t54.5 23.5z" />
    <glyph glyph-name="Wcircumflex" unicode="&#x174;" horiz-adv-x="1833" 
d="M1432 0h-289l-232 915l-233 -915h-285l-350 1384h281l221 -903l229 903h279l231 -909l227 909h279zM1065 1544l-146 174l-149 -174h-209l235 361h244l236 -361h-211z" />
    <glyph glyph-name="wcircumflex" unicode="&#x175;" horiz-adv-x="1565" 
d="M1257 0h-235l-236 668l-237 -668h-236l-286 1049h268l162 -676l235 676h195l237 -670l156 670h258zM932 1208l-146 174l-149 -174h-209l235 361h244l236 -361h-211z" />
    <glyph glyph-name="Ycircumflex" unicode="&#x176;" horiz-adv-x="1188" 
d="M735 528v-528h-284v522l-433 862h308l270 -579l276 579h297zM742 1544l-146 174l-149 -174h-209l235 361h244l236 -361h-211z" />
    <glyph glyph-name="ycircumflex" unicode="&#x177;" horiz-adv-x="1085" 
d="M35 -141q84 -29 151 -29q58 0 102 35t91 145l27 62l-379 977h268l248 -670l254 670h262l-451 -1121q-55 -135 -107 -200t-121.5 -94t-174.5 -29q-114 0 -225 30zM686 1208l-146 174l-149 -174h-209l235 361h244l236 -361h-211z" />
    <glyph glyph-name="Ydieresis" unicode="&#x178;" horiz-adv-x="1188" 
d="M735 528v-528h-284v522l-433 862h308l270 -579l276 579h297zM957 1671q0 -73 -36 -102t-110 -29q-82 0 -111.5 34t-29.5 97q0 70 31.5 100.5t109.5 30.5t112 -29.5t34 -101.5zM512 1671q0 -73 -35.5 -102t-109.5 -29q-82 0 -111.5 34t-29.5 97q0 70 31.5 100.5
t109.5 30.5t111.5 -29.5t33.5 -101.5z" />
    <glyph glyph-name="Zacute" unicode="&#x179;" horiz-adv-x="1147" 
d="M72 0v238l635 888h-605v258h942v-227l-641 -899h658v-258h-989zM600 1542h-205l189 361h315z" />
    <glyph glyph-name="zacute" unicode="&#x17a;" horiz-adv-x="930" 
d="M57 0v188l490 656h-477v205h786v-187l-491 -657h507v-205h-815zM492 1208h-205l189 361h315z" />
    <glyph glyph-name="Zdotaccent" unicode="&#x17b;" horiz-adv-x="1147" 
d="M72 0v238l635 888h-605v258h942v-227l-641 -899h658v-258h-989zM701 1669q0 -73 -36 -102t-110 -29q-82 0 -111.5 34t-29.5 97q0 70 31.5 100.5t109.5 30.5t112 -29.5t34 -101.5z" />
    <glyph glyph-name="zdotaccent" unicode="&#x17c;" horiz-adv-x="930" 
d="M57 0v188l490 656h-477v205h786v-187l-491 -657h507v-205h-815zM602 1335q0 -73 -36 -102t-110 -29q-82 0 -111.5 34t-29.5 97q0 70 31.5 100.5t109.5 30.5t112 -29.5t34 -101.5z" />
    <glyph glyph-name="Zcaron" unicode="&#x17d;" horiz-adv-x="1147" 
d="M72 0v238l635 888h-605v258h942v-227l-641 -899h658v-258h-989zM678 1542h-244l-235 361h211l145 -174l150 174h209z" />
    <glyph glyph-name="zcaron" unicode="&#x17e;" horiz-adv-x="930" 
d="M57 0v188l490 656h-477v205h786v-187l-491 -657h507v-205h-815zM579 1208h-244l-235 361h211l145 -174l150 174h209z" />
    <glyph glyph-name="longs" unicode="&#x17f;" horiz-adv-x="614" 
d="M698 1270q-72 24 -139 24q-76 0 -104.5 -31.5t-28.5 -111.5v-1151h-258v844h-123v205h123v102q0 195 96.5 282t290.5 87q91 0 193 -25z" />
    <glyph glyph-name="florin" unicode="&#x192;" horiz-adv-x="1038" 
d="M967 1262q-94 32 -168 32q-76 0 -111 -32.5t-51 -110.5l-21 -102h203l-39 -205h-202l-170 -871q-35 -178 -141.5 -273t-317.5 -95q-127 0 -219 30l90 230q97 -35 168 -35q75 0 110 33t52 110l169 871h-133l39 205h133l21 102q40 197 154 283t305 86q53 0 114.5 -8.5
t104.5 -22.5z" />
    <glyph glyph-name="Ohorn" unicode="&#x1a0;" horiz-adv-x="1540" 
d="M1581 1446v-162q0 -170 -74.5 -255t-234.5 -85h-17q23 -119 23 -252q0 -361 -152.5 -541t-443.5 -180q-307 0 -451.5 189.5t-144.5 531.5q0 344 144.5 532.5t451.5 188.5q386 0 518 -297h23q86 0 116.5 40t30.5 128v162h211zM987 692q0 246 -69.5 358.5t-235.5 112.5
t-235.5 -112.5t-69.5 -358.5t70.5 -358.5t234.5 -112.5q166 0 235.5 112.5t69.5 358.5z" />
    <glyph glyph-name="ohorn" unicode="&#x1a1;" horiz-adv-x="1352" 
d="M1098 522q0 -262 -121 -407.5t-381 -145.5q-504 0 -504 553q0 266 121 411.5t383 145.5q328 0 440 -237q84 0 115 40t31 128v120h211v-120q0 -318 -306 -340q11 -77 11 -148zM831 522q0 173 -54 252.5t-181 79.5q-126 0 -182 -81.5t-56 -250.5q0 -168 55.5 -247.5
t182.5 -79.5q125 0 180 78.5t55 248.5z" />
    <glyph glyph-name="Uhorn" unicode="&#x1af;" horiz-adv-x="1622" 
d="M1288 1116h17q86 0 116.5 40t30.5 128v162h211v-162q0 -340 -346 -340h-29v-366q0 -325 -132 -467t-437 -142q-302 0 -435.5 140.5t-133.5 468.5v806h282v-786q0 -141 27 -222t86 -119t172 -38q161 0 225 85.5t64 289.5v790h282v-268z" />
    <glyph glyph-name="uhorn" unicode="&#x1b0;" horiz-adv-x="1395" 
d="M813 0v135q-68 -73 -166.5 -119.5t-189.5 -46.5q-178 0 -249 98.5t-71 280.5v701h258v-578q0 -111 13 -170t42.5 -81.5t86.5 -22.5q115 0 276 151v701h258v-207h12q84 0 113 40t29 128v120h211v-120q0 -340 -340 -340h-25v-670h-258z" />
    <glyph glyph-name="Acaron" unicode="&#x1cd;" horiz-adv-x="1337" 
d="M27 0l458 1384h367l459 -1384h-289l-92 281h-533l-90 -281h-280zM477 528h373l-186 572zM788 1544h-244l-235 361h211l145 -174l150 174h209z" />
    <glyph glyph-name="acaron" unicode="&#x1ce;" horiz-adv-x="1139" 
d="M764 0v109q-153 -140 -328 -140q-174 0 -263 91.5t-89 234.5q0 112 45.5 185t135 114.5t257.5 58.5l221 21v47q0 88 -53 120.5t-155 32.5q-84 0 -144.5 -28t-89.5 -80l-201 129q53 89 166 136.5t273 47.5q245 0 353.5 -85.5t108.5 -280.5v-713h-237zM743 487l-131 -12
q-139 -12 -200.5 -53t-61.5 -123q0 -72 40 -98.5t106 -26.5q47 0 114.5 29.5t132.5 83.5v200zM690 1208h-244l-235 361h211l145 -174l150 174h209z" />
    <glyph glyph-name="Icaron" unicode="&#x1cf;" horiz-adv-x="872" 
d="M770 0h-668v217h193v950h-193v217h668v-217h-192v-950h192v-217zM559 1544h-244l-235 361h211l145 -174l150 174h209z" />
    <glyph glyph-name="icaron" unicode="&#x1d0;" horiz-adv-x="549" 
d="M145 0v1049h258v-1049h-258zM399 1208h-244l-235 361h211l145 -174l150 174h209z" />
    <glyph glyph-name="Ocaron" unicode="&#x1d1;" horiz-adv-x="1364" 
d="M1278 692q0 -361 -152.5 -541t-443.5 -180q-307 0 -451.5 189.5t-144.5 531.5q0 344 144.5 532.5t451.5 188.5q309 0 452.5 -188.5t143.5 -532.5zM987 692q0 246 -69.5 358.5t-235.5 112.5t-235.5 -112.5t-69.5 -358.5t70.5 -358.5t234.5 -112.5q166 0 235.5 112.5
t69.5 358.5zM801 1544h-244l-235 361h211l145 -174l150 174h209z" />
    <glyph glyph-name="ocaron" unicode="&#x1d2;" horiz-adv-x="1190" 
d="M1098 522q0 -262 -121 -407.5t-381 -145.5q-504 0 -504 553q0 266 121 411.5t383 145.5q260 0 381 -145.5t121 -411.5zM831 522q0 173 -54 252.5t-181 79.5q-126 0 -182 -81.5t-56 -250.5q0 -168 55.5 -247.5t182.5 -79.5q125 0 180 78.5t55 248.5zM717 1208h-244
l-235 361h211l145 -174l150 174h209z" />
    <glyph glyph-name="Ucaron" unicode="&#x1d3;" horiz-adv-x="1438" 
d="M1288 578q0 -325 -132 -467t-437 -142q-302 0 -435.5 140.5t-133.5 468.5v806h282v-786q0 -141 27 -222t86 -119t172 -38q161 0 225 85.5t64 289.5v790h282v-806zM848 1544h-244l-235 361h211l145 -174l150 174h209z" />
    <glyph glyph-name="ucaron" unicode="&#x1d4;" horiz-adv-x="1217" 
d="M813 0v135q-68 -73 -166.5 -119.5t-189.5 -46.5q-178 0 -249 98.5t-71 280.5v701h258v-578q0 -111 13 -170t42.5 -81.5t86.5 -22.5q115 0 276 151v701h258v-1049h-258zM729 1208h-244l-235 361h211l145 -174l150 174h209z" />
    <glyph glyph-name="Udieresismacron" unicode="&#x1d5;" horiz-adv-x="1438" 
d="M1288 578q0 -325 -132 -467t-437 -142q-302 0 -435.5 140.5t-133.5 468.5v806h282v-786q0 -141 27 -222t86 -119t172 -38q161 0 225 85.5t64 289.5v790h282v-806zM1082 1640q0 -73 -36 -102t-110 -29q-82 0 -111.5 34t-29.5 97q0 70 31.5 101t109.5 31t112 -30t34 -102z
M637 1640q0 -73 -35.5 -102t-109.5 -29q-82 0 -111.5 34t-29.5 97q0 70 31.5 101t109.5 31t111.5 -30t33.5 -102zM385 1835v184h672v-184h-672z" />
    <glyph glyph-name="udieresismacron" unicode="&#x1d6;" horiz-adv-x="1217" 
d="M813 0v135q-68 -73 -166.5 -119.5t-189.5 -46.5q-178 0 -249 98.5t-71 280.5v701h258v-578q0 -111 13 -170t42.5 -81.5t86.5 -22.5q115 0 276 151v701h258v-1049h-258zM973 1305q0 -74 -36 -102.5t-110 -28.5q-82 0 -111.5 33.5t-29.5 97.5q0 69 31.5 100t109.5 31
t112 -30t34 -101zM528 1305q0 -74 -35.5 -102.5t-109.5 -28.5q-82 0 -111.5 33.5t-29.5 97.5q0 69 31.5 100t109.5 31t111.5 -30t33.5 -101zM276 1499v184h672v-184h-672z" />
    <glyph glyph-name="Udieresisacute" unicode="&#x1d7;" horiz-adv-x="1438" 
d="M1288 578q0 -325 -132 -467t-437 -142q-302 0 -435.5 140.5t-133.5 468.5v806h282v-786q0 -141 27 -222t86 -119t172 -38q161 0 225 85.5t64 289.5v790h282v-806zM1088 1640q0 -73 -36 -102t-110 -29q-82 0 -111.5 34t-29.5 97q0 70 31.5 101t109.5 31t112 -30t34 -102z
M643 1640q0 -73 -35.5 -102t-109.5 -29q-82 0 -111.5 34t-29.5 97q0 70 31.5 101t109.5 31t111.5 -30t33.5 -102zM608 1798l123 291h316l-244 -291h-195z" />
    <glyph glyph-name="udieresisacute" unicode="&#x1d8;" horiz-adv-x="1217" 
d="M813 0v135q-68 -73 -166.5 -119.5t-189.5 -46.5q-178 0 -249 98.5t-71 280.5v701h258v-578q0 -111 13 -170t42.5 -81.5t86.5 -22.5q115 0 276 151v701h258v-1049h-258zM973 1305q0 -74 -36 -102.5t-110 -28.5q-82 0 -111.5 33.5t-29.5 97.5q0 69 31.5 100t109.5 31
t112 -30t34 -101zM528 1305q0 -74 -35.5 -102.5t-109.5 -28.5q-82 0 -111.5 33.5t-29.5 97.5q0 69 31.5 100t109.5 31t111.5 -30t33.5 -101zM493 1462l123 291h316l-244 -291h-195z" />
    <glyph glyph-name="Udieresiscaron" unicode="&#x1d9;" horiz-adv-x="1438" 
d="M1288 578q0 -325 -132 -467t-437 -142q-302 0 -435.5 140.5t-133.5 468.5v806h282v-786q0 -141 27 -222t86 -119t172 -38q161 0 225 85.5t64 289.5v790h282v-806zM1090 1638q0 -73 -36 -101t-110 -28q-82 0 -111.5 33t-29.5 96q0 70 31.5 99.5t109.5 29.5t112 -28.5
t34 -100.5zM645 1638q0 -73 -35.5 -101t-109.5 -28q-82 0 -111.5 33t-29.5 96q0 70 31.5 99.5t109.5 29.5t111.5 -28.5t33.5 -100.5zM582 2089l145 -139l150 139h209l-236 -291h-244l-235 291h211z" />
    <glyph glyph-name="udieresiscaron" unicode="&#x1da;" horiz-adv-x="1217" 
d="M813 0v135q-68 -73 -166.5 -119.5t-189.5 -46.5q-178 0 -249 98.5t-71 280.5v701h258v-578q0 -111 13 -170t42.5 -81.5t86.5 -22.5q115 0 276 151v701h258v-1049h-258zM973 1303q0 -74 -36 -101.5t-110 -27.5q-82 0 -111.5 32.5t-29.5 96.5q0 69 31.5 99t109.5 30
t112 -29t34 -100zM528 1303q0 -74 -35.5 -101.5t-109.5 -27.5q-82 0 -111.5 32.5t-29.5 96.5q0 69 31.5 99t109.5 30t111.5 -29t33.5 -100zM465 1753l145 -139l150 139h209l-236 -291h-244l-235 291h211z" />
    <glyph glyph-name="Udieresisgrave" unicode="&#x1db;" horiz-adv-x="1438" 
d="M1288 578q0 -325 -132 -467t-437 -142q-302 0 -435.5 140.5t-133.5 468.5v806h282v-786q0 -141 27 -222t86 -119t172 -38q161 0 225 85.5t64 289.5v790h282v-806zM1086 1640q0 -73 -36 -102t-110 -29q-82 0 -111.5 34t-29.5 97q0 70 31.5 101t109.5 31t112 -30t34 -102z
M641 1640q0 -73 -35.5 -102t-109.5 -29q-82 0 -111.5 34t-29.5 97q0 70 31.5 101t109.5 31t111.5 -30t33.5 -102zM635 1798l-244 291h316l123 -291h-195z" />
    <glyph glyph-name="udieresisgrave" unicode="&#x1dc;" horiz-adv-x="1217" 
d="M813 0v135q-68 -73 -166.5 -119.5t-189.5 -46.5q-178 0 -249 98.5t-71 280.5v701h258v-578q0 -111 13 -170t42.5 -81.5t86.5 -22.5q115 0 276 151v701h258v-1049h-258zM973 1305q0 -74 -36 -102.5t-110 -28.5q-82 0 -111.5 33.5t-29.5 97.5q0 69 31.5 100t109.5 31
t112 -30t34 -101zM528 1305q0 -74 -35.5 -102.5t-109.5 -28.5q-82 0 -111.5 33.5t-29.5 97.5q0 69 31.5 100t109.5 31t111.5 -30t33.5 -101zM522 1462l-244 291h316l123 -291h-195z" />
    <glyph glyph-name="Aringacute" unicode="&#x1fa;" horiz-adv-x="1337" 
d="M901 1475q0 -82 -37 -127l447 -1348h-289l-92 281h-533l-90 -281h-280l448 1352q-35 43 -35 123q0 106 57.5 163.5t172.5 57.5q118 0 174.5 -58.5t56.5 -162.5zM477 528h373l-186 572zM758 1475q0 86 -88 86q-86 0 -86 -86t86 -86q88 0 88 86zM762 1749h-205l131 279h316
z" />
    <glyph glyph-name="aringacute" unicode="&#x1fb;" horiz-adv-x="1139" 
d="M764 0v109q-153 -140 -328 -140q-174 0 -263 91.5t-89 234.5q0 112 45.5 185t135 114.5t257.5 58.5l221 21v47q0 88 -53 120.5t-155 32.5q-84 0 -144.5 -28t-89.5 -80l-201 129q53 89 166 136.5t273 47.5q245 0 353.5 -85.5t108.5 -280.5v-713h-237zM743 487l-131 -12
q-139 -12 -200.5 -53t-61.5 -123q0 -72 40 -98.5t106 -26.5q47 0 114.5 29.5t132.5 83.5v200zM770 1378q0 -110 -59.5 -167.5t-172.5 -57.5q-117 0 -173 60.5t-56 164.5q0 107 57.5 166.5t171.5 59.5q119 0 175.5 -60.5t56.5 -165.5zM626 1378q0 90 -88 90q-86 0 -86 -90
t86 -90q88 0 88 90zM584 1659h-205l189 361h315z" />
    <glyph glyph-name="AEacute" unicode="&#x1fc;" horiz-adv-x="1810" 
d="M860 0v360h-409l-144 -360h-287l555 1384h1135v-249h-567v-301h469v-250h-469v-326h567v-258h-850zM860 1135h-104l-209 -527h313v527zM1063 1544h-205l189 361h315z" />
    <glyph glyph-name="aeacute" unicode="&#x1fd;" horiz-adv-x="1786" 
d="M432 -31q-170 0 -259 91.5t-89 242.5q0 157 105.5 244t332.5 106l221 21v47q0 86 -52 119.5t-148 33.5q-109 0 -162 -32.5t-80 -75.5l-201 129q53 89 164.5 136.5t276.5 47.5q254 0 356 -123q121 123 350 123q220 0 335.5 -127.5t115.5 -367.5v-127h-697q7 -140 67 -201
t196 -61q73 0 130.5 19t100.5 73l193 -137q-64 -91 -162.5 -136t-257.5 -45q-299 0 -428 168q-97 -82 -196 -125t-212 -43zM489 174q64 0 140 25.5t141 76.5q-13 40 -20 113t-7 98l-131 -12q-139 -12 -200.5 -53t-61.5 -123q0 -125 139 -125zM1442 635q0 239 -211 239
q-113 0 -160 -64.5t-63 -174.5h434zM948 1208h-205l189 361h315z" />
    <glyph glyph-name="Oslashacute" unicode="&#x1fe;" horiz-adv-x="1364" 
d="M27 -115l194 285q-135 180 -135 522q0 344 144.5 532.5t451.5 188.5q201 0 334 -84l108 160h199l-184 -270q139 -182 139 -527q0 -361 -152.5 -541t-443.5 -180q-207 0 -338 86l-117 -172h-200zM987 692q0 158 -29 262l-462 -678q67 -55 186 -55q166 0 235.5 112.5
t69.5 358.5zM377 692q0 -157 26 -256l461 674q-69 53 -182 53q-166 0 -235.5 -112.5t-69.5 -358.5zM717 1544h-205l189 361h315z" />
    <glyph glyph-name="oslashacute" unicode="&#x1ff;" horiz-adv-x="1190" 
d="M106 -76l117 176q-131 141 -131 422q0 266 121 411.5t383 145.5q141 0 246 -47l61 92h182l-118 -180q131 -145 131 -422q0 -262 -121 -407.5t-381 -145.5q-144 0 -248 45l-59 -90h-183zM358 522q0 -103 23 -184l328 493q-45 23 -113 23q-126 0 -182 -81.5t-56 -250.5z
M831 522q0 108 -22 185l-326 -492q47 -20 113 -20q125 0 180 78.5t55 248.5zM631 1208h-205l189 361h315z" />
    <glyph glyph-name="Scommaaccent" unicode="&#x218;" horiz-adv-x="1229" 
d="M1145 401q0 -208 -136.5 -319t-402.5 -111q-184 0 -319.5 61t-220.5 197l217 166q48 -68 91 -102t102 -53t136 -19q115 0 179.5 39.5t64.5 120.5q0 46 -22.5 77t-67.5 53.5t-156 51.5q-108 29 -203.5 58.5t-165 76.5t-109.5 118t-40 179q0 197 133 307.5t381 110.5
q359 0 508 -246l-215 -168q-57 88 -128 126t-169 38t-159.5 -35.5t-61.5 -111.5q0 -67 64 -102.5t223 -71.5q88 -23 174 -49.5t153.5 -73.5t108.5 -123t41 -195zM537 -563q47 55 63.5 95t20.5 79q-66 4 -95.5 42t-29.5 114q0 73 35 116t131 43q160 0 160 -180
q0 -170 -119 -309h-166z" />
    <glyph glyph-name="scommaaccent" unicode="&#x219;" horiz-adv-x="1026" 
d="M946 299q0 -104 -52.5 -178t-149 -113t-220.5 -39q-329 0 -448 183l192 135q47 -64 108.5 -85.5t131.5 -21.5q184 0 184 107q0 47 -52 72.5t-163 52.5q-209 46 -294 130t-85 218q0 139 106.5 229t313.5 90q141 0 248.5 -45t165.5 -135l-193 -137q-69 106 -225 106
q-80 0 -121 -27.5t-41 -70.5q0 -41 37 -65.5t146 -51.5q179 -44 255.5 -87.5t116 -108t39.5 -158.5zM412 -563q47 55 63.5 95t20.5 79q-66 4 -95.5 42t-29.5 114q0 73 35 116t131 43q160 0 160 -180q0 -170 -119 -309h-166z" />
    <glyph glyph-name="uni021A" unicode="&#x21a;" horiz-adv-x="1204" 
d="M743 1126v-1126h-282v1126h-426v258h1134v-258h-426zM494 -563q47 55 63.5 95t20.5 79q-66 4 -95.5 42t-29.5 114q0 73 35 116t131 43q160 0 160 -180q0 -170 -119 -309h-166z" />
    <glyph glyph-name="uni021B" unicode="&#x21b;" horiz-adv-x="739" 
d="M725 0q-104 -31 -219 -31q-182 0 -262 82t-80 266v527h-133v205h133v292h258v-292h244v-205h-244v-494q0 -98 30.5 -133t86.5 -35q71 0 141 29zM311 -563q47 55 63.5 95t20.5 79q-66 4 -95.5 42t-29.5 114q0 73 35 116t131 43q160 0 160 -180q0 -170 -119 -309h-166z" />
    <glyph glyph-name="dotlessj" unicode="&#x237;" horiz-adv-x="563" 
d="M418 -45q0 -188 -84 -269t-275 -81q-43 0 -113 9.5t-108 20.5l56 224q73 -29 151 -29t96.5 48t18.5 159v1012h258v-1094z" />
    <glyph glyph-name="uni02C0" unicode="&#x2c0;" horiz-adv-x="1018" 
d="M319 0v639q137 61 211 113t107 108t33 137q0 78 -51.5 134.5t-159.5 56.5q-90 0 -144.5 -36t-99.5 -110l-225 123q69 123 180 185.5t287 62.5q235 0 362 -106t127 -295q0 -111 -37 -195.5t-109 -153.5t-218 -147v-516h-263z" />
    <glyph glyph-name="circumflex" unicode="&#x2c6;" 
d="M668 1208l-146 174l-149 -174h-209l235 361h244l236 -361h-211z" />
    <glyph glyph-name="caron" unicode="&#x2c7;" 
d="M643 1208h-244l-235 361h211l145 -174l150 174h209z" />
    <glyph glyph-name="uni02C9" unicode="&#x2c9;" 
d="M186 1255v185h672v-185h-672z" />
    <glyph glyph-name="breve" unicode="&#x2d8;" 
d="M883 1509q0 -88 -44.5 -161.5t-127 -117.5t-189.5 -44q-106 0 -188.5 43.5t-127 117.5t-44.5 162h188q15 -47 58 -75.5t116 -28.5q68 0 112 28.5t58 75.5h189z" />
    <glyph glyph-name="dotaccent" unicode="&#x2d9;" 
d="M666 1335q0 -73 -36 -102t-110 -29q-82 0 -111.5 34t-29.5 97q0 70 31.5 100.5t109.5 30.5t112 -29.5t34 -101.5z" />
    <glyph glyph-name="ring" unicode="&#x2da;" 
d="M752 1378q0 -110 -59.5 -167.5t-172.5 -57.5q-117 0 -173 60.5t-56 164.5q0 107 57.5 166.5t171.5 59.5q119 0 175.5 -60.5t56.5 -165.5zM608 1378q0 90 -88 90q-86 0 -86 -90t86 -90q88 0 88 90z" />
    <glyph glyph-name="ogonek" unicode="&#x2db;" 
d="M834 -332q-131 -63 -240 -63q-105 0 -162 47t-57 133q0 75 50.5 134.5t137 100.5t180.5 52l91 -72q-138 -29 -196 -63.5t-58 -79.5q0 -62 59 -62q16 0 46 7.5t54 23.5z" />
    <glyph glyph-name="tilde" unicode="&#x2dc;" 
d="M113 1231q5 155 73 236t189 81q61 0 104 -22.5t77 -48t62.5 -48t61.5 -22.5q35 0 51.5 35t16.5 92h182q-10 -165 -75.5 -243.5t-188.5 -78.5q-66 0 -109 22.5t-75.5 50.5t-59.5 50.5t-60 22.5q-67 0 -67 -127h-182z" />
    <glyph glyph-name="hungarumlaut" unicode="&#x2dd;" 
d="M766 1208h-205l189 361h315zM350 1208h-205l189 361h315z" />
    <glyph glyph-name="gravecomb" unicode="&#x300;" horiz-adv-x="0" 
d="M-29 1208l-299 361h316l188 -361h-205z" />
    <glyph glyph-name="acutecomb" unicode="&#x301;" horiz-adv-x="0" 
d="M31 1208h-205l188 361h316z" />
    <glyph glyph-name="uni0302" unicode="&#x302;" horiz-adv-x="0" 
d="M145 1208l-145 174l-150 -174h-208l235 361h244l235 -361h-211z" />
    <glyph glyph-name="tildecomb" unicode="&#x303;" horiz-adv-x="0" 
d="M-410 1231q5 152 73 234.5t190 82.5q61 0 104 -22.5t77 -48t62.5 -48t61.5 -22.5q67 0 67 127h183q-13 -171 -79 -246.5t-186 -75.5q-65 0 -108 22.5t-76 50.5t-59.5 50.5t-59.5 22.5q-67 0 -67 -127h-183z" />
    <glyph glyph-name="uni0304" unicode="&#x304;" horiz-adv-x="0" 
d="M-336 1255v185h672v-185h-672z" />
    <glyph glyph-name="uni0306" unicode="&#x306;" horiz-adv-x="0" 
d="M360 1530q0 -89 -45 -163t-127.5 -117.5t-187.5 -43.5t-188 44t-127.5 118t-44.5 162h188q14 -47 57 -76t117 -29q68 0 112 29t58 76h188z" />
    <glyph glyph-name="uni0307" unicode="&#x307;" horiz-adv-x="0" 
d="M143 1335q0 -73 -35.5 -102t-109.5 -29q-82 0 -111.5 34t-29.5 97q0 70 31.5 100.5t109.5 30.5t111.5 -29.5t33.5 -101.5z" />
    <glyph glyph-name="uni0308" unicode="&#x308;" horiz-adv-x="0" 
d="M367 1335q0 -73 -36 -102t-110 -29q-82 0 -111.5 34t-29.5 97q0 70 31.5 100.5t109.5 30.5t112 -29.5t34 -101.5zM-80 1335q0 -73 -36 -102t-109 -29q-82 0 -112 34t-30 97q0 70 32 100.5t110 30.5t111.5 -29.5t33.5 -101.5z" />
    <glyph glyph-name="hookabovecomb" unicode="&#x309;" horiz-adv-x="0" 
d="M-207 1487q70 53 197 53q104 0 160.5 -46t56.5 -120q0 -69 -47 -116.5t-127 -53.5v-43h-127v137h43q74 0 74 60q0 51 -76 51q-57 0 -97 -25z" />
    <glyph glyph-name="uni030A" unicode="&#x30a;" horiz-adv-x="0" 
d="M213 1366q0 -104 -54.5 -158.5t-160.5 -54.5q-111 0 -162 57.5t-51 155.5q0 100 52 156.5t161 56.5q113 0 164 -57.5t51 -155.5zM86 1366q0 90 -88 90q-86 0 -86 -90t86 -90q88 0 88 90z" />
    <glyph glyph-name="uni030C" unicode="&#x30c;" horiz-adv-x="0" 
d="M121 1208h-244l-235 361h211l145 -174l149 174h209z" />
    <glyph glyph-name="dotbelowcomb" unicode="&#x323;" 
d="M666 -248q0 -74 -36 -102.5t-110 -28.5q-82 0 -111.5 34t-29.5 97q0 70 31.5 100.5t109.5 30.5t112 -29.5t34 -101.5z" />
    <glyph glyph-name="uni0374" unicode="&#x374;" horiz-adv-x="438" 
d="M231 1128h-159l55 361h270z" />
    <glyph glyph-name="uni0375" unicode="&#x375;" horiz-adv-x="438" 
d="M223 129h160l-55 -360h-271z" />
    <glyph glyph-name="uni037E" unicode="&#x37e;" horiz-adv-x="584" 
d="M455 889q0 -86 -39 -123t-125 -37q-94 0 -128 41t-34 119q0 82 36 121t126 39q92 0 128 -38t36 -122zM455 125q0 -123 -42 -234.5t-91 -183.5h-177q41 69 72.5 151t36.5 132q-66 4 -95.5 42t-29.5 113q0 74 35 117t131 43q160 0 160 -180z" />
    <glyph glyph-name="tonos" unicode="&#x384;" horiz-adv-x="504" 
d="M205 1208h-205l188 361h316z" />
    <glyph glyph-name="dieresistonos" unicode="&#x385;" horiz-adv-x="0" 
d="M1110 1333q0 -71 -35 -100t-104 -29q-78 0 -107.5 35t-29.5 94q0 68 32.5 100.5t104.5 32.5q73 0 106 -31.5t33 -101.5zM426 1333q0 -71 -35 -100t-104 -29q-78 0 -106.5 35t-28.5 94q0 68 31.5 100.5t103.5 32.5q73 0 106 -31.5t33 -101.5zM868 1569l-213 -361h-184
l123 361h274z" />
    <glyph glyph-name="Alphatonos" unicode="&#x386;" horiz-adv-x="1382" 
d="M72 0l458 1384h367l459 -1384h-289l-92 281h-533l-90 -281h-280zM522 528h373l-186 572zM400 1384l-213 -360h-185l123 360h275z" />
    <glyph glyph-name="anoteleia" unicode="&#x387;" horiz-adv-x="584" 
d="M455 743q0 -86 -39 -122.5t-125 -36.5q-94 0 -128 41t-34 118q0 82 36 121t126 39q92 0 128 -38t36 -122z" />
    <glyph glyph-name="Epsilontonos" unicode="&#x388;" horiz-adv-x="1438" 
d="M439 0v1384h899v-249h-617v-295h520v-250h-520v-332h617v-258h-899zM400 1384l-213 -360h-185l123 360h275z" />
    <glyph glyph-name="Etatonos" unicode="&#x389;" horiz-adv-x="1698" 
d="M1266 0v588h-545v-588h-282v1384h282v-538h545v538h283v-1384h-283zM400 1384l-213 -360h-185l123 360h275z" />
    <glyph glyph-name="Iotatonos" unicode="&#x38a;" horiz-adv-x="1210" 
d="M1108 0h-668v217h193v950h-193v217h668v-217h-192v-950h192v-217zM400 1384l-213 -360h-185l123 360h275z" />
    <glyph glyph-name="Omicrontonos" unicode="&#x38c;" horiz-adv-x="1614" 
d="M1528 692q0 -361 -152.5 -541t-443.5 -180q-307 0 -451.5 189.5t-144.5 531.5q0 344 144.5 532.5t451.5 188.5q309 0 452.5 -188.5t143.5 -532.5zM1237 692q0 246 -69.5 358.5t-235.5 112.5t-235.5 -112.5t-69.5 -358.5t70.5 -358.5t234.5 -112.5q166 0 235.5 112.5
t69.5 358.5zM400 1384l-213 -360h-185l123 360h275z" />
    <glyph glyph-name="Upsilontonos" unicode="&#x38e;" horiz-adv-x="1599" 
d="M1147 528v-528h-284v522l-433 862h308l270 -579l276 579h297zM400 1384l-213 -360h-185l123 360h275z" />
    <glyph glyph-name="Omegatonos" unicode="&#x38f;" horiz-adv-x="1751" 
d="M932 1413q289 0 444.5 -157.5t155.5 -448.5q0 -204 -58 -333t-194 -193v-31h242v-250h-490v401q107 16 156 115t49 291q0 168 -75.5 262t-229.5 94q-149 0 -227 -89t-78 -265q0 -139 18.5 -220.5t58.5 -125t128 -62.5v-401h-486v250h248v31q-102 35 -155 94t-78 162
t-25 270q0 182 69.5 319.5t202 212t324.5 74.5zM400 1384l-213 -360h-185l123 360h275z" />
    <glyph glyph-name="iotadieresistonos" unicode="&#x390;" horiz-adv-x="682" 
d="M668 0q-105 -31 -224 -31q-161 0 -234 77.5t-73 264.5v738h258v-711q0 -90 20.5 -126t82.5 -36q64 0 110 19zM768 1333q0 -71 -35 -100t-104 -29q-78 0 -107.5 35t-29.5 94q0 68 32.5 100.5t104.5 32.5q73 0 106 -31.5t33 -101.5zM84 1333q0 -71 -35 -100t-104 -29
q-78 0 -106.5 35t-28.5 94q0 68 31.5 100.5t103.5 32.5q73 0 106 -31.5t33 -101.5zM526 1569l-213 -361h-184l123 361h274z" />
    <glyph glyph-name="Alpha" unicode="&#x391;" horiz-adv-x="1337" 
d="M27 0l458 1384h367l459 -1384h-289l-92 281h-533l-90 -281h-280zM477 528h373l-186 572z" />
    <glyph glyph-name="Beta" unicode="&#x392;" horiz-adv-x="1298" 
d="M1210 401q0 -208 -143 -304.5t-397 -96.5h-520v1384h489q266 0 381 -77.5t115 -245.5q0 -129 -62.5 -209t-195.5 -107q174 -24 253.5 -110t79.5 -234zM850 999q0 79 -58 109.5t-180 30.5h-180v-297h172q125 0 185.5 35t60.5 122zM922 426q0 93 -63 131.5t-236 38.5h-191
v-346h143q165 0 227.5 16t91 54t28.5 106z" />
    <glyph glyph-name="Gamma" unicode="&#x393;" horiz-adv-x="1065" 
d="M410 1149v-1149h-283v1384h897v-235h-614z" />
    <glyph glyph-name="uni0394" unicode="&#x394;" horiz-adv-x="1284" 
d="M1257 0h-1230v115l222 635q141 406 224 634h344l440 -1269v-115zM924 236l-260 763q-13 37 -18 68t-9 41h-8q-14 -72 -25 -104l-264 -768h584z" />
    <glyph glyph-name="Epsilon" unicode="&#x395;" horiz-adv-x="1149" 
d="M150 0v1384h899v-249h-617v-295h520v-250h-520v-332h617v-258h-899z" />
    <glyph glyph-name="Zeta" unicode="&#x396;" horiz-adv-x="1147" 
d="M72 0v238l635 888h-605v258h942v-227l-641 -899h658v-258h-989z" />
    <glyph glyph-name="Eta" unicode="&#x397;" horiz-adv-x="1409" 
d="M977 0v588h-545v-588h-282v1384h282v-538h545v538h283v-1384h-283z" />
    <glyph glyph-name="Theta" unicode="&#x398;" horiz-adv-x="1448" 
d="M1362 692q0 -368 -157 -544.5t-480 -176.5q-322 0 -480.5 176.5t-158.5 544.5t156 544.5t483 176.5q326 0 481.5 -177.5t155.5 -543.5zM1065 692q0 248 -77 370t-263 122q-188 0 -266 -123t-78 -369t78 -368.5t266 -122.5q186 0 263 122.5t77 368.5zM473 582v223h502
v-223h-502z" />
    <glyph glyph-name="Iota" unicode="&#x399;" horiz-adv-x="872" 
d="M770 0h-668v217h193v950h-193v217h668v-217h-192v-950h192v-217z" />
    <glyph glyph-name="Kappa" unicode="&#x39a;" horiz-adv-x="1280" 
d="M899 0l-383 578l-84 -97v-481h-282v1384h282v-540l453 540h329l-516 -596l553 -788h-352z" />
    <glyph glyph-name="Lambda" unicode="&#x39b;" horiz-adv-x="1272" 
d="M27 0l469 1384h286l463 -1384h-291l-323 1024l-330 -1024h-274z" />
    <glyph glyph-name="Mu" unicode="&#x39c;" horiz-adv-x="1667" 
d="M1245 0v930l-332 -578h-163l-328 578v-930h-272v1384h325l361 -657l364 657h318v-1384h-273z" />
    <glyph glyph-name="Nu" unicode="&#x39d;" horiz-adv-x="1411" 
d="M930 0l-504 989v-989h-276v1384h366l469 -933v933h277v-1384h-332z" />
    <glyph glyph-name="Xi" unicode="&#x39e;" horiz-adv-x="1096" 
d="M100 1135v249h895v-249h-895zM160 590v250h776v-250h-776zM100 0v258h895v-258h-895z" />
    <glyph glyph-name="Omicron" unicode="&#x39f;" horiz-adv-x="1364" 
d="M1278 692q0 -361 -152.5 -541t-443.5 -180q-307 0 -451.5 189.5t-144.5 531.5q0 344 144.5 532.5t451.5 188.5q309 0 452.5 -188.5t143.5 -532.5zM987 692q0 246 -69.5 358.5t-235.5 112.5t-235.5 -112.5t-69.5 -358.5t70.5 -358.5t234.5 -112.5q166 0 235.5 112.5
t69.5 358.5z" />
    <glyph glyph-name="Pi" unicode="&#x3a0;" horiz-adv-x="1417" 
d="M150 0v1384h1118v-1384h-289v1143h-541v-1143h-288z" />
    <glyph glyph-name="Rho" unicode="&#x3a1;" horiz-adv-x="1239" 
d="M1161 920q0 -250 -117.5 -371t-381.5 -121h-230v-428h-282v1384h520q235 0 363 -109.5t128 -354.5zM870 918q0 117 -64.5 169t-232.5 52h-141v-465h115q155 0 214.5 21.5t84 72.5t24.5 150z" />
    <glyph glyph-name="Sigma" unicode="&#x3a3;" horiz-adv-x="1169" 
d="M72 0v211l452 491l-452 478v204h977v-227h-603l347 -366v-175l-363 -389h655v-227h-1013z" />
    <glyph glyph-name="Tau" unicode="&#x3a4;" horiz-adv-x="1204" 
d="M743 1126v-1126h-282v1126h-426v258h1134v-258h-426z" />
    <glyph glyph-name="Upsilon" unicode="&#x3a5;" horiz-adv-x="1188" 
d="M735 528v-528h-284v522l-433 862h308l270 -579l276 579h297z" />
    <glyph glyph-name="Phi" unicode="&#x3a6;" horiz-adv-x="1489" 
d="M885 -78h-279v182q-262 32 -391 177.5t-129 408.5q0 270 132.5 413t387.5 171v188h279v-188q518 -64 518 -584q0 -522 -518 -586v-182zM1110 690q0 166 -55.5 250t-169.5 111v-717q114 26 169.5 110t55.5 246zM381 690q0 -162 56.5 -246t168.5 -110v717
q-112 -27 -168.5 -111t-56.5 -250z" />
    <glyph glyph-name="Chi" unicode="&#x3a7;" horiz-adv-x="1286" 
d="M29 0l463 694l-451 690h321l287 -466l297 466h311l-454 -684l452 -700h-317l-297 477l-301 -477h-311z" />
    <glyph glyph-name="Psi" unicode="&#x3a8;" horiz-adv-x="1487" 
d="M1384 795q0 -252 -121 -385t-378 -160v-275h-283v275q-259 27 -379.5 161t-120.5 384v589h283v-571q0 -149 62 -231t147 -82h8v884h283v-886h7q57 0 104.5 38.5t77.5 111.5t30 161v575h280v-589z" />
    <glyph glyph-name="uni03A9" unicode="&#x3a9;" horiz-adv-x="1368" 
d="M682 1413q289 0 444.5 -157.5t155.5 -448.5q0 -204 -58 -333t-194 -193v-31h242v-250h-490v401q107 16 156 115t49 291q0 168 -75.5 262t-229.5 94q-149 0 -227 -89t-78 -265q0 -139 18.5 -220.5t58.5 -125t128 -62.5v-401h-486v250h248v31q-102 35 -155 94t-78 162
t-25 270q0 182 69.5 319.5t202 212t324.5 74.5z" />
    <glyph glyph-name="Iotadieresis" unicode="&#x3aa;" horiz-adv-x="872" 
d="M770 0h-668v217h193v950h-193v217h668v-217h-192v-950h192v-217zM805 1671q0 -73 -36 -102t-110 -29q-82 0 -111.5 34t-29.5 97q0 70 31.5 100.5t109.5 30.5t112 -29.5t34 -101.5zM360 1671q0 -73 -35.5 -102t-109.5 -29q-82 0 -111.5 34t-29.5 97q0 70 31.5 100.5
t109.5 30.5t111.5 -29.5t33.5 -101.5z" />
    <glyph glyph-name="Upsilondieresis" unicode="&#x3ab;" horiz-adv-x="1188" 
d="M735 528v-528h-284v522l-433 862h308l270 -579l276 579h297zM957 1671q0 -73 -36 -102t-110 -29q-82 0 -111.5 34t-29.5 97q0 70 31.5 100.5t109.5 30.5t112 -29.5t34 -101.5zM512 1671q0 -73 -35.5 -102t-109.5 -29q-82 0 -111.5 34t-29.5 97q0 70 31.5 100.5
t109.5 30.5t111.5 -29.5t33.5 -101.5z" />
    <glyph glyph-name="alphatonos" unicode="&#x3ac;" horiz-adv-x="1327" 
d="M1317 0q-87 -31 -203 -31q-137 0 -195.5 59.5t-70.5 182.5q-92 -242 -316 -242q-219 0 -329.5 144.5t-110.5 408.5q0 263 122.5 410t346.5 147q176 0 301 -118l17 88h258q-46 -213 -59 -304t-13 -170v-237q0 -96 22.5 -129t79.5 -33q52 0 90 19zM555 180q115 0 192.5 154
t94.5 418q-51 59 -117 90.5t-123 31.5q-123 0 -182.5 -87.5t-59.5 -270.5q0 -167 49.5 -251.5t145.5 -84.5zM723 1208h-205l188 361h316z" />
    <glyph glyph-name="epsilontonos" unicode="&#x3ad;" horiz-adv-x="1063" 
d="M1022 150q-59 -89 -164.5 -135t-271.5 -46q-241 0 -367.5 85.5t-126.5 244.5q0 70 44 134t106 89q-62 23 -106 78t-44 141q0 160 132.5 249t371.5 89q301 0 412 -180l-181 -125q-41 55 -92 82t-137 27q-112 0 -175 -36t-63 -108q0 -71 54.5 -89.5t171.5 -18.5h223v-189
h-234q-122 0 -168.5 -31.5t-46.5 -103.5q0 -64 60.5 -101.5t161.5 -37.5q96 0 161.5 22.5t110.5 79.5zM641 1208h-205l188 361h316z" />
    <glyph glyph-name="etatonos" unicode="&#x3ae;" horiz-adv-x="1227" 
d="M1090 -389h-259v1007q0 132 -29.5 185t-117.5 53q-57 0 -133 -39t-148 -94v-723h-258v1049h244v-125q193 155 369 155q168 0 250 -92t82 -291v-1085zM672 1208h-205l188 361h316z" />
    <glyph glyph-name="iotatonos" unicode="&#x3af;" horiz-adv-x="682" 
d="M668 0q-105 -31 -224 -31q-161 0 -234 77.5t-73 264.5v738h258v-711q0 -90 20.5 -126t82.5 -36q64 0 110 19zM309 1208h-205l188 361h316z" />
    <glyph glyph-name="upsilondieresistonos" unicode="&#x3b0;" horiz-adv-x="1212" 
d="M137 1049h258v-678q0 -93 58.5 -144t150.5 -51q118 0 179 90.5t61 270.5q0 147 -28 283t-50 229h254q33 -80 62.5 -226.5t29.5 -265.5q0 -296 -122.5 -442t-391.5 -146q-233 0 -347 102t-114 294v684zM1081 1333q0 -71 -35 -100t-104 -29q-78 0 -107.5 35t-29.5 94
q0 68 32.5 100.5t104.5 32.5q73 0 106 -31.5t33 -101.5zM397 1333q0 -71 -35 -100t-104 -29q-78 0 -106.5 35t-28.5 94q0 68 31.5 100.5t103.5 32.5q73 0 106 -31.5t33 -101.5zM839 1569l-213 -361h-184l123 361h274z" />
    <glyph glyph-name="alpha" unicode="&#x3b1;" horiz-adv-x="1327" 
d="M1317 0q-87 -31 -203 -31q-137 0 -195.5 59.5t-70.5 182.5q-92 -242 -316 -242q-219 0 -329.5 144.5t-110.5 408.5q0 263 122.5 410t346.5 147q176 0 301 -118l17 88h258q-46 -213 -59 -304t-13 -170v-237q0 -96 22.5 -129t79.5 -33q52 0 90 19zM555 180q115 0 192.5 154
t94.5 418q-51 59 -117 90.5t-123 31.5q-123 0 -182.5 -87.5t-59.5 -270.5q0 -167 49.5 -251.5t145.5 -84.5z" />
    <glyph glyph-name="beta" unicode="&#x3b2;" horiz-adv-x="1249" 
d="M1149 467q0 -243 -116 -370.5t-328 -127.5q-95 0 -174.5 20.5t-127.5 47.5v-420h-258v1407q0 260 117.5 378t347.5 118q200 0 316 -88.5t116 -251.5q0 -254 -270 -310q178 -24 277.5 -133.5t99.5 -269.5zM403 244q116 -68 263 -68q104 0 160.5 71.5t56.5 213.5
q0 141 -81 210.5t-265 69.5v205q116 0 179.5 52.5t63.5 154.5q0 66 -44 116t-136 50q-75 0 -118 -25.5t-61 -82.5t-18 -179v-788z" />
    <glyph glyph-name="gamma" unicode="&#x3b3;" horiz-adv-x="1155" 
d="M311 1049l264 -756q41 76 87.5 162t84 179t62.5 189.5t25 190.5v35h258v-45q0 -189 -109.5 -440.5t-308.5 -506.5v-446h-256v446l-381 992h274z" />
    <glyph glyph-name="delta" unicode="&#x3b4;" horiz-adv-x="1266" 
d="M950 1206q-82 47 -173 84t-179 37q-45 0 -61.5 -18.5t-16.5 -38.5q0 -38 16 -61t52.5 -52.5t101.5 -62.5q185 -100 287 -186t149.5 -182.5t47.5 -233.5q0 -242 -147 -382.5t-396 -140.5q-166 0 -288.5 61t-186.5 173t-64 260q0 345 369 498q-94 63 -145.5 131.5
t-51.5 160.5q0 127 81 197t249 70q123 0 251.5 -32.5t203.5 -78.5zM905 487q0 138 -74.5 228t-189.5 145q-80 -27 -144.5 -84t-100.5 -137.5t-36 -175.5q0 -136 75 -211.5t210 -75.5q115 0 187.5 80t72.5 231z" />
    <glyph glyph-name="epsilon" unicode="&#x3b5;" horiz-adv-x="1063" 
d="M1022 150q-59 -89 -164.5 -135t-271.5 -46q-241 0 -367.5 85.5t-126.5 244.5q0 70 44 134t106 89q-62 23 -106 78t-44 141q0 160 132.5 249t371.5 89q301 0 412 -180l-181 -125q-41 55 -92 82t-137 27q-112 0 -175 -36t-63 -108q0 -71 54.5 -89.5t171.5 -18.5h223v-189
h-234q-122 0 -168.5 -31.5t-46.5 -103.5q0 -64 60.5 -101.5t161.5 -37.5q96 0 161.5 22.5t110.5 79.5z" />
    <glyph glyph-name="zeta" unicode="&#x3b6;" horiz-adv-x="971" 
d="M143 1489h758v-158q-140 -85 -264 -230t-196 -311.5t-72 -316.5q0 -88 28.5 -143t80 -88.5t165.5 -59.5q118 -25 178 -59.5t89.5 -89.5t29.5 -142q0 -48 -26.5 -132t-57.5 -154h-250q49 118 64.5 172.5t15.5 89.5q0 31 -17 51t-47 33.5t-102 25.5q-67 15 -142 35.5
t-136.5 70.5t-101.5 138t-40 238q0 145 56 301t162 298t255 238h-430v193z" />
    <glyph glyph-name="eta" unicode="&#x3b7;" horiz-adv-x="1227" 
d="M1090 -389h-259v1007q0 132 -29.5 185t-117.5 53q-57 0 -133 -39t-148 -94v-723h-258v1049h244v-125q193 155 369 155q168 0 250 -92t82 -291v-1085z" />
    <glyph glyph-name="theta" unicode="&#x3b8;" horiz-adv-x="1231" 
d="M858 860q-4 189 -29 275t-76 131t-137 45t-138 -43t-76.5 -130.5t-28.5 -277.5h485zM616 1520q186 0 296 -78.5t160 -227t50 -466.5q0 -313 -50.5 -465.5t-160 -233t-295.5 -80.5q-187 0 -296 80t-160 232t-51 467q0 317 50 465t159 227.5t298 79.5zM373 672
q0 -210 23.5 -305.5t74.5 -143t141 -47.5q92 0 144.5 47t77 140.5t24.5 308.5h-485z" />
    <glyph glyph-name="iota" unicode="&#x3b9;" horiz-adv-x="682" 
d="M668 0q-105 -31 -224 -31q-161 0 -234 77.5t-73 264.5v738h258v-711q0 -90 20.5 -126t82.5 -36q64 0 110 19z" />
    <glyph glyph-name="kappa" unicode="&#x3ba;" horiz-adv-x="1137" 
d="M1112 0h-295l-317 440l-97 -96v-344h-258v1049h258v-402l371 402h293l-416 -443z" />
    <glyph glyph-name="lambda" unicode="&#x3bb;" horiz-adv-x="1196" 
d="M1040 178q38 0 80 17l62 -195q-121 -31 -195 -31q-76 0 -122.5 23t-83 79t-60.5 144l-141 528l-281 -743h-264l452 1049q-47 150 -66.5 187t-43 55t-60.5 18q-28 0 -70 -11.5t-77 -27.5l-59 188q130 62 245 62q113 0 193 -59.5t123 -198.5l276 -926q33 -102 51.5 -130
t40.5 -28z" />
    <glyph glyph-name="uni03BC" unicode="&#x3bc;" horiz-adv-x="1202" 
d="M1069 0h-238l-4 111q-49 -70 -104 -106t-133 -36q-62 0 -109 17.5t-92 52.5v-434h-258v1444h258v-750q29 -39 83 -69.5t114 -30.5q131 0 227 120v730h256v-1049z" />
    <glyph glyph-name="nu" unicode="&#x3bd;" horiz-adv-x="1155" 
d="M311 1049l275 -777q152 273 200 421t48 288v68h258v-62q0 -210 -123 -481.5t-318 -505.5h-219l-395 1049h274z" />
    <glyph glyph-name="xi" unicode="&#x3be;" horiz-adv-x="987" 
d="M119 1300v189h755v-193h-90q-188 0 -268 -51t-80 -178q0 -81 52.5 -130.5t136.5 -49.5h223v-193h-242q-104 0 -170.5 -72.5t-66.5 -181.5q0 -70 26 -117.5t71.5 -78.5t168.5 -64q140 -34 197 -68t86.5 -86.5t29.5 -134.5q0 -92 -80 -286h-243q75 191 75 262
q0 32 -14.5 52.5t-42.5 35.5t-127 41q-67 18 -141 41.5t-135.5 70t-100.5 122t-39 198.5q0 122 70 220.5t195 142.5q-91 34 -143 108t-52 166q0 78 43 143.5t115 91.5h-209z" />
    <glyph glyph-name="omicron" unicode="&#x3bf;" horiz-adv-x="1190" 
d="M1098 522q0 -262 -121 -407.5t-381 -145.5q-504 0 -504 553q0 266 121 411.5t383 145.5q260 0 381 -145.5t121 -411.5zM831 522q0 173 -54 252.5t-181 79.5q-126 0 -182 -81.5t-56 -250.5q0 -168 55.5 -247.5t182.5 -79.5q125 0 180 78.5t55 248.5z" />
    <glyph glyph-name="pi" unicode="&#x3c0;" horiz-adv-x="1419" 
d="M1346 20q-33 -16 -89.5 -27t-115.5 -11q-135 0 -213 80.5t-78 252.5v541h-283v-555q0 -92 -5 -163.5t-25 -137.5h-287q57 187 57 313v539q-138 -23 -217 -64l-76 181q56 28 150 54t203 26h983v-193h-242v-514q0 -92 30.5 -127t84.5 -35q41 0 75 15z" />
    <glyph glyph-name="rho" unicode="&#x3c1;" horiz-adv-x="1251" 
d="M129 -389v924q0 262 126 403t392 141q252 0 382 -144t130 -392q0 -265 -126.5 -419.5t-332.5 -154.5q-176 0 -313 109v-467h-258zM387 291q135 -111 266 -111q113 0 175.5 79t62.5 267q0 177 -59.5 262.5t-184.5 85.5q-260 0 -260 -319v-264z" />
    <glyph glyph-name="sigma1" unicode="&#x3c2;" horiz-adv-x="1057" 
d="M819 762q-77 112 -198 112q-140 0 -200.5 -90t-60.5 -262q0 -92 26 -150.5t67 -95t92 -56t104 -36.5q136 -42 186.5 -77t78.5 -86t28 -127q0 -89 -80 -283h-254q80 187 80 260q0 42 -28 68t-132 57q-69 20 -146 49t-141.5 85t-106.5 149.5t-42 242.5q0 275 132 416
t394 141q284 0 394 -180z" />
    <glyph glyph-name="sigma" unicode="&#x3c3;" horiz-adv-x="1311" 
d="M1260 1049v-191h-271q158 -162 158 -383q0 -151 -62.5 -266.5t-180.5 -177.5t-279 -62q-251 0 -392 137.5t-141 385.5q0 290 135.5 423.5t425.5 133.5h607zM621 858q-94 0 -151.5 -38.5t-83.5 -115t-26 -219.5q0 -135 64.5 -222t204.5 -87q124 0 187 85.5t63 248.5
q0 100 -27 191.5t-84 156.5h-147z" />
    <glyph glyph-name="tau" unicode="&#x3c4;" horiz-adv-x="1075" 
d="M1024 858h-356v-520q0 -90 30.5 -124t83.5 -34q43 0 78 15l47 -175q-35 -16 -93 -27t-114 -11q-135 0 -212.5 80.5t-77.5 248.5v547h-78q-92 0 -160 -23.5t-102 -39.5l-74 178q144 76 348 76h680v-191z" />
    <glyph glyph-name="upsilon" unicode="&#x3c5;" horiz-adv-x="1212" 
d="M137 1049h258v-678q0 -93 58.5 -144t150.5 -51q118 0 179 90.5t61 270.5q0 147 -28 283t-50 229h254q33 -80 62.5 -226.5t29.5 -265.5q0 -296 -122.5 -442t-391.5 -146q-233 0 -347 102t-114 294v684z" />
    <glyph glyph-name="phi" unicode="&#x3c6;" horiz-adv-x="1434" 
d="M594 -391v368q-244 26 -373 164.5t-129 382.5q0 496 502 551v414h246v-414q252 -29 376.5 -170.5t124.5 -380.5q0 -240 -126 -380t-375 -167v-368h-246zM360 524q0 -149 50.5 -238t183.5 -118v719q-133 -29 -183.5 -119t-50.5 -244zM1075 524q0 146 -52 239t-183 122
v-717q131 29 183 119t52 237z" />
    <glyph glyph-name="chi" unicode="&#x3c7;" horiz-adv-x="1202" 
d="M461 379l-148 330q-34 75 -60 118t-79 43q-35 0 -84 -16l-55 176q117 49 207 49q84 0 147.5 -46t110.5 -161l114 -262l207 439h279l-379 -682l176 -398q35 -71 60.5 -105t74.5 -34q31 0 84 16l55 -184q-121 -51 -204 -51q-68 0 -115 25.5t-89 85t-86 159t-108 246.5
l-256 -516h-276z" />
    <glyph glyph-name="psi" unicode="&#x3c8;" horiz-adv-x="1532" 
d="M899 1475v-1291q142 34 207 125t65 230q0 166 -29.5 294t-58.5 216h258q33 -74 66 -225t33 -265q0 -256 -134 -404t-407 -178v-368h-252v366q-510 40 -510 435v639h258v-592q0 -116 61 -185.5t191 -89.5v1293h252z" />
    <glyph glyph-name="omega" unicode="&#x3c9;" horiz-adv-x="1718" 
d="M1423 1063q98 -147 150.5 -316.5t52.5 -322.5q0 -226 -111.5 -340.5t-322.5 -114.5q-115 0 -202 52.5t-128 154.5q-41 -102 -131 -154.5t-205 -52.5q-214 0 -324 116.5t-110 338.5q0 166 59.5 344.5t143.5 294.5l244 -45q-179 -314 -179 -572q0 -131 46.5 -200.5
t130.5 -69.5t138 86t54 281v291h260v-291q0 -195 54.5 -281t138.5 -86t130 69.5t46 200.5q0 260 -178 572z" />
    <glyph glyph-name="iotadieresis" unicode="&#x3ca;" horiz-adv-x="682" 
d="M668 0q-105 -31 -224 -31q-161 0 -234 77.5t-73 264.5v738h258v-711q0 -90 20.5 -126t82.5 -36q64 0 110 19zM641 1335q0 -73 -36 -102t-110 -29q-82 0 -111.5 34t-29.5 97q0 70 31.5 100.5t109.5 30.5t112 -29.5t34 -101.5zM196 1335q0 -73 -35.5 -102t-109.5 -29
q-82 0 -111.5 34t-29.5 97q0 70 31.5 100.5t109.5 30.5t111.5 -29.5t33.5 -101.5z" />
    <glyph glyph-name="upsilondieresis" unicode="&#x3cb;" horiz-adv-x="1212" 
d="M137 1049h258v-678q0 -93 58.5 -144t150.5 -51q118 0 179 90.5t61 270.5q0 147 -28 283t-50 229h254q33 -80 62.5 -226.5t29.5 -265.5q0 -296 -122.5 -442t-391.5 -146q-233 0 -347 102t-114 294v684zM953 1335q0 -73 -36 -102t-110 -29q-82 0 -111.5 34t-29.5 97
q0 70 31.5 100.5t109.5 30.5t112 -29.5t34 -101.5zM508 1335q0 -73 -35.5 -102t-109.5 -29q-82 0 -111.5 34t-29.5 97q0 70 31.5 100.5t109.5 30.5t111.5 -29.5t33.5 -101.5z" />
    <glyph glyph-name="omicrontonos" unicode="&#x3cc;" horiz-adv-x="1190" 
d="M1098 522q0 -262 -121 -407.5t-381 -145.5q-504 0 -504 553q0 266 121 411.5t383 145.5q260 0 381 -145.5t121 -411.5zM831 522q0 173 -54 252.5t-181 79.5q-126 0 -182 -81.5t-56 -250.5q0 -168 55.5 -247.5t182.5 -79.5q125 0 180 78.5t55 248.5zM682 1208h-205
l188 361h316z" />
    <glyph glyph-name="upsilontonos" unicode="&#x3cd;" horiz-adv-x="1212" 
d="M137 1049h258v-678q0 -93 58.5 -144t150.5 -51q118 0 179 90.5t61 270.5q0 147 -28 283t-50 229h254q33 -80 62.5 -226.5t29.5 -265.5q0 -296 -122.5 -442t-391.5 -146q-233 0 -347 102t-114 294v684zM623 1208h-205l188 361h316z" />
    <glyph glyph-name="omegatonos" unicode="&#x3ce;" horiz-adv-x="1718" 
d="M1423 1063q98 -147 150.5 -316.5t52.5 -322.5q0 -226 -111.5 -340.5t-322.5 -114.5q-115 0 -202 52.5t-128 154.5q-41 -102 -131 -154.5t-205 -52.5q-214 0 -324 116.5t-110 338.5q0 166 59.5 344.5t143.5 294.5l244 -45q-179 -314 -179 -572q0 -131 46.5 -200.5
t130.5 -69.5t138 86t54 281v291h260v-291q0 -195 54.5 -281t138.5 -86t130 69.5t46 200.5q0 260 -178 572zM932 1208h-205l188 361h316z" />
    <glyph glyph-name="uni0400" unicode="&#x400;" horiz-adv-x="1149" 
d="M150 0v1384h899v-249h-617v-295h520v-250h-520v-332h617v-258h-899zM566 1544l-299 361h315l188 -361h-204z" />
    <glyph glyph-name="uni0401" unicode="&#x401;" horiz-adv-x="1149" 
d="M150 0v1384h899v-249h-617v-295h520v-250h-520v-332h617v-258h-899zM959 1671q0 -73 -36 -102t-110 -29q-82 0 -111.5 34t-29.5 97q0 70 31.5 100.5t109.5 30.5t112 -29.5t34 -101.5zM514 1671q0 -73 -35.5 -102t-109.5 -29q-82 0 -111.5 34t-29.5 97q0 70 31.5 100.5
t109.5 30.5t111.5 -29.5t33.5 -101.5z" />
    <glyph glyph-name="uni0402" unicode="&#x402;" horiz-adv-x="1389" 
d="M795 1151h-248v-307h172q307 0 455.5 -102t148.5 -310q0 -157 -62 -250.5t-190.5 -137.5t-355.5 -44v233q166 0 238.5 42t72.5 163q0 98 -65.5 137t-212.5 39h-201v-614h-283v1151h-239v233h770v-233z" />
    <glyph glyph-name="uni0403" unicode="&#x403;" horiz-adv-x="1065" 
d="M410 1149v-1149h-283v1384h897v-235h-614zM629 1544h-205l189 361h315z" />
    <glyph glyph-name="uni0404" unicode="&#x404;" horiz-adv-x="1309" 
d="M1276 229q-89 -133 -218.5 -195.5t-318.5 -62.5q-643 0 -643 721q0 369 163 545t470 176q203 0 331 -68.5t195 -179.5l-219 -170q-48 72 -88 104t-91 48t-122 16q-145 0 -231 -77.5t-109 -260.5h576v-250h-578q17 -174 100 -264t244 -90q123 0 191.5 47t124.5 125z" />
    <glyph glyph-name="uni0405" unicode="&#x405;" horiz-adv-x="1229" 
d="M1145 401q0 -208 -136.5 -319t-402.5 -111q-184 0 -319.5 61t-220.5 197l217 166q48 -68 91 -102t102 -53t136 -19q115 0 179.5 39.5t64.5 120.5q0 46 -22.5 77t-67.5 53.5t-156 51.5q-108 29 -203.5 58.5t-165 76.5t-109.5 118t-40 179q0 197 133 307.5t381 110.5
q359 0 508 -246l-215 -168q-57 88 -128 126t-169 38t-159.5 -35.5t-61.5 -111.5q0 -67 64 -102.5t223 -71.5q88 -23 174 -49.5t153.5 -73.5t108.5 -123t41 -195z" />
    <glyph glyph-name="uni0406" unicode="&#x406;" horiz-adv-x="872" 
d="M770 0h-668v217h193v950h-193v217h668v-217h-192v-950h192v-217z" />
    <glyph glyph-name="uni0407" unicode="&#x407;" horiz-adv-x="872" 
d="M770 0h-668v217h193v950h-193v217h668v-217h-192v-950h192v-217zM803 1671q0 -73 -36 -102t-110 -29q-82 0 -111.5 34t-29.5 97q0 70 31.5 100.5t109.5 30.5t112 -29.5t34 -101.5zM358 1671q0 -73 -35.5 -102t-109.5 -29q-82 0 -111.5 34t-29.5 97q0 70 31.5 100.5
t109.5 30.5t111.5 -29.5t33.5 -101.5z" />
    <glyph glyph-name="uni0408" unicode="&#x408;" horiz-adv-x="924" 
d="M770 377q0 -219 -110.5 -313.5t-346.5 -94.5q-51 0 -142 15t-151 39l86 251q32 -17 102.5 -36t110.5 -19q74 0 107 20t47 70t14 144v931h283v-1007z" />
    <glyph glyph-name="uni0409" unicode="&#x409;" horiz-adv-x="2079" 
d="M684 1149v-113q0 -552 -98 -809.5t-314 -257.5q-151 0 -254 62l88 221q62 -27 113 -27q70 0 110.5 83t60.5 271.5t20 503.5v301h839v-491h213q287 0 413 -107.5t126 -328.5q0 -238 -132 -347.5t-413 -109.5h-489v1149h-283zM1249 649v-401h199q129 0 195.5 49t66.5 160
q0 106 -62.5 149t-199.5 43h-199z" />
    <glyph glyph-name="uni040A" unicode="&#x40a;" horiz-adv-x="2019" 
d="M907 0v649h-475v-649h-282v1384h282v-491h475v491h283v-491h213q287 0 413 -107.5t126 -328.5q0 -238 -132.5 -347.5t-412.5 -109.5h-490zM1190 649v-401h199q129 0 195.5 49t66.5 160q0 106 -62.5 149t-199.5 43h-199z" />
    <glyph glyph-name="uni040B" unicode="&#x40b;" horiz-adv-x="1331" 
d="M764 1151h-248v-293q147 35 283 35q183 0 275.5 -42t135.5 -137t43 -268v-446h-282v367q0 173 -46 235t-175 62q-88 0 -236 -33v-631h-281v1151h-208v233h739v-233z" />
    <glyph glyph-name="uni040C" unicode="&#x40c;" horiz-adv-x="1286" 
d="M432 1384v-565h160q56 0 99 55.5t86 178.5t95 331h291q-66 -288 -140 -450t-169 -225q81 -46 136 -117.5t100 -191.5t114 -400h-293q-39 145 -70.5 255t-68.5 182.5t-83 108.5t-116 36h-141v-582h-282v1384h282zM688 1544h-205l189 361h315z" />
    <glyph glyph-name="uni040D" unicode="&#x40d;" horiz-adv-x="1405" 
d="M150 0v1384h264v-964l512 964h329v-1384h-264v1028l-540 -1028h-301zM662 1544l-299 361h315l188 -361h-204z" />
    <glyph glyph-name="uni040E" unicode="&#x40e;" horiz-adv-x="1262" 
d="M666 709l282 675h297l-510 -1130q-48 -106 -99 -167.5t-111.5 -88.5t-162.5 -27q-41 0 -137.5 18t-152.5 42l82 219q38 -19 101.5 -34t94.5 -15q48 0 89.5 40.5t86.5 170.5l-491 972h305zM1024 1800q0 -76 -45 -139.5t-126.5 -101t-189.5 -37.5q-106 0 -188 37t-127 101
t-45 140h221q0 -149 141 -149q56 0 97 32.5t41 116.5h221z" />
    <glyph glyph-name="uni040F" unicode="&#x40f;" horiz-adv-x="1358" 
d="M1208 0h-387v-246h-280v246h-391v1384h280v-1126h498v1126h280v-1384z" />
    <glyph glyph-name="uni0410" unicode="&#x410;" horiz-adv-x="1337" 
d="M27 0l458 1384h367l459 -1384h-289l-92 281h-533l-90 -281h-280zM477 528h373l-186 572z" />
    <glyph glyph-name="uni0411" unicode="&#x411;" horiz-adv-x="1303" 
d="M432 848h193q286 0 429.5 -112.5t143.5 -329.5q0 -203 -133.5 -304.5t-431.5 -101.5h-483v1384h942v-231h-660v-305zM907 424q0 72 -29.5 114t-89.5 60t-194 18h-162v-385h180q142 0 218.5 40t76.5 153z" />
    <glyph glyph-name="uni0412" unicode="&#x412;" horiz-adv-x="1298" 
d="M1210 401q0 -208 -143 -304.5t-397 -96.5h-520v1384h489q266 0 381 -77.5t115 -245.5q0 -129 -62.5 -209t-195.5 -107q174 -24 253.5 -110t79.5 -234zM850 999q0 79 -58 109.5t-180 30.5h-180v-297h172q125 0 185.5 35t60.5 122zM922 426q0 93 -63 131.5t-236 38.5h-191
v-346h143q165 0 227.5 16t91 54t28.5 106z" />
    <glyph glyph-name="uni0413" unicode="&#x413;" horiz-adv-x="1065" 
d="M410 1149v-1149h-283v1384h897v-235h-614z" />
    <glyph glyph-name="uni0414" unicode="&#x414;" horiz-adv-x="1362" 
d="M27 -246v477h127q105 233 152.5 518t47.5 635h817v-1153h164v-477h-282v246h-744v-246h-282zM891 1149h-281q-14 -320 -69.5 -549t-106.5 -364h457v913z" />
    <glyph glyph-name="uni0415" unicode="&#x415;" horiz-adv-x="1149" 
d="M150 0v1384h899v-249h-617v-295h520v-250h-520v-332h617v-258h-899z" />
    <glyph glyph-name="uni0416" unicode="&#x416;" horiz-adv-x="1870" 
d="M1077 819h101q54 0 95.5 51.5t85.5 178.5t93 335h293q-56 -259 -131.5 -435.5t-175.5 -239.5q80 -46 134.5 -116.5t99.5 -187.5t116 -405h-293q-41 152 -73.5 262.5t-69.5 181t-82 104.5t-111 34h-82v-582h-282v582h-84q-77 0 -128.5 -49t-95.5 -157t-110 -376h-295
q73 298 117.5 411.5t100 185t134.5 114.5q-189 120 -309 673h293q75 -313 137.5 -439t138.5 -126h101v565h282v-565z" />
    <glyph glyph-name="uni0417" unicode="&#x417;" horiz-adv-x="1217" 
d="M264 395q112 -194 318 -194q106 0 177.5 55t71.5 147q0 101 -51 147t-168 46h-293v233h308q89 0 136.5 47.5t47.5 139.5q0 75 -70 121.5t-176 46.5q-78 0 -159.5 -24.5t-182.5 -96.5l-141 203q202 147 493 147q169 0 289.5 -46t183 -134.5t62.5 -210.5q0 -117 -58.5 -201
t-144.5 -114q221 -95 221 -310q0 -210 -141 -318t-399 -108q-190 0 -326 68.5t-229 218.5z" />
    <glyph glyph-name="uni0418" unicode="&#x418;" horiz-adv-x="1405" 
d="M150 0v1384h264v-964l512 964h329v-1384h-264v1028l-540 -1028h-301z" />
    <glyph glyph-name="uni0419" unicode="&#x419;" horiz-adv-x="1405" 
d="M150 0v1384h264v-964l512 964h329v-1384h-264v1028l-540 -1028h-301zM1076 1800q0 -76 -45 -139.5t-126.5 -101t-189.5 -37.5q-106 0 -188 37t-127 101t-45 140h221q0 -149 141 -149q56 0 97 32.5t41 116.5h221z" />
    <glyph glyph-name="uni041A" unicode="&#x41a;" horiz-adv-x="1286" 
d="M432 1384v-565h160q56 0 99 55.5t86 178.5t95 331h291q-66 -288 -140 -450t-169 -225q81 -46 136 -117.5t100 -191.5t114 -400h-293q-39 145 -70.5 255t-68.5 182.5t-83 108.5t-116 36h-141v-582h-282v1384h282z" />
    <glyph glyph-name="uni041B" unicode="&#x41b;" horiz-adv-x="1452" 
d="M684 1149v-113q0 -552 -98 -809.5t-314 -257.5q-151 0 -254 62l88 221q62 -27 113 -27q70 0 110.5 83t60.5 271.5t20 503.5v301h893v-1384h-281v1149h-338z" />
    <glyph glyph-name="uni041C" unicode="&#x41c;" horiz-adv-x="1667" 
d="M1245 0v930l-332 -578h-163l-328 578v-930h-272v1384h325l361 -657l364 657h318v-1384h-273z" />
    <glyph glyph-name="uni041D" unicode="&#x41d;" horiz-adv-x="1409" 
d="M977 0v588h-545v-588h-282v1384h282v-538h545v538h283v-1384h-283z" />
    <glyph glyph-name="uni041E" unicode="&#x41e;" horiz-adv-x="1364" 
d="M1278 692q0 -361 -152.5 -541t-443.5 -180q-307 0 -451.5 189.5t-144.5 531.5q0 344 144.5 532.5t451.5 188.5q309 0 452.5 -188.5t143.5 -532.5zM987 692q0 246 -69.5 358.5t-235.5 112.5t-235.5 -112.5t-69.5 -358.5t70.5 -358.5t234.5 -112.5q166 0 235.5 112.5
t69.5 358.5z" />
    <glyph glyph-name="uni041F" unicode="&#x41f;" horiz-adv-x="1417" 
d="M150 0v1384h1118v-1384h-289v1143h-541v-1143h-288z" />
    <glyph glyph-name="uni0420" unicode="&#x420;" horiz-adv-x="1239" 
d="M1161 920q0 -250 -117.5 -371t-381.5 -121h-230v-428h-282v1384h520q235 0 363 -109.5t128 -354.5zM870 918q0 117 -64.5 169t-232.5 52h-141v-465h115q155 0 214.5 21.5t84 72.5t24.5 150z" />
    <glyph glyph-name="uni0421" unicode="&#x421;" horiz-adv-x="1333" 
d="M1276 229q-89 -133 -218.5 -195.5t-318.5 -62.5q-643 0 -643 721q0 369 163 545t470 176q203 0 331 -68.5t195 -179.5l-219 -170q-48 72 -88 104t-91 48t-122 16q-170 0 -259 -108.5t-89 -362.5q0 -237 83.5 -354t266.5 -117q123 0 191.5 47t124.5 125z" />
    <glyph glyph-name="uni0422" unicode="&#x422;" horiz-adv-x="1204" 
d="M743 1126v-1126h-282v1126h-426v258h1134v-258h-426z" />
    <glyph glyph-name="uni0423" unicode="&#x423;" horiz-adv-x="1262" 
d="M666 709l282 675h297l-510 -1130q-48 -106 -99 -167.5t-111.5 -88.5t-162.5 -27q-41 0 -137.5 18t-152.5 42l82 219q38 -19 101.5 -34t94.5 -15q48 0 89.5 40.5t86.5 170.5l-491 972h305z" />
    <glyph glyph-name="uni0424" unicode="&#x424;" horiz-adv-x="1548" 
d="M645 -45v188q-286 23 -426.5 157t-140.5 398q0 263 142.5 395t424.5 154v183h264v-183q281 -22 421 -154t140 -395q0 -262 -138.5 -396.5t-422.5 -158.5v-188h-264zM365 698q0 -159 70.5 -235t209.5 -94v655q-137 -18 -208.5 -93t-71.5 -233zM1184 698q0 158 -70 230.5
t-205 93.5v-653q135 18 205 94t70 235z" />
    <glyph glyph-name="uni0425" unicode="&#x425;" horiz-adv-x="1286" 
d="M29 0l463 694l-451 690h321l287 -466l297 466h311l-454 -684l452 -700h-317l-297 477l-301 -477h-311z" />
    <glyph glyph-name="uni0426" unicode="&#x426;" horiz-adv-x="1415" 
d="M150 0v1384h282v-1126h510v1126h283v-1126h164v-504h-283v246h-956z" />
    <glyph glyph-name="uni0427" unicode="&#x427;" horiz-adv-x="1288" 
d="M88 1384h283v-356q0 -130 16.5 -188.5t57 -83.5t124.5 -25q157 0 287 33v620h283v-1384h-283v514q-160 -41 -330 -41q-175 0 -266.5 43.5t-131.5 141t-40 268.5v458z" />
    <glyph glyph-name="uni0428" unicode="&#x428;" horiz-adv-x="1870" 
d="M1438 258v1126h282v-1384h-1570v1384h282v-1126h363v1126h280v-1126h363z" />
    <glyph glyph-name="uni0429" unicode="&#x429;" horiz-adv-x="1907" 
d="M150 0v1384h282v-1126h363v1126h280v-1126h363v1126h282v-1130h160v-500h-283v246h-1447z" />
    <glyph glyph-name="uni042A" unicode="&#x42a;" horiz-adv-x="1561" 
d="M35 1149v235h696v-491h213q287 0 413 -107.5t126 -328.5q0 -238 -132 -347.5t-413 -109.5h-489v1149h-414zM731 649v-401h199q129 0 195.5 49t66.5 160q0 106 -62.5 149t-199.5 43h-199z" />
    <glyph glyph-name="uni042B" unicode="&#x42b;" horiz-adv-x="1812" 
d="M1382 1384h281v-1384h-281v1384zM150 0v1384h282v-491h213q287 0 413 -107.5t126 -328.5q0 -238 -132 -347.5t-413 -109.5h-489zM893 457q0 106 -62.5 149t-199.5 43h-199v-401h199q129 0 195.5 49t66.5 160z" />
    <glyph glyph-name="uni042C" unicode="&#x42c;" horiz-adv-x="1262" 
d="M150 0v1384h282v-491h213q287 0 413 -107.5t126 -328.5q0 -238 -132 -347.5t-413 -109.5h-489zM893 457q0 106 -62.5 149t-199.5 43h-199v-401h199q129 0 195.5 49t66.5 160z" />
    <glyph glyph-name="uni042D" unicode="&#x42d;" horiz-adv-x="1270" 
d="M53 1165q68 111 196 179.5t331 68.5q632 0 632 -721t-643 -721q-187 0 -316 62t-220 196l223 164q55 -78 124 -125t191 -47q162 0 244.5 89.5t99.5 264.5h-577v250h575q-22 183 -108 260.5t-232 77.5q-70 0 -120 -15.5t-89.5 -46.5t-91.5 -106z" />
    <glyph glyph-name="uni042E" unicode="&#x42e;" horiz-adv-x="1939" 
d="M432 0h-282v1384h282v-579h242q21 297 168.5 452.5t419.5 155.5q291 0 441 -182.5t150 -540.5q0 -355 -151 -537t-440 -182q-268 0 -415 153t-173 449h-242v-573zM1559 690q0 494 -297 494q-147 0 -222 -120t-75 -374q0 -247 74 -368t223 -121q150 0 223.5 126t73.5 363z
" />
    <glyph glyph-name="uni042F" unicode="&#x42f;" horiz-adv-x="1284" 
d="M33 0l370 557q-135 27 -210.5 132.5t-75.5 283.5q0 219 122.5 315t391.5 96h504v-1384h-283v524h-143l-353 -524h-323zM403 961q0 -79 22.5 -117t73.5 -56t146 -18h207v369h-219q-123 0 -176.5 -36t-53.5 -142z" />
    <glyph glyph-name="uni0430" unicode="&#x430;" horiz-adv-x="1139" 
d="M764 0v109q-153 -140 -328 -140q-174 0 -263 91.5t-89 234.5q0 112 45.5 185t135 114.5t257.5 58.5l221 21v47q0 88 -53 120.5t-155 32.5q-84 0 -144.5 -28t-89.5 -80l-201 129q53 89 166 136.5t273 47.5q245 0 353.5 -85.5t108.5 -280.5v-713h-237zM743 487l-131 -12
q-139 -12 -200.5 -53t-61.5 -123q0 -72 40 -98.5t106 -26.5q47 0 114.5 29.5t132.5 83.5v200z" />
    <glyph glyph-name="uni0431" unicode="&#x431;" horiz-adv-x="1247" 
d="M1155 530q0 -265 -133.5 -413t-366.5 -148q-270 0 -409.5 175t-139.5 511q0 191 26 326t78 227t132 147.5t187.5 88.5t243.5 48t302 28v-211q-164 -11 -290 -24t-214 -51t-137 -112.5t-59 -206.5q128 103 319 103q461 0 461 -488zM891 522q0 152 -55.5 222.5t-178.5 70.5
q-72 0 -147 -33t-135 -90l-2 -38v-40q0 -204 71.5 -322t212.5 -118q107 0 170.5 94.5t63.5 253.5z" />
    <glyph glyph-name="uni0432" unicode="&#x432;" horiz-adv-x="1143" 
d="M1061 313q0 -149 -116 -231t-355 -82h-459v1049h426q229 0 330.5 -57.5t101.5 -192.5q0 -90 -52 -145.5t-120 -84.5q107 -22 175.5 -82.5t68.5 -173.5zM731 758q0 63 -51 85.5t-152 22.5h-141v-225h152q108 0 150 27.5t42 89.5zM795 326q0 77 -55.5 105t-170.5 28h-182
v-275h150q116 0 187 28t71 114z" />
    <glyph glyph-name="uni0433" unicode="&#x433;" horiz-adv-x="889" 
d="M131 1049h741v-191h-483v-858h-258v1049z" />
    <glyph glyph-name="uni0434" unicode="&#x434;" horiz-adv-x="1210" 
d="M29 -262v448h112q86 160 132 376t46 487h717v-863h146v-448h-246v262h-662v-262h-245zM780 858h-223q-10 -191 -58 -372.5t-112 -292.5h393v665z" />
    <glyph glyph-name="uni0435" unicode="&#x435;" horiz-adv-x="1143" 
d="M358 457q7 -140 68 -201t192 -61q76 0 133.5 19t100.5 73l192 -137q-63 -91 -163.5 -136t-274.5 -45q-259 0 -386.5 136t-127.5 411q0 563 504 563q224 0 341.5 -126.5t117.5 -368.5v-127h-697zM799 635q0 239 -209 239q-69 0 -113 -23.5t-70.5 -70t-41.5 -145.5h434z
" />
    <glyph glyph-name="uni0436" unicode="&#x436;" horiz-adv-x="1579" 
d="M920 1049v-416h79q67 0 116.5 86.5t119.5 329.5h266q-59 -215 -122.5 -336t-147.5 -174q63 -31 106 -77t77 -110.5t61.5 -151.5t62.5 -200h-266q-37 115 -65.5 198t-59.5 137t-69 79.5t-93 25.5h-65v-440h-258v440h-68q-66 0 -110.5 -39t-81.5 -120.5t-93 -280.5h-268
q69 236 106 317t84 134.5t119 87.5q-81 51 -146.5 170t-125.5 340h266q57 -210 113 -313t123 -103h82v416h258z" />
    <glyph glyph-name="uni0437" unicode="&#x437;" horiz-adv-x="1008" 
d="M236 627h223q96 0 138 20.5t42 91.5q0 72 -45 100.5t-131 28.5q-82 0 -133 -25.5t-86 -72.5l-183 129q56 92 161.5 136t240.5 44q229 0 335.5 -93t106.5 -245q0 -71 -34.5 -127.5t-104.5 -87.5q69 -25 114.5 -91t45.5 -138q0 -158 -118 -243t-355 -85q-286 0 -406 181
l195 137q45 -58 95 -81.5t116 -23.5q90 0 148 32t58 93q0 70 -39.5 102.5t-150.5 32.5h-233v185z" />
    <glyph glyph-name="uni0438" unicode="&#x438;" horiz-adv-x="1217" 
d="M375 0h-244v1049h234v-709l485 709h246v-1049h-234v707z" />
    <glyph glyph-name="uni0439" unicode="&#x439;" horiz-adv-x="1217" 
d="M375 0h-244v1049h234v-709l485 709h246v-1049h-234v707zM977 1466q0 -77 -45.5 -140.5t-128 -100.5t-189.5 -37q-103 0 -185 36t-127.5 101t-45.5 141h221q0 -149 139 -149q58 0 99 32.5t41 116.5h221z" />
    <glyph glyph-name="uni043A" unicode="&#x43a;" horiz-adv-x="1108" 
d="M387 1049v-416h135q51 0 89 42.5t73 126.5t82 247h264q-56 -206 -121.5 -329t-154.5 -181q65 -31 110 -77t79 -110.5t61.5 -151.5t62.5 -200h-264q-35 109 -63.5 191.5t-60.5 138t-73 83t-100 27.5h-119v-440h-256v1049h256z" />
    <glyph glyph-name="uni043B" unicode="&#x43b;" horiz-adv-x="1223" 
d="M567 858v-65q0 -421 -95 -616t-310 -195q-35 0 -79 8t-67 18l45 187q31 -9 56 -9q107 0 153.5 154.5t46.5 490.5v218h775v-1049h-256v858h-269z" />
    <glyph glyph-name="uni043C" unicode="&#x43c;" horiz-adv-x="1393" 
d="M1262 0h-228v748l-262 -486h-141l-273 486v-748h-227v1049h287l289 -498l274 498h281v-1049z" />
    <glyph glyph-name="uni043D" unicode="&#x43d;" horiz-adv-x="1202" 
d="M1071 0h-258v442h-424v-442h-258v1049h258v-414h424v414h258v-1049z" />
    <glyph glyph-name="uni043E" unicode="&#x43e;" horiz-adv-x="1190" 
d="M1098 522q0 -262 -121 -407.5t-381 -145.5q-504 0 -504 553q0 266 121 411.5t383 145.5q260 0 381 -145.5t121 -411.5zM831 522q0 173 -54 252.5t-181 79.5q-126 0 -182 -81.5t-56 -250.5q0 -168 55.5 -247.5t182.5 -79.5q125 0 180 78.5t55 248.5z" />
    <glyph glyph-name="uni043F" unicode="&#x43f;" horiz-adv-x="1202" 
d="M813 0v858h-424v-858h-258v1049h940v-1049h-258z" />
    <glyph glyph-name="uni0440" unicode="&#x440;" horiz-adv-x="1217" 
d="M1124 532q0 -169 -51 -298t-146 -197t-227 -68q-174 0 -297 109v-473h-258v1444h238v-103q72 62 151.5 97.5t182.5 35.5q199 0 303 -140t104 -407zM858 528q0 153 -53 238.5t-158 85.5q-63 0 -129.5 -29.5t-114.5 -72.5v-459q41 -37 101.5 -65.5t124.5 -28.5
q106 0 167.5 90.5t61.5 240.5z" />
    <glyph glyph-name="uni0441" unicode="&#x441;" horiz-adv-x="1059" 
d="M1012 150q-60 -89 -158 -135t-248 -46q-254 0 -384 138.5t-130 410.5q0 265 126 413t378 148q135 0 240.5 -44t160.5 -136l-192 -137q-35 47 -82 69.5t-121 22.5q-132 0 -188 -81t-56 -251t57.5 -248.5t196.5 -78.5q60 0 110 17t95 75z" />
    <glyph glyph-name="uni0442" unicode="&#x442;" horiz-adv-x="1004" 
d="M987 862h-356v-862h-256v862h-359v187h971v-187z" />
    <glyph glyph-name="uni0443" unicode="&#x443;" horiz-adv-x="1085" 
d="M35 -141q84 -29 151 -29q58 0 102 35t91 145l27 62l-379 977h268l248 -670l254 670h262l-451 -1121q-55 -135 -107 -200t-121.5 -94t-174.5 -29q-114 0 -225 30z" />
    <glyph glyph-name="uni0444" unicode="&#x444;" horiz-adv-x="1393" 
d="M573 -391v368q-241 25 -368 162t-127 385q0 496 495 551v400h246v-400q249 -28 372.5 -168.5t123.5 -382.5q0 -243 -125 -382t-371 -165v-368h-246zM344 524q0 -149 50 -238t179 -118v719q-129 -31 -179 -120t-50 -243zM1049 524q0 146 -51.5 238t-178.5 123v-717
q127 29 178.5 119t51.5 237z" />
    <glyph glyph-name="uni0445" unicode="&#x445;" horiz-adv-x="1079" 
d="M743 0l-208 334l-218 -334h-286l362 518l-356 531h301l209 -332l215 332h285l-361 -517l363 -532h-306z" />
    <glyph glyph-name="uni0446" unicode="&#x446;" horiz-adv-x="1237" 
d="M131 0v1049h258v-861h420v861h256v-861h143v-450h-235v262h-842z" />
    <glyph glyph-name="uni0447" unicode="&#x447;" horiz-adv-x="1151" 
d="M90 1049h256v-281q0 -94 14 -138t46.5 -62.5t109.5 -18.5q103 0 248 20v480h256v-1049h-256v393q-74 -12 -151.5 -23.5t-139.5 -11.5q-212 0 -297.5 79t-85.5 274v338z" />
    <glyph glyph-name="uni0448" unicode="&#x448;" horiz-adv-x="1634" 
d="M1245 188v861h258v-1049h-1372v1049h258v-861h299v861h258v-861h299z" />
    <glyph glyph-name="uni0449" unicode="&#x449;" horiz-adv-x="1667" 
d="M131 0v1049h258v-861h297v861h258v-861h297v861h258v-863h139v-448h-237v262h-1270z" />
    <glyph glyph-name="uni044A" unicode="&#x44a;" horiz-adv-x="1352" 
d="M16 862v187h605v-371h184q248 0 364.5 -83t116.5 -251q0 -180 -123 -262t-372 -82h-426v862h-349zM1020 346q0 82 -58.5 112.5t-185.5 30.5h-155v-301h163q127 0 181.5 36t54.5 122z" />
    <glyph glyph-name="uni044B" unicode="&#x44b;" horiz-adv-x="1575" 
d="M1188 0v1049h256v-1049h-256zM387 678h182q248 0 363 -83t115 -251q0 -180 -120 -262t-372 -82h-424v1049h256v-371zM780 346q0 82 -55 112.5t-184 30.5h-154v-301h162q125 0 178 36t53 122z" />
    <glyph glyph-name="uni044C" unicode="&#x44c;" horiz-adv-x="1112" 
d="M387 678h182q248 0 363 -83t115 -251q0 -180 -120 -262t-372 -82h-424v1049h256v-371zM780 346q0 82 -55 112.5t-184 30.5h-154v-301h162q125 0 178 36t53 122z" />
    <glyph glyph-name="uni044D" unicode="&#x44d;" horiz-adv-x="1059" 
d="M61 899q56 92 161.5 136t240.5 44q250 0 377 -147.5t127 -413.5q0 -273 -131.5 -411t-382.5 -138q-286 0 -406 181l195 137q45 -58 95 -75t109 -17q117 0 177.5 56t72.5 191h-473v185h471q-16 129 -77.5 178t-159.5 49q-74 0 -121 -22.5t-82 -69.5z" />
    <glyph glyph-name="uni044E" unicode="&#x44e;" horiz-adv-x="1726" 
d="M387 0h-256v1051h256v-437h221q19 233 151.5 349t366.5 116q256 0 389.5 -142t133.5 -415q0 -176 -59.5 -301.5t-175.5 -188.5t-288 -63q-235 0 -367 118t-151 339h-221v-426zM1382 522q0 187 -61 269.5t-195 82.5q-133 0 -194.5 -82.5t-61.5 -269.5q0 -180 61.5 -263
t194.5 -83q134 0 195 84t61 262z" />
    <glyph glyph-name="uni044F" unicode="&#x44f;" horiz-adv-x="1090" 
d="M41 0l289 438q-248 57 -248 320q0 155 100.5 223t343.5 68h432v-1049h-256v418h-105l-275 -418h-281zM342 735q0 -78 40 -106.5t148 -28.5h172v266h-172q-100 0 -144 -30.5t-44 -100.5z" />
    <glyph glyph-name="uni0450" unicode="&#x450;" horiz-adv-x="1143" 
d="M358 457q7 -140 68 -201t192 -61q76 0 133.5 19t100.5 73l192 -137q-63 -91 -163.5 -136t-274.5 -45q-259 0 -386.5 136t-127.5 411q0 563 504 563q224 0 341.5 -126.5t117.5 -368.5v-127h-697zM799 635q0 239 -209 239q-69 0 -113 -23.5t-70.5 -70t-41.5 -145.5h434z
M547 1208l-299 361h315l188 -361h-204z" />
    <glyph glyph-name="uni0451" unicode="&#x451;" horiz-adv-x="1143" 
d="M358 457q7 -140 68 -201t192 -61q76 0 133.5 19t100.5 73l192 -137q-63 -91 -163.5 -136t-274.5 -45q-259 0 -386.5 136t-127.5 411q0 563 504 563q224 0 341.5 -126.5t117.5 -368.5v-127h-697zM799 635q0 239 -209 239q-69 0 -113 -23.5t-70.5 -70t-41.5 -145.5h434z
M899 1335q0 -73 -36 -102t-110 -29q-82 0 -111.5 34t-29.5 97q0 70 31.5 100.5t109.5 30.5t112 -29.5t34 -101.5zM454 1335q0 -73 -35.5 -102t-109.5 -29q-82 0 -111.5 34t-29.5 97q0 70 31.5 100.5t109.5 30.5t111.5 -29.5t33.5 -101.5z" />
    <glyph glyph-name="uni0452" unicode="&#x452;" horiz-adv-x="1319" 
d="M711 1204h-287v-293q77 77 177.5 122.5t182.5 45.5q205 0 305.5 -138t100.5 -400q0 -437 -132.5 -670t-391.5 -262l-45 205q123 35 187.5 115t94 224.5t29.5 374.5q0 328 -221 328q-59 0 -143.5 -49.5t-143.5 -104.5v-702h-252v1204h-149v180h149v105h252v-105h287v-180z
" />
    <glyph glyph-name="uni0453" unicode="&#x453;" horiz-adv-x="889" 
d="M131 1049h741v-191h-483v-858h-258v1049zM526 1208h-205l189 361h315z" />
    <glyph glyph-name="uni0454" unicode="&#x454;" horiz-adv-x="1059" 
d="M1012 150q-60 -89 -158 -135t-248 -46q-254 0 -384 138.5t-130 410.5q0 265 126 413t378 148q135 0 240.5 -44t160.5 -136l-192 -137q-35 47 -82 69.5t-121 22.5q-98 0 -159.5 -49t-77.5 -178h471v-185h-474q13 -135 73.5 -191t176.5 -56q60 0 110 17t95 75z" />
    <glyph glyph-name="uni0455" unicode="&#x455;" horiz-adv-x="1026" 
d="M946 299q0 -104 -52.5 -178t-149 -113t-220.5 -39q-329 0 -448 183l192 135q47 -64 108.5 -85.5t131.5 -21.5q184 0 184 107q0 47 -52 72.5t-163 52.5q-209 46 -294 130t-85 218q0 139 106.5 229t313.5 90q141 0 248.5 -45t165.5 -135l-193 -137q-69 106 -225 106
q-80 0 -121 -27.5t-41 -70.5q0 -41 37 -65.5t146 -51.5q179 -44 255.5 -87.5t116 -108t39.5 -158.5z" />
    <glyph glyph-name="uni0456" unicode="&#x456;" horiz-adv-x="549" 
d="M418 1335q0 -73 -36 -102t-110 -29q-82 0 -111.5 34t-29.5 97q0 70 32 100.5t109 30.5q78 0 112 -29.5t34 -101.5zM145 0v1049h258v-1049h-258z" />
    <glyph glyph-name="uni0457" unicode="&#x457;" horiz-adv-x="549" 
d="M145 0v1049h258v-1049h-258zM639 1335q0 -73 -36 -102t-110 -29q-82 0 -111.5 34t-29.5 97q0 70 31.5 100.5t109.5 30.5t112 -29.5t34 -101.5zM194 1335q0 -73 -35.5 -102t-109.5 -29q-82 0 -111.5 34t-29.5 97q0 70 31.5 100.5t109.5 30.5t111.5 -29.5t33.5 -101.5z" />
    <glyph glyph-name="uni0458" unicode="&#x458;" horiz-adv-x="563" 
d="M432 1335q0 -73 -36 -102t-109 -29q-82 0 -112 34t-30 97q0 70 32 100.5t110 30.5t111.5 -29.5t33.5 -101.5zM418 -45q0 -188 -84 -269t-275 -81q-43 0 -113 9.5t-108 20.5l56 224q73 -29 151 -29t96.5 48t18.5 159v1012h258v-1094z" />
    <glyph glyph-name="uni0459" unicode="&#x459;" horiz-adv-x="1790" 
d="M313 1049h760v-371h180q244 0 357.5 -83t113.5 -251q0 -180 -119.5 -262t-367.5 -82h-422v862h-250v-69q0 -421 -95 -616t-308 -195q-35 0 -78 8t-68 18l45 187q31 -9 56 -9q103 0 149.5 146.5t46.5 498.5v218zM1458 346q0 82 -56 112.5t-177 30.5h-152v-301h158
q121 0 174 37t53 121z" />
    <glyph glyph-name="uni045A" unicode="&#x45a;" horiz-adv-x="1761" 
d="M793 0v475h-406v-475h-256v1049h256v-385h406v385h256v-385h180q241 0 354 -73t113 -247q0 -180 -120 -262t-364 -82h-419zM1430 346q0 72 -54.5 100.5t-175.5 28.5h-151v-287h157q119 0 171.5 36t52.5 122z" />
    <glyph glyph-name="uni045B" unicode="&#x45b;" horiz-adv-x="1243" 
d="M424 911q68 70 166 119t201 49q169 0 247 -92t78 -287v-700h-252v580q0 166 -31 221t-118 55q-116 0 -291 -154v-702h-252v1192h-149v174h149v123h252v-123h285v-174h-285v-281z" />
    <glyph glyph-name="uni045C" unicode="&#x45c;" horiz-adv-x="1108" 
d="M387 1049v-416h135q51 0 89 42.5t73 126.5t82 247h264q-56 -206 -121.5 -329t-154.5 -181q65 -31 110 -77t79 -110.5t61.5 -151.5t62.5 -200h-264q-35 109 -63.5 191.5t-60.5 138t-73 83t-100 27.5h-119v-440h-256v1049h256zM612 1208h-205l189 361h315z" />
    <glyph glyph-name="uni045D" unicode="&#x45d;" horiz-adv-x="1217" 
d="M375 0h-244v1049h234v-709l485 709h246v-1049h-234v707zM572 1208l-299 361h315l188 -361h-204z" />
    <glyph glyph-name="uni045E" unicode="&#x45e;" horiz-adv-x="1085" 
d="M35 -141q84 -29 151 -29q58 0 102 35t91 145l27 62l-379 977h268l248 -670l254 670h262l-451 -1121q-55 -135 -107 -200t-121.5 -94t-174.5 -29q-114 0 -225 30zM903 1466q0 -77 -45.5 -140.5t-128 -100.5t-189.5 -37q-103 0 -185 36t-127.5 101t-45.5 141h221
q0 -149 139 -149q58 0 99 32.5t41 116.5h221z" />
    <glyph glyph-name="uni045F" unicode="&#x45f;" horiz-adv-x="1202" 
d="M1071 0h-342v-264h-256v264h-342v1049h258v-861h424v861h258v-1049z" />
    <glyph glyph-name="uni0490" unicode="&#x490;" horiz-adv-x="999" 
d="M688 1634h283v-508h-541v-1126h-280v1384h538v250z" />
    <glyph glyph-name="uni0491" unicode="&#x491;" horiz-adv-x="905" 
d="M131 0v1049h490v286h256v-479h-488v-856h-258z" />
    <glyph glyph-name="Wgrave" unicode="&#x1e80;" horiz-adv-x="1833" 
d="M1432 0h-289l-232 915l-233 -915h-285l-350 1384h281l221 -903l229 903h279l231 -909l227 909h279zM887 1544l-299 361h315l188 -361h-204z" />
    <glyph glyph-name="wgrave" unicode="&#x1e81;" horiz-adv-x="1565" 
d="M1257 0h-235l-236 668l-237 -668h-236l-286 1049h268l162 -676l235 676h195l237 -670l156 670h258zM734 1208l-299 361h315l188 -361h-204z" />
    <glyph glyph-name="Wacute" unicode="&#x1e82;" horiz-adv-x="1833" 
d="M1432 0h-289l-232 915l-233 -915h-285l-350 1384h281l221 -903l229 903h279l231 -909l227 909h279zM952 1544h-205l189 361h315z" />
    <glyph glyph-name="wacute" unicode="&#x1e83;" horiz-adv-x="1565" 
d="M1257 0h-235l-236 668l-237 -668h-236l-286 1049h268l162 -676l235 676h195l237 -670l156 670h258zM860 1208h-205l189 361h315z" />
    <glyph glyph-name="Wdieresis" unicode="&#x1e84;" horiz-adv-x="1833" 
d="M1432 0h-289l-232 915l-233 -915h-285l-350 1384h281l221 -903l229 903h279l231 -909l227 909h279zM1280 1671q0 -73 -36 -102t-110 -29q-82 0 -111.5 34t-29.5 97q0 70 31.5 100.5t109.5 30.5t112 -29.5t34 -101.5zM835 1671q0 -73 -35.5 -102t-109.5 -29
q-82 0 -111.5 34t-29.5 97q0 70 31.5 100.5t109.5 30.5t111.5 -29.5t33.5 -101.5z" />
    <glyph glyph-name="wdieresis" unicode="&#x1e85;" horiz-adv-x="1565" 
d="M1257 0h-235l-236 668l-237 -668h-236l-286 1049h268l162 -676l235 676h195l237 -670l156 670h258zM1147 1335q0 -73 -36 -102t-110 -29q-82 0 -111.5 34t-29.5 97q0 70 31.5 100.5t109.5 30.5t112 -29.5t34 -101.5zM702 1335q0 -73 -35.5 -102t-109.5 -29
q-82 0 -111.5 34t-29.5 97q0 70 31.5 100.5t109.5 30.5t111.5 -29.5t33.5 -101.5z" />
    <glyph glyph-name="Eszett" unicode="&#x1e9e;" horiz-adv-x="1503" 
d="M1112 1163q-98 0 -159.5 -35.5t-61.5 -111.5q0 -43 17 -68.5t59.5 -50.5t122.5 -55q167 -62 248 -165.5t81 -275.5q0 -196 -128 -313t-363 -117q-157 0 -254.5 55t-169.5 185l217 166q41 -84 96 -120t129 -36q184 0 184 166q0 66 -35.5 117t-133.5 88q-201 76 -280 164.5
t-79 238.5q0 92 51 170q-128 -8 -174.5 -70.5t-46.5 -215.5v-879h-282v868q0 289 136 418t433 129q129 0 219 -15.5t174 -37.5v-199z" />
    <glyph glyph-name="Adotbelow" unicode="&#x1ea0;" horiz-adv-x="1337" 
d="M27 0l458 1384h367l459 -1384h-289l-92 281h-533l-90 -281h-280zM477 528h373l-186 572zM811 -248q0 -74 -36 -102.5t-110 -28.5q-82 0 -111.5 34t-29.5 97q0 70 31.5 100.5t109.5 30.5t112 -29.5t34 -101.5z" />
    <glyph glyph-name="adotbelow" unicode="&#x1ea1;" horiz-adv-x="1139" 
d="M764 0v109q-153 -140 -328 -140q-174 0 -263 91.5t-89 234.5q0 112 45.5 185t135 114.5t257.5 58.5l221 21v47q0 88 -53 120.5t-155 32.5q-84 0 -144.5 -28t-89.5 -80l-201 129q53 89 166 136.5t273 47.5q245 0 353.5 -85.5t108.5 -280.5v-713h-237zM743 487l-131 -12
q-139 -12 -200.5 -53t-61.5 -123q0 -72 40 -98.5t106 -26.5q47 0 114.5 29.5t132.5 83.5v200zM664 -248q0 -74 -36 -102.5t-110 -28.5q-82 0 -111.5 34t-29.5 97q0 70 31.5 100.5t109.5 30.5t112 -29.5t34 -101.5z" />
    <glyph glyph-name="Ahookabove" unicode="&#x1ea2;" horiz-adv-x="1337" 
d="M27 0l458 1384h367l459 -1384h-289l-92 281h-533l-90 -281h-280zM477 528h373l-186 572zM458 1823q70 53 197 53q104 0 160.5 -46t56.5 -120q0 -69 -47 -116.5t-127 -53.5v-43h-127v137h43q74 0 74 60q0 51 -76 51q-58 0 -96 -25z" />
    <glyph glyph-name="ahookabove" unicode="&#x1ea3;" horiz-adv-x="1139" 
d="M764 0v109q-153 -140 -328 -140q-174 0 -263 91.5t-89 234.5q0 112 45.5 185t135 114.5t257.5 58.5l221 21v47q0 88 -53 120.5t-155 32.5q-84 0 -144.5 -28t-89.5 -80l-201 129q53 89 166 136.5t273 47.5q245 0 353.5 -85.5t108.5 -280.5v-713h-237zM743 487l-131 -12
q-139 -12 -200.5 -53t-61.5 -123q0 -72 40 -98.5t106 -26.5q47 0 114.5 29.5t132.5 83.5v200zM350 1487q70 53 197 53q104 0 160.5 -46t56.5 -120q0 -69 -47 -116.5t-127 -53.5v-43h-127v137h43q74 0 74 60q0 51 -76 51q-58 0 -96 -25z" />
    <glyph glyph-name="Acircumflexacute" unicode="&#x1ea4;" horiz-adv-x="1337" 
d="M27 0l458 1384h367l459 -1384h-289l-92 281h-533l-90 -281h-280zM477 528h373l-186 572zM822 1503l-146 133l-149 -133h-209l235 299h244l236 -299h-211zM906 1716l153 291h316l-265 -291h-204z" />
    <glyph glyph-name="acircumflexacute" unicode="&#x1ea5;" horiz-adv-x="1139" 
d="M764 0v109q-153 -140 -328 -140q-174 0 -263 91.5t-89 234.5q0 112 45.5 185t135 114.5t257.5 58.5l221 21v47q0 88 -53 120.5t-155 32.5q-84 0 -144.5 -28t-89.5 -80l-201 129q53 89 166 136.5t273 47.5q245 0 353.5 -85.5t108.5 -280.5v-713h-237zM743 487l-131 -12
q-139 -12 -200.5 -53t-61.5 -123q0 -72 40 -98.5t106 -26.5q47 0 114.5 29.5t132.5 83.5v200zM688 1167l-146 144l-149 -144h-209l235 299h244l236 -299h-211zM772 1380l153 291h316l-265 -291h-204z" />
    <glyph glyph-name="Acircumflexgrave" unicode="&#x1ea6;" horiz-adv-x="1337" 
d="M27 0l458 1384h367l459 -1384h-289l-92 281h-533l-90 -281h-280zM477 528h373l-186 572zM822 1503l-146 133l-149 -133h-209l235 299h244l236 -299h-211zM242 1716l-264 291h315l154 -291h-205z" />
    <glyph glyph-name="acircumflexgrave" unicode="&#x1ea7;" horiz-adv-x="1139" 
d="M764 0v109q-153 -140 -328 -140q-174 0 -263 91.5t-89 234.5q0 112 45.5 185t135 114.5t257.5 58.5l221 21v47q0 88 -53 120.5t-155 32.5q-84 0 -144.5 -28t-89.5 -80l-201 129q53 89 166 136.5t273 47.5q245 0 353.5 -85.5t108.5 -280.5v-713h-237zM743 487l-131 -12
q-139 -12 -200.5 -53t-61.5 -123q0 -72 40 -98.5t106 -26.5q47 0 114.5 29.5t132.5 83.5v200zM688 1167l-146 133l-149 -133h-209l235 299h244l236 -299h-211zM108 1380l-264 291h315l154 -291h-205z" />
    <glyph glyph-name="Acircumflexhookabove" unicode="&#x1ea8;" horiz-adv-x="1337" 
d="M27 0l458 1384h367l459 -1384h-289l-92 281h-533l-90 -281h-280zM477 528h373l-186 572zM822 1503l-146 133l-149 -133h-209l235 299h244l236 -299h-211zM813 2001q70 53 197 53q105 0 161 -46t56 -120q0 -69 -47 -116.5t-127 -53.5v-43h-127v137h43q74 0 74 60
q0 51 -76 51q-58 0 -96 -25z" />
    <glyph glyph-name="acircumflexhookabove" unicode="&#x1ea9;" horiz-adv-x="1139" 
d="M764 0v109q-153 -140 -328 -140q-174 0 -263 91.5t-89 234.5q0 112 45.5 185t135 114.5t257.5 58.5l221 21v47q0 88 -53 120.5t-155 32.5q-84 0 -144.5 -28t-89.5 -80l-201 129q53 89 166 136.5t273 47.5q245 0 353.5 -85.5t108.5 -280.5v-713h-237zM743 487l-131 -12
q-139 -12 -200.5 -53t-61.5 -123q0 -72 40 -98.5t106 -26.5q47 0 114.5 29.5t132.5 83.5v200zM688 1167l-146 133l-149 -133h-209l235 299h244l236 -299h-211zM679 1665q67 53 197 53q105 0 161 -46t56 -120q0 -69 -47 -116.5t-127 -53.5v-43h-127v138h43q74 0 74 59
q0 51 -76 51q-56 0 -96 -24z" />
    <glyph glyph-name="Acircumflextilde" unicode="&#x1eaa;" horiz-adv-x="1337" 
d="M27 0l458 1384h367l459 -1384h-289l-92 281h-533l-90 -281h-280zM477 528h373l-186 572zM822 1503l-146 123l-149 -123h-209l235 279h244l236 -279h-211zM267 1849q5 136 74 206.5t188 70.5q49 0 91 -15.5t79 -35t69.5 -35t65.5 -15.5q37 0 50 24t18 62h182
q-10 -144 -76 -212t-188 -68q-54 0 -96 16.5t-77.5 36t-66.5 35.5t-64 16q-38 0 -50.5 -23.5t-16.5 -62.5h-182z" />
    <glyph glyph-name="acircumflextilde" unicode="&#x1eab;" horiz-adv-x="1139" 
d="M764 0v109q-153 -140 -328 -140q-174 0 -263 91.5t-89 234.5q0 112 45.5 185t135 114.5t257.5 58.5l221 21v47q0 88 -53 120.5t-155 32.5q-84 0 -144.5 -28t-89.5 -80l-201 129q53 89 166 136.5t273 47.5q245 0 353.5 -85.5t108.5 -280.5v-713h-237zM743 487l-131 -12
q-139 -12 -200.5 -53t-61.5 -123q0 -72 40 -98.5t106 -26.5q47 0 114.5 29.5t132.5 83.5v200zM688 1167l-146 123l-149 -123h-209l235 279h244l236 -279h-211zM133 1513q5 136 74 206.5t188 70.5q49 0 91 -15.5t79 -35t69.5 -34.5t65.5 -15q37 0 50 23.5t18 62.5h182
q-10 -145 -75.5 -213t-188.5 -68q-54 0 -96 16.5t-77.5 36t-66.5 35.5t-64 16q-38 0 -50.5 -23.5t-16.5 -62.5h-182z" />
    <glyph glyph-name="Acircumflexdotbelow" unicode="&#x1eac;" horiz-adv-x="1337" 
d="M27 0l458 1384h367l459 -1384h-289l-92 281h-533l-90 -281h-280zM477 528h373l-186 572zM822 1544l-146 174l-149 -174h-209l235 361h244l236 -361h-211zM809 -248q0 -74 -36 -102.5t-110 -28.5q-82 0 -111.5 34t-29.5 97q0 70 31.5 100.5t109.5 30.5t112 -29.5
t34 -101.5z" />
    <glyph glyph-name="acircumflexdotbelow" unicode="&#x1ead;" horiz-adv-x="1139" 
d="M764 0v109q-153 -140 -328 -140q-174 0 -263 91.5t-89 234.5q0 112 45.5 185t135 114.5t257.5 58.5l221 21v47q0 88 -53 120.5t-155 32.5q-84 0 -144.5 -28t-89.5 -80l-201 129q53 89 166 136.5t273 47.5q245 0 353.5 -85.5t108.5 -280.5v-713h-237zM743 487l-131 -12
q-139 -12 -200.5 -53t-61.5 -123q0 -72 40 -98.5t106 -26.5q47 0 114.5 29.5t132.5 83.5v200zM688 1208l-146 174l-149 -174h-209l235 361h244l236 -361h-211zM666 -248q0 -74 -36 -102.5t-110 -28.5q-82 0 -111.5 34t-29.5 97q0 70 31.5 100.5t109.5 30.5t112 -29.5
t34 -101.5z" />
    <glyph glyph-name="Abreveacute" unicode="&#x1eae;" horiz-adv-x="1337" 
d="M27 0l458 1384h367l459 -1384h-289l-92 281h-533l-90 -281h-280zM477 528h373l-186 572zM1026 1835q0 -87 -43.5 -158.5t-126.5 -113t-191 -41.5t-190.5 41.5t-126 114t-43.5 157.5h188q15 -61 58 -86t116 -25q145 0 170 111h189zM555 1819l104 249h315l-225 -249h-194z
" />
    <glyph glyph-name="abreveacute" unicode="&#x1eaf;" horiz-adv-x="1139" 
d="M764 0v109q-153 -140 -328 -140q-174 0 -263 91.5t-89 234.5q0 112 45.5 185t135 114.5t257.5 58.5l221 21v47q0 88 -53 120.5t-155 32.5q-84 0 -144.5 -28t-89.5 -80l-201 129q53 89 166 136.5t273 47.5q245 0 353.5 -85.5t108.5 -280.5v-713h-237zM743 487l-131 -12
q-139 -12 -200.5 -53t-61.5 -123q0 -72 40 -98.5t106 -26.5q47 0 114.5 29.5t132.5 83.5v200zM903 1520q0 -88 -43.5 -159.5t-126 -113t-191.5 -41.5q-108 0 -190.5 41.5t-126 114t-43.5 158.5h188q15 -62 58 -86.5t116 -24.5q68 0 112 24.5t58 86.5h189zM432 1503l104 250
h315l-225 -250h-194z" />
    <glyph glyph-name="Abrevegrave" unicode="&#x1eb0;" horiz-adv-x="1337" 
d="M27 0l458 1384h367l459 -1384h-289l-92 281h-533l-90 -281h-280zM477 528h373l-186 572zM1026 1835q0 -87 -43.5 -158.5t-126.5 -113t-191 -41.5t-190.5 41.5t-126 114t-43.5 157.5h188q15 -61 58 -86t116 -25q145 0 170 111h189zM581 1819l-225 249h315l105 -249h-195z
" />
    <glyph glyph-name="abrevegrave" unicode="&#x1eb1;" horiz-adv-x="1139" 
d="M764 0v109q-153 -140 -328 -140q-174 0 -263 91.5t-89 234.5q0 112 45.5 185t135 114.5t257.5 58.5l221 21v47q0 88 -53 120.5t-155 32.5q-84 0 -144.5 -28t-89.5 -80l-201 129q53 89 166 136.5t273 47.5q245 0 353.5 -85.5t108.5 -280.5v-713h-237zM743 487l-131 -12
q-139 -12 -200.5 -53t-61.5 -123q0 -72 40 -98.5t106 -26.5q47 0 114.5 29.5t132.5 83.5v200zM903 1520q0 -88 -43.5 -159.5t-126 -113t-191.5 -41.5q-108 0 -190.5 41.5t-126 114t-43.5 158.5h188q15 -62 58 -86.5t116 -24.5q68 0 112 24.5t58 86.5h189zM458 1503l-225 250
h315l105 -250h-195z" />
    <glyph glyph-name="Abrevehookabove" unicode="&#x1eb2;" horiz-adv-x="1337" 
d="M27 0l458 1384h367l459 -1384h-289l-92 281h-533l-90 -281h-280zM477 528h373l-186 572zM1026 1835q0 -87 -43.5 -158.5t-126.5 -113t-191 -41.5t-190.5 41.5t-126 114t-43.5 157.5h188q15 -61 58 -86t116 -25q145 0 170 111h189zM483 2152q68 54 197 54q104 0 160.5 -46
t56.5 -120q0 -71 -47.5 -118t-128.5 -52v-43h-125v137h43q73 0 73 59q0 52 -75 52q-53 0 -97 -25z" />
    <glyph glyph-name="abrevehookabove" unicode="&#x1eb3;" horiz-adv-x="1139" 
d="M764 0v109q-153 -140 -328 -140q-174 0 -263 91.5t-89 234.5q0 112 45.5 185t135 114.5t257.5 58.5l221 21v47q0 88 -53 120.5t-155 32.5q-84 0 -144.5 -28t-89.5 -80l-201 129q53 89 166 136.5t273 47.5q245 0 353.5 -85.5t108.5 -280.5v-713h-237zM743 487l-131 -12
q-139 -12 -200.5 -53t-61.5 -123q0 -72 40 -98.5t106 -26.5q47 0 114.5 29.5t132.5 83.5v200zM903 1520q0 -88 -43.5 -159.5t-126 -113t-191.5 -41.5q-108 0 -190.5 41.5t-126 114t-43.5 158.5h188q15 -62 58 -86.5t116 -24.5q68 0 112 24.5t58 86.5h189zM360 1837
q67 53 197 53q104 0 160.5 -46t56.5 -120q0 -72 -49 -118.5t-127 -51.5v-43h-125v138h43q73 0 73 59q0 51 -75 51q-55 0 -97 -24z" />
    <glyph glyph-name="Abrevetilde" unicode="&#x1eb4;" horiz-adv-x="1337" 
d="M27 0l458 1384h367l459 -1384h-289l-92 281h-533l-90 -281h-280zM477 528h373l-186 572zM1026 1825q0 -133 -98 -218t-263 -85q-166 0 -263 85.5t-97 217.5h188q15 -62 58 -86.5t116 -24.5q68 0 112 24.5t58 86.5h189zM256 1903q5 135 74 205.5t188 70.5q49 0 91 -15.5
t79 -35t69.5 -34.5t65.5 -15q37 0 50 23.5t18 62.5h182q-10 -145 -75.5 -213t-188.5 -68q-54 0 -96 16.5t-77.5 36t-66.5 36t-64 16.5q-38 0 -50.5 -23.5t-16.5 -62.5h-182z" />
    <glyph glyph-name="abrevetilde" unicode="&#x1eb5;" horiz-adv-x="1139" 
d="M764 0v109q-153 -140 -328 -140q-174 0 -263 91.5t-89 234.5q0 112 45.5 185t135 114.5t257.5 58.5l221 21v47q0 88 -53 120.5t-155 32.5q-84 0 -144.5 -28t-89.5 -80l-201 129q53 89 166 136.5t273 47.5q245 0 353.5 -85.5t108.5 -280.5v-713h-237zM743 487l-131 -12
q-139 -12 -200.5 -53t-61.5 -123q0 -72 40 -98.5t106 -26.5q47 0 114.5 29.5t132.5 83.5v200zM903 1509q0 -133 -98 -218t-263 -85q-110 0 -190.5 38.5t-125 109t-44.5 155.5h188q15 -61 58 -85.5t116 -24.5q68 0 112 24.5t58 85.5h189zM133 1587q5 136 74 206.5t188 70.5
q49 0 91 -15.5t79 -35t69.5 -35t65.5 -15.5q37 0 50 23.5t18 62.5h182q-10 -144 -76 -212t-188 -68q-54 0 -96 16.5t-77.5 35.5t-66.5 35.5t-64 16.5q-38 0 -50.5 -23.5t-16.5 -62.5h-182z" />
    <glyph glyph-name="Abrevedotbelow" unicode="&#x1eb6;" horiz-adv-x="1337" 
d="M27 0l458 1384h367l459 -1384h-289l-92 281h-533l-90 -281h-280zM477 528h373l-186 572zM1026 1845q0 -88 -44.5 -161.5t-127 -117.5t-189.5 -44q-106 0 -188.5 43.5t-127 117.5t-44.5 162h188q15 -47 58 -75.5t116 -28.5q68 0 112 28.5t58 75.5h189zM809 -248
q0 -74 -36 -102.5t-110 -28.5q-82 0 -111.5 34t-29.5 97q0 70 31.5 100.5t109.5 30.5t112 -29.5t34 -101.5z" />
    <glyph glyph-name="abrevedotbelow" unicode="&#x1eb7;" horiz-adv-x="1139" 
d="M764 0v109q-153 -140 -328 -140q-174 0 -263 91.5t-89 234.5q0 112 45.5 185t135 114.5t257.5 58.5l221 21v47q0 88 -53 120.5t-155 32.5q-84 0 -144.5 -28t-89.5 -80l-201 129q53 89 166 136.5t273 47.5q245 0 353.5 -85.5t108.5 -280.5v-713h-237zM743 487l-131 -12
q-139 -12 -200.5 -53t-61.5 -123q0 -72 40 -98.5t106 -26.5q47 0 114.5 29.5t132.5 83.5v200zM903 1509q0 -88 -44.5 -161.5t-127 -117.5t-189.5 -44q-106 0 -188.5 43.5t-127 117.5t-44.5 162h188q15 -47 58 -75.5t116 -28.5q68 0 112 28.5t58 75.5h189zM666 -248
q0 -74 -36 -102.5t-110 -28.5q-82 0 -111.5 34t-29.5 97q0 70 31.5 100.5t109.5 30.5t112 -29.5t34 -101.5z" />
    <glyph glyph-name="Edotbelow" unicode="&#x1eb8;" horiz-adv-x="1149" 
d="M150 0v1384h899v-249h-617v-295h520v-250h-520v-332h617v-258h-899zM738 -248q0 -74 -36 -102.5t-110 -28.5q-82 0 -111.5 34t-29.5 97q0 70 31.5 100.5t109.5 30.5t112 -29.5t34 -101.5z" />
    <glyph glyph-name="edotbelow" unicode="&#x1eb9;" horiz-adv-x="1143" 
d="M358 457q7 -140 68 -201t192 -61q76 0 133.5 19t100.5 73l192 -137q-63 -91 -163.5 -136t-274.5 -45q-259 0 -386.5 136t-127.5 411q0 563 504 563q224 0 341.5 -126.5t117.5 -368.5v-127h-697zM799 635q0 239 -209 239q-69 0 -113 -23.5t-70.5 -70t-41.5 -145.5h434z
M725 -248q0 -74 -36 -102.5t-110 -28.5q-82 0 -111.5 34t-29.5 97q0 70 31.5 100.5t109.5 30.5t112 -29.5t34 -101.5z" />
    <glyph glyph-name="Ehookabove" unicode="&#x1eba;" horiz-adv-x="1149" 
d="M150 0v1384h899v-249h-617v-295h520v-250h-520v-332h617v-258h-899zM391 1823q70 53 197 53q104 0 160.5 -46t56.5 -120q0 -69 -47 -116.5t-127 -53.5v-43h-127v137h43q74 0 74 60q0 51 -76 51q-58 0 -96 -25z" />
    <glyph glyph-name="ehookabove" unicode="&#x1ebb;" horiz-adv-x="1143" 
d="M358 457q7 -140 68 -201t192 -61q76 0 133.5 19t100.5 73l192 -137q-63 -91 -163.5 -136t-274.5 -45q-259 0 -386.5 136t-127.5 411q0 563 504 563q224 0 341.5 -126.5t117.5 -368.5v-127h-697zM799 635q0 239 -209 239q-69 0 -113 -23.5t-70.5 -70t-41.5 -145.5h434z
M385 1487q70 53 197 53q104 0 160.5 -46t56.5 -120q0 -69 -47 -116.5t-127 -53.5v-43h-127v137h43q74 0 74 60q0 51 -76 51q-58 0 -96 -25z" />
    <glyph glyph-name="Etilde" unicode="&#x1ebc;" horiz-adv-x="1149" 
d="M150 0v1384h899v-249h-617v-295h520v-250h-520v-332h617v-258h-899zM189 1567q5 155 73 236t189 81q61 0 104 -22.5t77 -48t62.5 -48t61.5 -22.5q34 0 51 33t17 94h182q-10 -165 -75.5 -243.5t-188.5 -78.5q-66 0 -109 22.5t-75.5 50.5t-59.5 50.5t-60 22.5
q-67 0 -67 -127h-182z" />
    <glyph glyph-name="etilde" unicode="&#x1ebd;" horiz-adv-x="1143" 
d="M358 457q7 -140 68 -201t192 -61q76 0 133.5 19t100.5 73l192 -137q-63 -91 -163.5 -136t-274.5 -45q-259 0 -386.5 136t-127.5 411q0 563 504 563q224 0 341.5 -126.5t117.5 -368.5v-127h-697zM799 635q0 239 -209 239q-69 0 -113 -23.5t-70.5 -70t-41.5 -145.5h434z
M179 1231q5 155 73 236t189 81q61 0 104 -22.5t77 -48t62.5 -48t61.5 -22.5q35 0 51.5 35t16.5 92h182q-10 -165 -75.5 -243.5t-188.5 -78.5q-66 0 -109 22.5t-75.5 50.5t-59.5 50.5t-60 22.5q-67 0 -67 -127h-182z" />
    <glyph glyph-name="Ecircumflexacute" unicode="&#x1ebe;" horiz-adv-x="1149" 
d="M150 0v1384h899v-249h-617v-295h520v-250h-520v-332h617v-258h-899zM740 1503l-146 133l-149 -133h-209l235 299h244l236 -299h-211zM824 1716l153 291h316l-265 -291h-204z" />
    <glyph glyph-name="ecircumflexacute" unicode="&#x1ebf;" horiz-adv-x="1143" 
d="M358 457q7 -140 68 -201t192 -61q76 0 133.5 19t100.5 73l192 -137q-63 -91 -163.5 -136t-274.5 -45q-259 0 -386.5 136t-127.5 411q0 563 504 563q224 0 341.5 -126.5t117.5 -368.5v-127h-697zM799 635q0 239 -209 239q-69 0 -113 -23.5t-70.5 -70t-41.5 -145.5h434z
M729 1167l-146 144l-149 -144h-209l235 299h244l236 -299h-211zM813 1380l153 291h316l-265 -291h-204z" />
    <glyph glyph-name="Ecircumflexgrave" unicode="&#x1ec0;" horiz-adv-x="1149" 
d="M150 0v1384h899v-249h-617v-295h520v-250h-520v-332h617v-258h-899zM740 1503l-146 133l-149 -133h-209l235 299h244l236 -299h-211zM160 1716l-264 291h315l154 -291h-205z" />
    <glyph glyph-name="ecircumflexgrave" unicode="&#x1ec1;" horiz-adv-x="1143" 
d="M358 457q7 -140 68 -201t192 -61q76 0 133.5 19t100.5 73l192 -137q-63 -91 -163.5 -136t-274.5 -45q-259 0 -386.5 136t-127.5 411q0 563 504 563q224 0 341.5 -126.5t117.5 -368.5v-127h-697zM799 635q0 239 -209 239q-69 0 -113 -23.5t-70.5 -70t-41.5 -145.5h434z
M740 1167l-146 133l-149 -133h-209l235 299h244l236 -299h-211zM160 1380l-264 291h315l154 -291h-205z" />
    <glyph glyph-name="Ecircumflexhookabove" unicode="&#x1ec2;" horiz-adv-x="1149" 
d="M150 0v1384h899v-249h-617v-295h520v-250h-520v-332h617v-258h-899zM740 1503l-146 133l-149 -133h-209l235 299h244l236 -299h-211zM731 2001q70 53 197 53q105 0 161 -46t56 -120q0 -69 -47 -116.5t-127 -53.5v-43h-127v137h43q74 0 74 60q0 51 -76 51q-58 0 -96 -25z
" />
    <glyph glyph-name="ecircumflexhookabove" unicode="&#x1ec3;" horiz-adv-x="1143" 
d="M358 457q7 -140 68 -201t192 -61q76 0 133.5 19t100.5 73l192 -137q-63 -91 -163.5 -136t-274.5 -45q-259 0 -386.5 136t-127.5 411q0 563 504 563q224 0 341.5 -126.5t117.5 -368.5v-127h-697zM799 635q0 239 -209 239q-69 0 -113 -23.5t-70.5 -70t-41.5 -145.5h434z
M729 1167l-146 133l-149 -133h-209l235 299h244l236 -299h-211zM720 1665q67 53 197 53q105 0 161 -46t56 -120q0 -69 -47 -116.5t-127 -53.5v-43h-127v138h43q74 0 74 59q0 51 -76 51q-56 0 -96 -24z" />
    <glyph glyph-name="Ecircumflextilde" unicode="&#x1ec4;" horiz-adv-x="1149" 
d="M150 0v1384h899v-249h-617v-295h520v-250h-520v-332h617v-258h-899zM750 1503l-146 123l-149 -123h-209l235 279h244l236 -279h-211zM195 1849q5 136 74 206.5t188 70.5q49 0 91 -15.5t79 -35t69.5 -35t65.5 -15.5q37 0 50 24t18 62h182q-10 -144 -76 -212t-188 -68
q-54 0 -96 16.5t-77.5 36t-66.5 35.5t-64 16q-38 0 -50.5 -23.5t-16.5 -62.5h-182z" />
    <glyph glyph-name="ecircumflextilde" unicode="&#x1ec5;" horiz-adv-x="1143" 
d="M358 457q7 -140 68 -201t192 -61q76 0 133.5 19t100.5 73l192 -137q-63 -91 -163.5 -136t-274.5 -45q-259 0 -386.5 136t-127.5 411q0 563 504 563q224 0 341.5 -126.5t117.5 -368.5v-127h-697zM799 635q0 239 -209 239q-69 0 -113 -23.5t-70.5 -70t-41.5 -145.5h434z
M729 1167l-146 123l-149 -123h-209l235 279h244l236 -279h-211zM174 1513q5 136 74 206.5t188 70.5q49 0 91 -15.5t79 -35t69.5 -34.5t65.5 -15q37 0 50 23.5t18 62.5h182q-10 -145 -75.5 -213t-188.5 -68q-54 0 -96 16.5t-77.5 36t-66.5 35.5t-64 16q-38 0 -50.5 -23.5
t-16.5 -62.5h-182z" />
    <glyph glyph-name="Ecircumflexdotbelow" unicode="&#x1ec6;" horiz-adv-x="1149" 
d="M150 0v1384h899v-249h-617v-295h520v-250h-520v-332h617v-258h-899zM750 1544l-146 174l-149 -174h-209l235 361h244l236 -361h-211zM738 -248q0 -74 -36 -102.5t-110 -28.5q-82 0 -111.5 34t-29.5 97q0 70 31.5 100.5t109.5 30.5t112 -29.5t34 -101.5z" />
    <glyph glyph-name="ecircumflexdotbelow" unicode="&#x1ec7;" horiz-adv-x="1143" 
d="M358 457q7 -140 68 -201t192 -61q76 0 133.5 19t100.5 73l192 -137q-63 -91 -163.5 -136t-274.5 -45q-259 0 -386.5 136t-127.5 411q0 563 504 563q224 0 341.5 -126.5t117.5 -368.5v-127h-697zM799 635q0 239 -209 239q-69 0 -113 -23.5t-70.5 -70t-41.5 -145.5h434z
M729 1208l-146 174l-149 -174h-209l235 361h244l236 -361h-211zM727 -248q0 -74 -36 -102.5t-110 -28.5q-82 0 -111.5 34t-29.5 97q0 70 31.5 100.5t109.5 30.5t112 -29.5t34 -101.5z" />
    <glyph glyph-name="Ihookabove" unicode="&#x1ec8;" horiz-adv-x="872" 
d="M770 0h-668v217h193v950h-193v217h668v-217h-192v-950h192v-217zM225 1823q70 53 197 53q104 0 160.5 -46t56.5 -120q0 -69 -47 -116.5t-127 -53.5v-43h-127v137h43q74 0 74 60q0 51 -76 51q-58 0 -96 -25z" />
    <glyph glyph-name="ihookabove" unicode="&#x1ec9;" horiz-adv-x="549" 
d="M145 0v1049h258v-1049h-258zM69 1487q70 53 197 53q104 0 160.5 -46t56.5 -120q0 -69 -47 -116.5t-127 -53.5v-43h-127v137h43q74 0 74 60q0 51 -76 51q-58 0 -96 -25z" />
    <glyph glyph-name="Idotbelow" unicode="&#x1eca;" horiz-adv-x="872" 
d="M770 0h-668v217h193v950h-193v217h668v-217h-192v-950h192v-217zM582 -248q0 -74 -36 -102.5t-110 -28.5q-82 0 -111.5 34t-29.5 97q0 70 31.5 100.5t109.5 30.5t112 -29.5t34 -101.5z" />
    <glyph glyph-name="idotbelow" unicode="&#x1ecb;" horiz-adv-x="549" 
d="M418 1335q0 -73 -36 -102t-110 -29q-82 0 -111.5 34t-29.5 97q0 70 32 100.5t109 30.5q78 0 112 -29.5t34 -101.5zM145 0v1049h258v-1049h-258zM420 -248q0 -74 -36 -102.5t-110 -28.5q-82 0 -111.5 34t-29.5 97q0 70 31.5 100.5t109.5 30.5t112 -29.5t34 -101.5z" />
    <glyph glyph-name="Odotbelow" unicode="&#x1ecc;" horiz-adv-x="1364" 
d="M1278 692q0 -361 -152.5 -541t-443.5 -180q-307 0 -451.5 189.5t-144.5 531.5q0 344 144.5 532.5t451.5 188.5q309 0 452.5 -188.5t143.5 -532.5zM987 692q0 246 -69.5 358.5t-235.5 112.5t-235.5 -112.5t-69.5 -358.5t70.5 -358.5t234.5 -112.5q166 0 235.5 112.5
t69.5 358.5zM826 -248q0 -74 -36 -102.5t-110 -28.5q-82 0 -111.5 34t-29.5 97q0 70 31.5 100.5t109.5 30.5t112 -29.5t34 -101.5z" />
    <glyph glyph-name="odotbelow" unicode="&#x1ecd;" horiz-adv-x="1190" 
d="M1098 522q0 -262 -121 -407.5t-381 -145.5q-504 0 -504 553q0 266 121 411.5t383 145.5q260 0 381 -145.5t121 -411.5zM831 522q0 173 -54 252.5t-181 79.5q-126 0 -182 -81.5t-56 -250.5q0 -168 55.5 -247.5t182.5 -79.5q125 0 180 78.5t55 248.5zM738 -248
q0 -74 -36 -102.5t-110 -28.5q-82 0 -111.5 34t-29.5 97q0 70 31.5 100.5t109.5 30.5t112 -29.5t34 -101.5z" />
    <glyph glyph-name="Ohookabove" unicode="&#x1ece;" horiz-adv-x="1364" 
d="M1278 692q0 -361 -152.5 -541t-443.5 -180q-307 0 -451.5 189.5t-144.5 531.5q0 344 144.5 532.5t451.5 188.5q309 0 452.5 -188.5t143.5 -532.5zM987 692q0 246 -69.5 358.5t-235.5 112.5t-235.5 -112.5t-69.5 -358.5t70.5 -358.5t234.5 -112.5q166 0 235.5 112.5
t69.5 358.5zM454 1823q70 53 197 53q104 0 160.5 -46t56.5 -120q0 -69 -47 -116.5t-127 -53.5v-43h-127v137h43q74 0 74 60q0 51 -76 51q-58 0 -96 -25z" />
    <glyph glyph-name="ohookabove" unicode="&#x1ecf;" horiz-adv-x="1190" 
d="M1098 522q0 -262 -121 -407.5t-381 -145.5q-504 0 -504 553q0 266 121 411.5t383 145.5q260 0 381 -145.5t121 -411.5zM831 522q0 173 -54 252.5t-181 79.5q-126 0 -182 -81.5t-56 -250.5q0 -168 55.5 -247.5t182.5 -79.5q125 0 180 78.5t55 248.5zM387 1487
q70 53 197 53q104 0 160.5 -46t56.5 -120q0 -69 -47 -116.5t-127 -53.5v-43h-127v137h43q74 0 74 60q0 51 -76 51q-58 0 -96 -25z" />
    <glyph glyph-name="Ocircumflexacute" unicode="&#x1ed0;" horiz-adv-x="1364" 
d="M1278 692q0 -361 -152.5 -541t-443.5 -180q-307 0 -451.5 189.5t-144.5 531.5q0 344 144.5 532.5t451.5 188.5q309 0 452.5 -188.5t143.5 -532.5zM987 692q0 246 -69.5 358.5t-235.5 112.5t-235.5 -112.5t-69.5 -358.5t70.5 -358.5t234.5 -112.5q166 0 235.5 112.5
t69.5 358.5zM822 1503l-146 133l-149 -133h-209l235 299h244l236 -299h-211zM906 1716l153 291h316l-265 -291h-204z" />
    <glyph glyph-name="ocircumflexacute" unicode="&#x1ed1;" horiz-adv-x="1190" 
d="M1098 522q0 -262 -121 -407.5t-381 -145.5q-504 0 -504 553q0 266 121 411.5t383 145.5q260 0 381 -145.5t121 -411.5zM831 522q0 173 -54 252.5t-181 79.5q-126 0 -182 -81.5t-56 -250.5q0 -168 55.5 -247.5t182.5 -79.5q125 0 180 78.5t55 248.5zM740 1167l-146 144
l-149 -144h-209l235 299h244l236 -299h-211zM824 1380l153 291h316l-265 -291h-204z" />
    <glyph glyph-name="Ocircumflexgrave" unicode="&#x1ed2;" horiz-adv-x="1364" 
d="M1278 692q0 -361 -152.5 -541t-443.5 -180q-307 0 -451.5 189.5t-144.5 531.5q0 344 144.5 532.5t451.5 188.5q309 0 452.5 -188.5t143.5 -532.5zM987 692q0 246 -69.5 358.5t-235.5 112.5t-235.5 -112.5t-69.5 -358.5t70.5 -358.5t234.5 -112.5q166 0 235.5 112.5
t69.5 358.5zM832 1503l-146 133l-149 -133h-209l235 299h244l236 -299h-211zM252 1716l-264 291h315l154 -291h-205z" />
    <glyph glyph-name="ocircumflexgrave" unicode="&#x1ed3;" horiz-adv-x="1190" 
d="M1098 522q0 -262 -121 -407.5t-381 -145.5q-504 0 -504 553q0 266 121 411.5t383 145.5q260 0 381 -145.5t121 -411.5zM831 522q0 173 -54 252.5t-181 79.5q-126 0 -182 -81.5t-56 -250.5q0 -168 55.5 -247.5t182.5 -79.5q125 0 180 78.5t55 248.5zM740 1167l-146 133
l-149 -133h-209l235 299h244l236 -299h-211zM160 1380l-264 291h315l154 -291h-205z" />
    <glyph glyph-name="Ocircumflexhookabove" unicode="&#x1ed4;" horiz-adv-x="1364" 
d="M1278 692q0 -361 -152.5 -541t-443.5 -180q-307 0 -451.5 189.5t-144.5 531.5q0 344 144.5 532.5t451.5 188.5q309 0 452.5 -188.5t143.5 -532.5zM987 692q0 246 -69.5 358.5t-235.5 112.5t-235.5 -112.5t-69.5 -358.5t70.5 -358.5t234.5 -112.5q166 0 235.5 112.5
t69.5 358.5zM832 1503l-146 133l-149 -133h-209l235 299h244l236 -299h-211zM823 2001q70 53 197 53q105 0 161 -46t56 -120q0 -69 -47 -116.5t-127 -53.5v-43h-127v137h43q74 0 74 60q0 51 -76 51q-58 0 -96 -25z" />
    <glyph glyph-name="ocircumflexhookabove" unicode="&#x1ed5;" horiz-adv-x="1190" 
d="M1098 522q0 -262 -121 -407.5t-381 -145.5q-504 0 -504 553q0 266 121 411.5t383 145.5q260 0 381 -145.5t121 -411.5zM831 522q0 173 -54 252.5t-181 79.5q-126 0 -182 -81.5t-56 -250.5q0 -168 55.5 -247.5t182.5 -79.5q125 0 180 78.5t55 248.5zM740 1167l-146 133
l-149 -133h-209l235 299h244l236 -299h-211zM731 1665q67 53 197 53q105 0 161 -46t56 -120q0 -69 -47 -116.5t-127 -53.5v-43h-127v138h43q74 0 74 59q0 51 -76 51q-56 0 -96 -24z" />
    <glyph glyph-name="Ocircumflextilde" unicode="&#x1ed6;" horiz-adv-x="1364" 
d="M1278 692q0 -361 -152.5 -541t-443.5 -180q-307 0 -451.5 189.5t-144.5 531.5q0 344 144.5 532.5t451.5 188.5q309 0 452.5 -188.5t143.5 -532.5zM987 692q0 246 -69.5 358.5t-235.5 112.5t-235.5 -112.5t-69.5 -358.5t70.5 -358.5t234.5 -112.5q166 0 235.5 112.5
t69.5 358.5zM832 1503l-146 123l-149 -123h-209l235 279h244l236 -279h-211zM277 1849q5 136 74 206.5t188 70.5q49 0 91 -15.5t79 -35t69.5 -35t65.5 -15.5q37 0 50 24t18 62h182q-10 -144 -76 -212t-188 -68q-54 0 -96 16.5t-77.5 36t-66.5 35.5t-64 16q-38 0 -50.5 -23.5
t-16.5 -62.5h-182z" />
    <glyph glyph-name="ocircumflextilde" unicode="&#x1ed7;" horiz-adv-x="1190" 
d="M1098 522q0 -262 -121 -407.5t-381 -145.5q-504 0 -504 553q0 266 121 411.5t383 145.5q260 0 381 -145.5t121 -411.5zM831 522q0 173 -54 252.5t-181 79.5q-126 0 -182 -81.5t-56 -250.5q0 -168 55.5 -247.5t182.5 -79.5q125 0 180 78.5t55 248.5zM750 1167l-146 123
l-149 -123h-209l235 279h244l236 -279h-211zM195 1513q5 136 74 206.5t188 70.5q49 0 91 -15.5t79 -35t69.5 -34.5t65.5 -15q37 0 50 23.5t18 62.5h182q-10 -145 -75.5 -213t-188.5 -68q-54 0 -96 16.5t-77.5 36t-66.5 35.5t-64 16q-38 0 -50.5 -23.5t-16.5 -62.5h-182z" />
    <glyph glyph-name="Ocircumflexdotbelow" unicode="&#x1ed8;" horiz-adv-x="1364" 
d="M1278 692q0 -361 -152.5 -541t-443.5 -180q-307 0 -451.5 189.5t-144.5 531.5q0 344 144.5 532.5t451.5 188.5q309 0 452.5 -188.5t143.5 -532.5zM987 692q0 246 -69.5 358.5t-235.5 112.5t-235.5 -112.5t-69.5 -358.5t70.5 -358.5t234.5 -112.5q166 0 235.5 112.5
t69.5 358.5zM822 1544l-146 174l-149 -174h-209l235 361h244l236 -361h-211zM809 -248q0 -74 -36 -102.5t-110 -28.5q-82 0 -111.5 34t-29.5 97q0 70 31.5 100.5t109.5 30.5t112 -29.5t34 -101.5z" />
    <glyph glyph-name="ocircumflexdotbelow" unicode="&#x1ed9;" horiz-adv-x="1190" 
d="M1098 522q0 -262 -121 -407.5t-381 -145.5q-504 0 -504 553q0 266 121 411.5t383 145.5q260 0 381 -145.5t121 -411.5zM831 522q0 173 -54 252.5t-181 79.5q-126 0 -182 -81.5t-56 -250.5q0 -168 55.5 -247.5t182.5 -79.5q125 0 180 78.5t55 248.5zM750 1208l-146 174
l-149 -174h-209l235 361h244l236 -361h-211zM738 -248q0 -74 -36 -102.5t-110 -28.5q-82 0 -111.5 34t-29.5 97q0 70 31.5 100.5t109.5 30.5t112 -29.5t34 -101.5z" />
    <glyph glyph-name="Ohornacute" unicode="&#x1eda;" horiz-adv-x="1540" 
d="M1581 1446v-162q0 -170 -74.5 -255t-234.5 -85h-17q23 -119 23 -252q0 -361 -152.5 -541t-443.5 -180q-307 0 -451.5 189.5t-144.5 531.5q0 344 144.5 532.5t451.5 188.5q386 0 518 -297h23q86 0 116.5 40t30.5 128v162h211zM987 692q0 246 -69.5 358.5t-235.5 112.5
t-235.5 -112.5t-69.5 -358.5t70.5 -358.5t234.5 -112.5q166 0 235.5 112.5t69.5 358.5zM717 1544h-205l189 361h315z" />
    <glyph glyph-name="ohornacute" unicode="&#x1edb;" horiz-adv-x="1352" 
d="M1098 522q0 -262 -121 -407.5t-381 -145.5q-504 0 -504 553q0 266 121 411.5t383 145.5q328 0 440 -237q84 0 115 40t31 128v120h211v-120q0 -318 -306 -340q11 -77 11 -148zM831 522q0 173 -54 252.5t-181 79.5q-126 0 -182 -81.5t-56 -250.5q0 -168 55.5 -247.5
t182.5 -79.5q125 0 180 78.5t55 248.5zM635 1208h-205l189 361h315z" />
    <glyph glyph-name="Ohorngrave" unicode="&#x1edc;" horiz-adv-x="1540" 
d="M1581 1446v-162q0 -170 -74.5 -255t-234.5 -85h-17q23 -119 23 -252q0 -361 -152.5 -541t-443.5 -180q-307 0 -451.5 189.5t-144.5 531.5q0 344 144.5 532.5t451.5 188.5q386 0 518 -297h23q86 0 116.5 40t30.5 128v162h211zM987 692q0 246 -69.5 358.5t-235.5 112.5
t-235.5 -112.5t-69.5 -358.5t70.5 -358.5t234.5 -112.5q166 0 235.5 112.5t69.5 358.5zM658 1544l-299 361h315l188 -361h-204z" />
    <glyph glyph-name="ohorngrave" unicode="&#x1edd;" horiz-adv-x="1352" 
d="M1098 522q0 -262 -121 -407.5t-381 -145.5q-504 0 -504 553q0 266 121 411.5t383 145.5q328 0 440 -237q84 0 115 40t31 128v120h211v-120q0 -318 -306 -340q11 -77 11 -148zM831 522q0 173 -54 252.5t-181 79.5q-126 0 -182 -81.5t-56 -250.5q0 -168 55.5 -247.5
t182.5 -79.5q125 0 180 78.5t55 248.5zM576 1208l-299 361h315l188 -361h-204z" />
    <glyph glyph-name="Ohornhookabove" unicode="&#x1ede;" horiz-adv-x="1540" 
d="M1581 1446v-162q0 -170 -74.5 -255t-234.5 -85h-17q23 -119 23 -252q0 -361 -152.5 -541t-443.5 -180q-307 0 -451.5 189.5t-144.5 531.5q0 344 144.5 532.5t451.5 188.5q386 0 518 -297h23q86 0 116.5 40t30.5 128v162h211zM987 692q0 246 -69.5 358.5t-235.5 112.5
t-235.5 -112.5t-69.5 -358.5t70.5 -358.5t234.5 -112.5q166 0 235.5 112.5t69.5 358.5zM479 1823q70 53 197 53q104 0 160.5 -46t56.5 -120q0 -69 -47 -116.5t-127 -53.5v-43h-127v137h43q74 0 74 60q0 51 -76 51q-58 0 -96 -25z" />
    <glyph glyph-name="ohornhookabove" unicode="&#x1edf;" horiz-adv-x="1352" 
d="M1098 522q0 -262 -121 -407.5t-381 -145.5q-504 0 -504 553q0 266 121 411.5t383 145.5q328 0 440 -237q84 0 115 40t31 128v120h211v-120q0 -318 -306 -340q11 -77 11 -148zM831 522q0 173 -54 252.5t-181 79.5q-126 0 -182 -81.5t-56 -250.5q0 -168 55.5 -247.5
t182.5 -79.5q125 0 180 78.5t55 248.5zM397 1487q70 53 197 53q104 0 160.5 -46t56.5 -120q0 -69 -47 -116.5t-127 -53.5v-43h-127v137h43q74 0 74 60q0 51 -76 51q-58 0 -96 -25z" />
    <glyph glyph-name="Ohorntilde" unicode="&#x1ee0;" horiz-adv-x="1540" 
d="M1581 1446v-162q0 -170 -74.5 -255t-234.5 -85h-17q23 -119 23 -252q0 -361 -152.5 -541t-443.5 -180q-307 0 -451.5 189.5t-144.5 531.5q0 344 144.5 532.5t451.5 188.5q386 0 518 -297h23q86 0 116.5 40t30.5 128v162h211zM987 692q0 246 -69.5 358.5t-235.5 112.5
t-235.5 -112.5t-69.5 -358.5t70.5 -358.5t234.5 -112.5q166 0 235.5 112.5t69.5 358.5zM277 1567q5 155 73 236t189 81q61 0 104 -22.5t77 -48t62.5 -48t61.5 -22.5q34 0 51 33t17 94h182q-10 -165 -75.5 -243.5t-188.5 -78.5q-66 0 -109 22.5t-75.5 50.5t-59.5 50.5
t-60 22.5q-67 0 -67 -127h-182z" />
    <glyph glyph-name="ohorntilde" unicode="&#x1ee1;" horiz-adv-x="1352" 
d="M1098 522q0 -262 -121 -407.5t-381 -145.5q-504 0 -504 553q0 266 121 411.5t383 145.5q328 0 440 -237q84 0 115 40t31 128v120h211v-120q0 -318 -306 -340q11 -77 11 -148zM831 522q0 173 -54 252.5t-181 79.5q-126 0 -182 -81.5t-56 -250.5q0 -168 55.5 -247.5
t182.5 -79.5q125 0 180 78.5t55 248.5zM185 1231q5 155 73 236t189 81q61 0 104 -22.5t77 -48t62.5 -48t61.5 -22.5q35 0 51.5 35t16.5 92h182q-10 -165 -75.5 -243.5t-188.5 -78.5q-66 0 -109 22.5t-75.5 50.5t-59.5 50.5t-60 22.5q-67 0 -67 -127h-182z" />
    <glyph glyph-name="Ohorndotbelow" unicode="&#x1ee2;" horiz-adv-x="1540" 
d="M1581 1446v-162q0 -170 -74.5 -255t-234.5 -85h-17q23 -119 23 -252q0 -361 -152.5 -541t-443.5 -180q-307 0 -451.5 189.5t-144.5 531.5q0 344 144.5 532.5t451.5 188.5q386 0 518 -297h23q86 0 116.5 40t30.5 128v162h211zM987 692q0 246 -69.5 358.5t-235.5 112.5
t-235.5 -112.5t-69.5 -358.5t70.5 -358.5t234.5 -112.5q166 0 235.5 112.5t69.5 358.5zM820 -248q0 -74 -36 -102.5t-110 -28.5q-82 0 -111.5 34t-29.5 97q0 70 31.5 100.5t109.5 30.5t112 -29.5t34 -101.5z" />
    <glyph glyph-name="ohorndotbelow" unicode="&#x1ee3;" horiz-adv-x="1352" 
d="M1098 522q0 -262 -121 -407.5t-381 -145.5q-504 0 -504 553q0 266 121 411.5t383 145.5q328 0 440 -237q84 0 115 40t31 128v120h211v-120q0 -318 -306 -340q11 -77 11 -148zM831 522q0 173 -54 252.5t-181 79.5q-126 0 -182 -81.5t-56 -250.5q0 -168 55.5 -247.5
t182.5 -79.5q125 0 180 78.5t55 248.5zM738 -248q0 -74 -36 -102.5t-110 -28.5q-82 0 -111.5 34t-29.5 97q0 70 31.5 100.5t109.5 30.5t112 -29.5t34 -101.5z" />
    <glyph glyph-name="Udotbelow" unicode="&#x1ee4;" horiz-adv-x="1438" 
d="M1288 578q0 -325 -132 -467t-437 -142q-302 0 -435.5 140.5t-133.5 468.5v806h282v-786q0 -141 27 -222t86 -119t172 -38q161 0 225 85.5t64 289.5v790h282v-806zM863 -248q0 -74 -36 -102.5t-110 -28.5q-82 0 -111.5 34t-29.5 97q0 70 31.5 100.5t109.5 30.5t112 -29.5
t34 -101.5z" />
    <glyph glyph-name="udotbelow" unicode="&#x1ee5;" horiz-adv-x="1217" 
d="M813 0v135q-68 -73 -166.5 -119.5t-189.5 -46.5q-178 0 -249 98.5t-71 280.5v701h258v-578q0 -111 13 -170t42.5 -81.5t86.5 -22.5q115 0 276 151v701h258v-1049h-258zM707 -248q0 -74 -36 -102.5t-110 -28.5q-82 0 -111.5 34t-29.5 97q0 70 31.5 100.5t109.5 30.5
t112 -29.5t34 -101.5z" />
    <glyph glyph-name="Uhookabove" unicode="&#x1ee6;" horiz-adv-x="1438" 
d="M1288 578q0 -325 -132 -467t-437 -142q-302 0 -435.5 140.5t-133.5 468.5v806h282v-786q0 -141 27 -222t86 -119t172 -38q161 0 225 85.5t64 289.5v790h282v-806zM510 1823q70 53 197 53q104 0 160.5 -46t56.5 -120q0 -69 -47 -116.5t-127 -53.5v-43h-127v137h43
q74 0 74 60q0 51 -76 51q-58 0 -96 -25z" />
    <glyph glyph-name="uhookabove" unicode="&#x1ee7;" horiz-adv-x="1217" 
d="M813 0v135q-68 -73 -166.5 -119.5t-189.5 -46.5q-178 0 -249 98.5t-71 280.5v701h258v-578q0 -111 13 -170t42.5 -81.5t86.5 -22.5q115 0 276 151v701h258v-1049h-258zM401 1487q70 53 197 53q104 0 160.5 -46t56.5 -120q0 -69 -47 -116.5t-127 -53.5v-43h-127v137h43
q74 0 74 60q0 51 -76 51q-58 0 -96 -25z" />
    <glyph glyph-name="Uhornacute" unicode="&#x1ee8;" horiz-adv-x="1622" 
d="M1288 1116h17q86 0 116.5 40t30.5 128v162h211v-162q0 -340 -346 -340h-29v-366q0 -325 -132 -467t-437 -142q-302 0 -435.5 140.5t-133.5 468.5v806h282v-786q0 -141 27 -222t86 -119t172 -38q161 0 225 85.5t64 289.5v790h282v-268zM758 1544h-205l189 361h315z" />
    <glyph glyph-name="uhornacute" unicode="&#x1ee9;" horiz-adv-x="1395" 
d="M813 0v135q-68 -73 -166.5 -119.5t-189.5 -46.5q-178 0 -249 98.5t-71 280.5v701h258v-578q0 -111 13 -170t42.5 -81.5t86.5 -22.5q115 0 276 151v701h258v-207h12q84 0 113 40t29 128v120h211v-120q0 -340 -340 -340h-25v-670h-258zM645 1208h-205l189 361h315z" />
    <glyph glyph-name="Uhorngrave" unicode="&#x1eea;" horiz-adv-x="1622" 
d="M1288 1116h17q86 0 116.5 40t30.5 128v162h211v-162q0 -340 -346 -340h-29v-366q0 -325 -132 -467t-437 -142q-302 0 -435.5 140.5t-133.5 468.5v806h282v-786q0 -141 27 -222t86 -119t172 -38q161 0 225 85.5t64 289.5v790h282v-268zM678 1544l-299 361h315l188 -361
h-204z" />
    <glyph glyph-name="uhorngrave" unicode="&#x1eeb;" horiz-adv-x="1395" 
d="M813 0v135q-68 -73 -166.5 -119.5t-189.5 -46.5q-178 0 -249 98.5t-71 280.5v701h258v-578q0 -111 13 -170t42.5 -81.5t86.5 -22.5q115 0 276 151v701h258v-207h12q84 0 113 40t29 128v120h211v-120q0 -340 -340 -340h-25v-670h-258zM555 1208l-299 361h315l188 -361
h-204z" />
    <glyph glyph-name="Uhornhookabove" unicode="&#x1eec;" horiz-adv-x="1622" 
d="M1288 1116h17q86 0 116.5 40t30.5 128v162h211v-162q0 -340 -346 -340h-29v-366q0 -325 -132 -467t-437 -142q-302 0 -435.5 140.5t-133.5 468.5v806h282v-786q0 -141 27 -222t86 -119t172 -38q161 0 225 85.5t64 289.5v790h282v-268zM514 1823q70 53 197 53
q104 0 160.5 -46t56.5 -120q0 -69 -47 -116.5t-127 -53.5v-43h-127v137h43q74 0 74 60q0 51 -76 51q-58 0 -96 -25z" />
    <glyph glyph-name="uhornhookabove" unicode="&#x1eed;" horiz-adv-x="1395" 
d="M813 0v135q-68 -73 -166.5 -119.5t-189.5 -46.5q-178 0 -249 98.5t-71 280.5v701h258v-578q0 -111 13 -170t42.5 -81.5t86.5 -22.5q115 0 276 151v701h258v-207h12q84 0 113 40t29 128v120h211v-120q0 -340 -340 -340h-25v-670h-258zM397 1487q70 53 197 53
q104 0 160.5 -46t56.5 -120q0 -69 -47 -116.5t-127 -53.5v-43h-127v137h43q74 0 74 60q0 51 -76 51q-58 0 -96 -25z" />
    <glyph glyph-name="Uhorntilde" unicode="&#x1eee;" horiz-adv-x="1622" 
d="M1288 1116h17q86 0 116.5 40t30.5 128v162h211v-162q0 -340 -346 -340h-29v-366q0 -325 -132 -467t-437 -142q-302 0 -435.5 140.5t-133.5 468.5v806h282v-786q0 -141 27 -222t86 -119t172 -38q161 0 225 85.5t64 289.5v790h282v-268zM312 1567q5 155 73 236t189 81
q61 0 104 -22.5t77 -48t62.5 -48t61.5 -22.5q34 0 51 33t17 94h182q-10 -165 -75.5 -243.5t-188.5 -78.5q-66 0 -109 22.5t-75.5 50.5t-59.5 50.5t-60 22.5q-67 0 -67 -127h-182z" />
    <glyph glyph-name="uhorntilde" unicode="&#x1eef;" horiz-adv-x="1395" 
d="M813 0v135q-68 -73 -166.5 -119.5t-189.5 -46.5q-178 0 -249 98.5t-71 280.5v701h258v-578q0 -111 13 -170t42.5 -81.5t86.5 -22.5q115 0 276 151v701h258v-207h12q84 0 113 40t29 128v120h211v-120q0 -340 -340 -340h-25v-670h-258zM195 1231q5 155 73 236t189 81
q61 0 104 -22.5t77 -48t62.5 -48t61.5 -22.5q35 0 51.5 35t16.5 92h182q-10 -165 -75.5 -243.5t-188.5 -78.5q-66 0 -109 22.5t-75.5 50.5t-59.5 50.5t-60 22.5q-67 0 -67 -127h-182z" />
    <glyph glyph-name="Uhorndotbelow" unicode="&#x1ef0;" horiz-adv-x="1622" 
d="M1288 1116h17q86 0 116.5 40t30.5 128v162h211v-162q0 -340 -346 -340h-29v-366q0 -325 -132 -467t-437 -142q-302 0 -435.5 140.5t-133.5 468.5v806h282v-786q0 -141 27 -222t86 -119t172 -38q161 0 225 85.5t64 289.5v790h282v-268zM850 -248q0 -74 -36 -102.5
t-110 -28.5q-82 0 -111.5 34t-29.5 97q0 70 31.5 100.5t109.5 30.5t112 -29.5t34 -101.5z" />
    <glyph glyph-name="uhorndotbelow" unicode="&#x1ef1;" horiz-adv-x="1395" 
d="M813 0v135q-68 -73 -166.5 -119.5t-189.5 -46.5q-178 0 -249 98.5t-71 280.5v701h258v-578q0 -111 13 -170t42.5 -81.5t86.5 -22.5q115 0 276 151v701h258v-207h12q84 0 113 40t29 128v120h211v-120q0 -340 -340 -340h-25v-670h-258zM707 -248q0 -74 -36 -102.5
t-110 -28.5q-82 0 -111.5 34t-29.5 97q0 70 31.5 100.5t109.5 30.5t112 -29.5t34 -101.5z" />
    <glyph glyph-name="Ygrave" unicode="&#x1ef2;" horiz-adv-x="1188" 
d="M735 528v-528h-284v522l-433 862h308l270 -579l276 579h297zM560 1544l-299 361h315l188 -361h-204z" />
    <glyph glyph-name="ygrave" unicode="&#x1ef3;" horiz-adv-x="1085" 
d="M35 -141q84 -29 151 -29q58 0 102 35t91 145l27 62l-379 977h268l248 -670l254 670h262l-451 -1121q-55 -135 -107 -200t-121.5 -94t-174.5 -29q-114 0 -225 30zM490 1208l-299 361h315l188 -361h-204z" />
    <glyph glyph-name="Ydotbelow" unicode="&#x1ef4;" horiz-adv-x="1188" 
d="M735 528v-528h-284v522l-433 862h308l270 -579l276 579h297zM738 -248q0 -74 -36 -102.5t-110 -28.5q-82 0 -111.5 34t-29.5 97q0 70 31.5 100.5t109.5 30.5t112 -29.5t34 -101.5z" />
    <glyph glyph-name="ydotbelow" unicode="&#x1ef5;" horiz-adv-x="1085" 
d="M35 -141q84 -29 151 -29q58 0 102 35t91 145l27 62l-379 977h268l248 -670l254 670h262l-451 -1121q-55 -135 -107 -200t-121.5 -94t-174.5 -29q-114 0 -225 30zM942 -248q0 -74 -36 -102.5t-110 -28.5q-82 0 -111.5 34t-29.5 97q0 70 31.5 100.5t109.5 30.5t112 -29.5
t34 -101.5z" />
    <glyph glyph-name="Yhookabove" unicode="&#x1ef6;" horiz-adv-x="1188" 
d="M735 528v-528h-284v522l-433 862h308l270 -579l276 579h297zM387 1823q70 53 197 53q104 0 160.5 -46t56.5 -120q0 -69 -47 -116.5t-127 -53.5v-43h-127v137h43q74 0 74 60q0 51 -76 51q-58 0 -96 -25z" />
    <glyph glyph-name="yhookabove" unicode="&#x1ef7;" horiz-adv-x="1085" 
d="M35 -141q84 -29 151 -29q58 0 102 35t91 145l27 62l-379 977h268l248 -670l254 670h262l-451 -1121q-55 -135 -107 -200t-121.5 -94t-174.5 -29q-114 0 -225 30zM335 1487q70 53 197 53q104 0 160.5 -46t56.5 -120q0 -69 -47 -116.5t-127 -53.5v-43h-127v137h43
q74 0 74 60q0 51 -76 51q-58 0 -96 -25z" />
    <glyph glyph-name="Ytilde" unicode="&#x1ef8;" horiz-adv-x="1188" 
d="M735 528v-528h-284v522l-433 862h308l270 -579l276 579h297zM189 1567q5 155 73 236t189 81q61 0 104 -22.5t77 -48t62.5 -48t61.5 -22.5q34 0 51 33t17 94h182q-10 -165 -75.5 -243.5t-188.5 -78.5q-66 0 -109 22.5t-75.5 50.5t-59.5 50.5t-60 22.5q-67 0 -67 -127h-182
z" />
    </font>
</defs>
</svg>
